<?xml version="1.0" encoding="utf-8"?>
<!-- Generator: Adobe Illustrator 24.0.3, SVG Export Plug-In . SVG Version: 6.00 Build 0)  -->
<svg version="1.1" id="Layer_1" xmlns="http://www.w3.org/2000/svg" xmlns:xlink="http://www.w3.org/1999/xlink" x="0px" y="0px"
	 viewBox="0 0 357 500" style="enable-background:new 0 0 357 500;" xml:space="preserve">
<style type="text/css">
	.st0{fill:#5D6478;}
	.st1{fill:#353944;}
	.st2{fill:#EE0100;}
	.st3{fill:#FC7400;}
</style>
<g>
	<path class="st0" d="M23.13,490C15.89,490,10,484.11,10,476.87V23.13C10,15.89,15.89,10,23.13,10h310.87
		c7.24,0,13.13,5.89,13.13,13.13v453.73c0,7.24-5.89,13.13-13.13,13.13H23.13z"/>
	<path class="st1" d="M334.01,20c1.67,0,3.13,1.46,3.13,3.13v453.73c0,1.67-1.46,3.13-3.13,3.13H23.13c-1.67,0-3.13-1.46-3.13-3.13
		V23.13c0-1.67,1.46-3.13,3.13-3.13H334.01 M334.01,0H23.13C10.41,0,0,10.41,0,23.13v453.73C0,489.59,10.41,500,23.13,500h310.87
		c12.72,0,23.13-10.41,23.13-23.13V23.13C357.14,10.41,346.73,0,334.01,0L334.01,0z"/>
</g>
<g id="a8sXlJ.tif">
	<g>
		<path class="st2" d="M186.27,375.59c-1.46-6.71-2.94-13.41-4.37-20.12c-3.35-15.75-5.48-31.73-9.2-47.4
			c-0.81-3.42-1.81-6.77-3.46-9.89c-2.83-5.34-6.74-6.7-12.35-4.08c-6.86,3.2-12.31,8.37-17.79,13.4
			c-5.01,4.6-9.75,9.49-14.63,14.22c-0.8,0.78-1.41,1.99-2.93,1.72c3.82-10.84,7.01-21.69,8.11-33.04c0.29-2.97,0.03-5.94-0.59-8.84
			c-1.23-5.75-5.14-9.2-11.12-10.09c-9.25-1.37-18.11,0.91-26.94,3.03c-20.86,5-41.32,11.52-62.23,16.37
			c-1.08,0.25-2.13,0.52-3.37,0.26c15.51-12.26,31.99-22.94,48.52-33.56c6.36-4.08,12.6-8.36,18.84-12.62c3-2.04,5.75-4.4,8.11-7.18
			c4.69-5.54,4.41-10.01-0.92-14.85c-3.86-3.5-8.46-5.82-13.09-8.09c-6.1-2.99-12.48-5.31-18.8-7.78c-0.97-0.38-2.1-0.46-3.12-1.73
			c5.01-0.57,9.73-1.05,14.44-1.67c9.01-1.19,18.06-2.18,26.74-5.11c11.3-3.81,13.31-9.12,6.96-19.23
			c-5.86-9.32-13.39-17.35-20.48-25.7c-8.57-10.1-17.13-20.2-25.21-30.74c1.58-0.65,2.62,0.32,3.76,0.91
			c15.39,7.88,30.42,16.48,46.12,23.74c5.07,2.34,10.21,4.53,15.89,5.04c5.44,0.48,9.08-1.63,11.14-6.71
			c1.97-4.86,2.4-10.03,2.52-15.17c0.26-11.72-0.17-23.43-1.79-35.07c-0.11-0.8,0.08-1.64,0.15-2.77c1.91,0.78,2.26,2.41,2.96,3.63
			c8.14,14.13,15.73,28.58,24.31,42.47c1.96,3.18,4.08,6.26,6.82,8.82c3.98,3.74,7.59,3.76,11.56-0.03
			c5.14-4.91,8.53-11.11,11.96-17.22c5.46-9.74,10.64-19.63,15.94-29.46c0.29-0.55,0.61-1.08,1.1-1.96c0,6.62,0.02,12.79-0.01,18.96
			c-0.04,8.23-0.13,16.46,1.51,24.58c0.07,0.32,0.08,0.65,0.15,0.97c2.34,10.43,7.7,13.44,17.78,9.77
			c7.65-2.79,14.57-7.05,21.54-11.18c13.1-7.76,26.16-15.58,39.25-23.34c0.89-0.53,1.69-1.35,3.41-1.35c-3.1,4.2-5.88,8.19-8.87,12
			c-10.77,13.71-21.63,27.34-32.41,41.05c-2.44,3.1-4.64,6.4-6.31,9.98c-3.19,6.83-1.59,11,5.4,13.85
			c7.61,3.1,15.72,3.84,23.78,4.64c6.76,0.67,13.54,1.14,20.37,1.7c-0.28,1.31-1.63,1.21-2.51,1.58
			c-10.7,4.48-21.44,8.87-31.47,14.78c-2.74,1.62-5.36,3.42-7.63,5.68c-4.77,4.75-5.1,9.26-0.86,14.54
			c4.11,5.11,9.48,8.78,14.78,12.48c15.1,10.53,30.7,20.32,45.61,31.14c0.86,0.62,1.71,1.26,2.34,2.61
			c-4.18-0.84-8.39-1.56-12.54-2.54c-17.36-4.12-34.69-8.34-52.05-12.46c-4.17-0.99-8.42-1.54-12.72-1.12
			c-5.33,0.52-7.79,3.17-7.94,8.58c-0.21,7.59,2.12,14.7,4.48,21.76c2.28,6.85,4.87,13.59,7.27,20.39c0.35,0.99,1.16,1.92,0.64,3.32
			c-5.11-4.58-10.13-9.1-15.18-13.58c-5.25-4.66-10.68-9.12-16.78-12.65c-10.67-6.19-16.55-4.03-20.39,7.72
			c-3.07,9.4-4.38,19.21-5.93,28.93C192.21,346.5,189.84,361.09,186.27,375.59z M118.67,163.54c-0.07-0.06-0.14-0.12-0.21-0.17
			c0.08,0.05,0.16,0.1,0.25,0.14c0.38,0.29,0.76,0.57,1.14,0.86c0.02,0.8,0.37,1.45,0.85,2.09c3.51,4.62,7.07,9.2,10.46,13.91
			c4.41,6.13,8.84,12.29,11.21,19.59c2.63,8.13,0.27,13.17-7.6,16.51c-4.42,1.88-9.17,2.45-14.76,3.53
			c4.54,2.06,8.32,3.61,11.94,5.46c8.26,4.22,8.6,7.88,1.07,13.17c-6.63,4.66-13.51,8.96-20.24,13.46
			c-3.95,2.64-7.89,5.3-11.36,8.66c8.53-2.02,16.96-4.24,25.38-6.5c4.96-1.33,9.94-2.67,15.07-3.04c5.88-0.43,8.46,2.06,8.49,7.72
			c0.01,2.19-0.03,4.36-0.63,6.51c-0.94,3.38-1.74,6.8-2.6,10.2c0.3,0.23,0.6,0.46,0.89,0.69c1.24-1.52,2.31-3.22,3.75-4.52
			c3.88-3.53,7.55-7.35,12.3-9.79c4.12-2.12,6.77-1.39,9.1,2.56c0.61,1.03,1.07,2.16,1.5,3.28c2.81,7.27,3.98,14.98,5.93,22.48
			c0.66,2.54,0.78,5.26,2.39,7.96c1.47-8.72,2.71-17.04,4.32-25.28c1.19-6.09,1.98-12.33,5.06-17.91c2.25-4.08,5.22-4.94,9.23-2.51
			c5.04,3.06,8.86,7.46,12.67,11.84c0.86,0.99,1.76,1.96,2.64,2.93c-2.1-5.83-4.84-11.16-7.42-16.57c-1.22-2.56-2.39-5.2-3.11-7.93
			c-0.9-3.38,0.09-4.38,3.58-4.36c5.27,0.03,9.97,2.32,14.9,3.71c3.46,0.97,6.65,2.86,10.35,2.98c0.12,0.1,0.23,0.2,0.35,0.3
			c-0.1-0.11-0.2-0.23-0.3-0.34c-1.13-1.53-2.86-2.32-4.28-3.5c-4.71-3.89-10.11-7.01-13.77-12.07c-2.49-3.44-2.1-5.5,1.34-7.98
			c3.42-2.46,7.36-3.84,11.21-5.42c5.38-2.21,10.79-4.35,16.19-6.52c-0.75-0.6-1.37-0.66-1.98-0.66
			c-6.24,0.06-12.48-0.05-18.59-1.48c-5.89-1.38-6.94-4.13-3.68-9.22c2.85-4.44,6.47-8.26,9.8-12.31c3.95-4.8,8.45-9.15,11.76-14.47
			c0.37-0.31,1.15-0.69,0.66-1.1c-0.55-0.45-0.78,0.37-0.99,0.82c-0.8,0.06-1.45,0.4-2.07,0.9c-4.83,3.94-9.64,7.91-14.52,11.78
			c-4.8,3.81-9.64,7.6-15.31,10.07c-4.81,2.1-8.21,0.29-8.63-4.75c-0.33-4.02-0.46-8.1,0.29-12.12c1.05-5.67,1.13-7.22,0.37-9.73
			c-0.25,0.56-0.49,1.05-0.7,1.55c-2.52,6.2-5.38,12.22-9.63,17.45c-5.83,7.18-14.05,7.42-19.92,0.55c-2.49-2.92-4.58-6.1-6.38-9.51
			c-2.59-4.92-4.45-10.15-6.68-15.64c-0.3,1.65,0.03,2.82,0.12,4c0.35,4.79,0.79,9.61-0.28,14.37c-0.95,4.24-2.59,5.15-6.53,3.46
			c-4.14-1.78-7.76-4.48-11.56-6.87c-7.02-4.42-13.72-9.41-21.42-12.69C119.72,163.6,119.23,163.48,118.67,163.54z"/>
		<path class="st3" d="M120.08,164.08c7.7,3.29,14.39,8.27,21.42,12.69c3.8,2.39,7.41,5.09,11.56,6.87
			c3.94,1.69,5.58,0.79,6.53-3.46c1.07-4.77,0.63-9.58,0.28-14.37c-0.09-1.19-0.42-2.35-0.12-4c2.22,5.49,4.09,10.72,6.68,15.64
			c1.79,3.41,3.89,6.6,6.38,9.51c5.87,6.87,14.08,6.63,19.92-0.55c4.25-5.24,7.11-11.25,9.63-17.45c0.2-0.5,0.44-0.99,0.7-1.55
			c0.76,2.51,0.68,4.06-0.37,9.73c-0.75,4.02-0.62,8.1-0.29,12.12c0.42,5.04,3.82,6.84,8.63,4.75c5.67-2.47,10.51-6.26,15.31-10.07
			c4.88-3.87,9.69-7.84,14.52-11.78c0.61-0.5,1.27-0.85,2.07-0.9c0.11,0.09,0.22,0.18,0.33,0.28c-3.31,5.32-7.82,9.67-11.76,14.47
			c-3.33,4.05-6.95,7.88-9.8,12.31c-3.27,5.09-2.22,7.84,3.68,9.22c6.11,1.43,12.35,1.54,18.59,1.48c0.61-0.01,1.23,0.05,1.98,0.66
			c-5.4,2.17-10.81,4.3-16.19,6.52c-3.84,1.58-7.79,2.97-11.21,5.42c-3.44,2.48-3.83,4.53-1.34,7.98
			c3.66,5.06,9.06,8.18,13.77,12.07c1.42,1.17,3.15,1.97,4.28,3.5l-0.05,0.05c-3.7-0.13-6.9-2.01-10.35-2.98
			c-4.93-1.39-9.63-3.68-14.9-3.71c-3.49-0.02-4.48,0.97-3.58,4.36c0.72,2.73,1.89,5.37,3.11,7.93c2.58,5.41,5.32,10.75,7.42,16.57
			c-0.88-0.98-1.77-1.94-2.64-2.93c-3.82-4.38-7.63-8.78-12.67-11.84c-4.01-2.44-6.97-1.58-9.23,2.51
			c-3.08,5.58-3.87,11.82-5.06,17.91c-1.61,8.24-2.85,16.56-4.32,25.28c-1.61-2.7-1.73-5.42-2.39-7.96
			c-1.96-7.5-3.13-15.21-5.93-22.48c-0.43-1.12-0.89-2.25-1.5-3.28c-2.34-3.95-4.98-4.68-9.1-2.56c-4.75,2.44-8.42,6.26-12.3,9.79
			c-1.43,1.31-2.51,3-3.75,4.52c-0.3-0.23-0.6-0.46-0.89-0.69c0.86-3.4,1.65-6.82,2.6-10.2c0.6-2.15,0.65-4.32,0.63-6.51
			c-0.03-5.65-2.61-8.14-8.49-7.72c-5.13,0.37-10.11,1.71-15.07,3.04c-8.42,2.26-16.85,4.47-25.38,6.5
			c3.47-3.36,7.41-6.02,11.36-8.66c6.73-4.51,13.61-8.81,20.24-13.46c7.53-5.29,7.18-8.95-1.07-13.17c-3.62-1.85-7.4-3.4-11.94-5.46
			c5.59-1.08,10.34-1.65,14.76-3.53c7.86-3.34,10.23-8.38,7.6-16.51c-2.37-7.31-6.8-13.46-11.21-19.59
			c-3.39-4.71-6.96-9.29-10.46-13.91c-0.48-0.63-0.83-1.28-0.85-2.09C119.92,164.27,120,164.17,120.08,164.08z"/>
		<path class="st3" d="M242.92,171.24c0.21-0.46,0.44-1.27,0.99-0.82c0.49,0.4-0.3,0.79-0.66,1.1
			C243.14,171.43,243.03,171.33,242.92,171.24z"/>
		<path class="st3" d="M118.67,163.54c0.56-0.06,1.06,0.06,1.41,0.54c-0.08,0.09-0.16,0.19-0.24,0.29
			c-0.38-0.28-0.76-0.57-1.14-0.85L118.67,163.54z"/>
		<path class="st3" d="M118.7,163.51c-0.08-0.05-0.16-0.1-0.25-0.14c0.07,0.06,0.14,0.12,0.21,0.17
			C118.67,163.54,118.7,163.51,118.7,163.51z"/>
		<path class="st3" d="M235.25,245.15c0.1,0.11,0.2,0.23,0.3,0.34c-0.12-0.1-0.23-0.2-0.35-0.3
			C235.2,245.19,235.25,245.15,235.25,245.15z"/>
	</g>
</g>
<g>
	<path class="st3" d="M104.71,417.09l-0.54,3.09l-1.01,5.66l-6.07,5.18l-0.89,0.66l-4.23,1.13H60.72v-3.75l0.54-3.27l0.89-5.36
		l1.43-8.33l1.37-8.16l1.85-11.07l0.12-0.59l4.11-0.06h30.48l6.43,5.95l-1.25,7.2l-0.3,2.02l-4.35,3.57l-1.96,1.73L104.71,417.09z
		 M95.6,427.69c0.12,0.2,0.28,0.38,0.48,0.54c0.2,0.16,0.4,0.24,0.6,0.24h0.24c0-0.2-0.24-0.49-0.71-0.86
		c-0.48-0.38-0.83-0.6-1.07-0.68c-0.2-0.36-0.43-0.67-0.68-0.95c-0.26-0.28-0.52-0.54-0.77-0.77c-0.26-0.24-0.51-0.5-0.74-0.77
		c-0.24-0.28-0.44-0.62-0.6-1.01c-0.2-0.08-0.36-0.18-0.48-0.3l-0.06-0.06c0-0.12-0.1-0.28-0.3-0.48c-0.2-0.2-0.34-0.36-0.42-0.48
		v-1.13l0.18-0.18v-0.6l0.3-0.18v-0.59h0.24v-1.85l-0.24-0.3c0-0.08,0.01-0.14,0.03-0.18c0.02-0.04,0.03-0.1,0.03-0.18
		c0-0.36-0.07-0.7-0.21-1.04c-0.14-0.34-0.21-0.7-0.21-1.1c0-0.08,0.01-0.14,0.03-0.18c0.02-0.04,0.03-0.1,0.03-0.18l-0.18-0.24
		v-0.54c0-0.04,0.02-0.06,0.06-0.06c0.08,0,0.22-0.11,0.42-0.33c0.2-0.22,0.36-0.37,0.48-0.45c0.16-0.12,0.44-0.29,0.83-0.51
		c0.4-0.22,0.63-0.41,0.71-0.57h1.85l0.18,0.3h0.3c0.28,0,0.53,0.04,0.74,0.12c0.22,0.08,0.49,0.12,0.8,0.12l0.42,0.24
		c0.2,0,0.42,0.05,0.65,0.15c0.24,0.1,0.4,0.25,0.48,0.45c0.04,0,0.08-0.01,0.12-0.03c0.04-0.02,0.08-0.03,0.12-0.03
		c0.2,0,0.4,0.05,0.6,0.15c0.2,0.1,0.34,0.23,0.42,0.39h0.54c-0.08-0.08-0.28-0.21-0.6-0.39c-0.32-0.18-0.56-0.31-0.71-0.39
		c0-0.24-0.13-0.4-0.39-0.48c-0.26-0.08-0.45-0.18-0.57-0.3h-0.54l-0.3-0.3h-0.48c-0.08-0.04-0.15-0.09-0.21-0.15
		s-0.11-0.09-0.15-0.09c-0.12,0-0.29-0.01-0.51-0.03c-0.22-0.02-0.43-0.05-0.62-0.09c-0.24-0.04-0.52-0.1-0.83-0.18
		c0-0.08-0.04-0.12-0.12-0.12c-0.08,0-0.12-0.04-0.12-0.12c0-0.16,0.08-0.36,0.24-0.6c0.16-0.24,0.35-0.47,0.57-0.68
		c0.22-0.22,0.43-0.41,0.62-0.57c0.2-0.16,0.36-0.24,0.48-0.24c0.16,0,0.32-0.16,0.48-0.48c0.16-0.32,0.28-0.58,0.36-0.77
		c0-0.04,0.01-0.07,0.03-0.09c0.02-0.02,0.03-0.05,0.03-0.09c0.08-0.08,0.19-0.13,0.33-0.15c0.14-0.02,0.21-0.11,0.21-0.27h0.54
		l0.77-0.54h0.48c0.04-0.04,0.15-0.14,0.33-0.3s0.37-0.32,0.57-0.48c0.2-0.16,0.39-0.3,0.57-0.42c0.18-0.12,0.29-0.18,0.33-0.18
		l0.48-0.48c-0.2,0.2-0.5,0.37-0.89,0.51c-0.4,0.14-0.75,0.21-1.07,0.21c-0.12,0.08-0.26,0.16-0.42,0.24
		c-0.16,0.08-0.28,0.18-0.36,0.3h-0.54c-0.16,0.32-0.4,0.49-0.71,0.51c-0.32,0.02-0.52,0.11-0.6,0.27l-0.54,0.12
		c0,0.2-0.1,0.39-0.3,0.57c-0.2,0.18-0.36,0.33-0.48,0.45v0.24l-0.54,0.54c0.04,0.04-0.05,0.17-0.27,0.39
		c-0.22,0.22-0.37,0.37-0.45,0.45c-0.71,0.44-1.34,0.9-1.88,1.4c-0.54,0.5-1.18,0.98-1.93,1.46l-1.31,0.83
		c-0.08,0-0.14-0.02-0.18-0.06c-0.24-0.12-0.61-0.28-1.1-0.48c-0.5-0.2-0.99-0.43-1.49-0.68c-0.5-0.26-0.93-0.54-1.31-0.83
		c-0.38-0.3-0.57-0.58-0.57-0.86l-0.77-0.95c0-0.32-0.14-0.67-0.42-1.07c-0.28-0.4-0.5-0.69-0.65-0.89
		c-0.08-0.08-0.17-0.17-0.27-0.27c-0.1-0.1-0.15-0.27-0.15-0.51l-0.36-0.3h0.36c0-0.08-0.01-0.13-0.03-0.15
		c-0.02-0.02-0.03-0.07-0.03-0.15c0-0.36,0.08-0.74,0.24-1.16c0.16-0.42,0.24-0.8,0.24-1.16v-0.24l4.88,4.52h0.6l1.01-5.77
		l-5.65-0.54c0.32-0.44,0.7-0.87,1.16-1.31c0.46-0.44,0.84-0.65,1.16-0.65c0.56,0,1.12,0.08,1.7,0.24c0.57,0.16,1.12,0.34,1.64,0.54
		c0.08-0.04,0.29-0.15,0.62-0.33c0.34-0.18,0.68-0.38,1.04-0.6c0.36-0.22,0.7-0.45,1.04-0.68c0.34-0.24,0.54-0.42,0.62-0.54h-0.54
		l-0.24,0.36c-0.04,0-0.08-0.01-0.12-0.03c-0.04-0.02-0.08-0.03-0.12-0.03c-0.28,0-0.54,0.08-0.77,0.24
		c-0.24,0.16-0.5,0.24-0.77,0.24H90.3l-0.36,0.36h-0.48L89.23,399h-0.54l-0.24-0.24h-0.54c-0.12-0.12-0.3-0.18-0.54-0.18l-0.6-0.36
		c-0.16,0-0.28-0.08-0.36-0.24H85.6c-0.12,0.04-0.28,0.15-0.48,0.33c-0.2,0.18-0.42,0.36-0.65,0.54c-0.24,0.18-0.46,0.35-0.65,0.51
		c-0.2,0.16-0.34,0.24-0.42,0.24c-0.24,0-0.46-0.18-0.65-0.54c-0.12-0.16-0.22-0.36-0.3-0.59c-0.24-0.36-0.49-0.64-0.74-0.86
		c-0.26-0.22-0.52-0.4-0.77-0.54c-0.26-0.14-0.51-0.27-0.74-0.39c-0.24-0.12-0.48-0.3-0.71-0.54v-0.24h-0.24l-0.3-0.36h-0.24
		c0,0.08,0.13,0.27,0.39,0.57c0.26,0.3,0.56,0.62,0.89,0.98c0.34,0.36,0.66,0.69,0.98,1.01c0.32,0.32,0.52,0.54,0.6,0.66l0.71,0.83
		c0,0.12,0.02,0.22,0.06,0.3c0,0.08,0.02,0.14,0.06,0.18c0.08,0,0.12,0.1,0.12,0.3l0.36,0.3v0.77l-1.13,0.48l0.77,0.71
		c-0.04,0.32-0.12,0.67-0.24,1.04c-0.12,0.38-0.3,0.61-0.54,0.68l-0.48,1.37h-0.77l-0.24,0.18l-0.95-0.06
		c0-0.08-0.05-0.12-0.15-0.12c-0.1,0-0.17,0-0.21,0v-0.6l0.3-0.24v-0.54l0.24-0.3v-0.77l0.24-0.24v-1.31
		c-0.08,0.44-0.27,0.88-0.57,1.34c-0.3,0.46-0.45,0.74-0.45,0.86c0,0.2-0.1,0.34-0.3,0.42v0.54h-0.77v-0.3
		c-0.04,0.04-0.1,0.06-0.18,0.06c-0.28,0-0.55-0.17-0.8-0.51c-0.26-0.34-0.55-0.51-0.86-0.51c-0.12,0-0.23-0.17-0.33-0.51
		c-0.1-0.34-0.21-0.55-0.33-0.62v-0.6h-1.07v-0.24c-0.12,0-0.22-0.02-0.3-0.06c-0.08,0-0.14-0.02-0.18-0.06
		c0-0.08-0.07-0.17-0.21-0.27c-0.14-0.1-0.25-0.15-0.33-0.15h-0.3c0,0.2,0.18,0.46,0.54,0.77c0.36,0.32,0.61,0.52,0.77,0.6
		c0.12,0.08,0.27,0.2,0.45,0.36c0.18,0.16,0.29,0.22,0.33,0.18v0.54c0.52,0.2,0.92,0.55,1.22,1.04c0.3,0.5,0.68,0.86,1.16,1.1h-2.92
		v-0.36h-0.77c-0.08-0.16-0.22-0.27-0.42-0.33c-0.2-0.06-0.38-0.11-0.54-0.15c-0.2,0.08-0.43,0.14-0.68,0.18
		c-0.26,0.04-0.55,0.06-0.86,0.06v0.24h0.24c0.12,0,0.3,0.01,0.54,0.03c0.24,0.02,0.48,0.06,0.71,0.12
		c0.24,0.06,0.46,0.14,0.65,0.24c0.2,0.1,0.32,0.25,0.36,0.45h0.54l0.24,0.3h1.61l0.24,0.18h2.02v0.36h0.54v0.24
		c-0.08,0.08-0.17,0.16-0.27,0.24c-0.1,0.08-0.19,0.18-0.27,0.3l-2.02,2.08h-0.77c-0.08-0.12-0.19-0.23-0.33-0.33
		c-0.14-0.1-0.21-0.25-0.21-0.45c-0.08-0.04-0.24-0.15-0.48-0.33c-0.24-0.18-0.4-0.25-0.48-0.21c-0.08-0.08-0.2-0.19-0.36-0.33
		c-0.16-0.14-0.33-0.29-0.51-0.45c-0.18-0.16-0.34-0.29-0.48-0.39c-0.14-0.1-0.23-0.15-0.27-0.15l-0.3,0.18h-0.48l0.3,0.36h0.48
		c0.16,0.08,0.4,0.27,0.71,0.57c0.32,0.3,0.63,0.62,0.95,0.98c0.32,0.36,0.6,0.71,0.83,1.07c0.24,0.36,0.36,0.64,0.36,0.83v2.14
		l-0.3,0.48v1.07h-0.24v0.6c-0.12,0-0.18,0.08-0.18,0.24c0,0.04-0.01,0.06-0.03,0.06c-0.02,0-0.03,0.02-0.03,0.06
		c-0.04,0.04-0.06,0.08-0.06,0.12c-0.08,0.12-0.27,0.21-0.57,0.27c-0.3,0.06-0.53,0.13-0.68,0.21c-0.2,0.12-0.4,0.26-0.6,0.42
		c-0.2,0.16-0.42,0.28-0.65,0.36c-0.08,0.2-0.19,0.51-0.33,0.92c-0.14,0.42-0.21,0.82-0.21,1.22l-0.24,0.24v0.54
		c0.04,0,0.14-0.16,0.3-0.48c0.08-0.16,0.14-0.32,0.18-0.48c0.12-0.2,0.24-0.4,0.36-0.6c0.12-0.2,0.26-0.38,0.42-0.54
		c0.32-0.32,0.73-0.6,1.25-0.83c0.52-0.24,0.95-0.52,1.31-0.83c0-0.12,0.07-0.21,0.21-0.27c0.14-0.06,0.25-0.11,0.33-0.15v-0.83
		l0.24-0.24v-0.77l0.3-0.3v-1.07l0.24-0.3v-0.24c0-0.36,0.06-0.69,0.18-1.01c0.08-0.08,0.32-0.29,0.71-0.62
		c0.4-0.34,0.81-0.71,1.25-1.13c0.44-0.42,0.85-0.82,1.25-1.22c0.4-0.4,0.63-0.67,0.71-0.83h0.71v0.36c0.2,0.28,0.5,0.58,0.89,0.89
		c0.4,0.32,0.73,0.62,1.01,0.89l1.31,1.49c0.08,0.08,0.14,0.17,0.18,0.27c0.04,0.1,0.12,0.15,0.24,0.15v0.54
		c-0.16,0.08-0.24,0.24-0.24,0.48c-0.08,0.16-0.26,0.43-0.54,0.8c-0.28,0.38-0.58,0.77-0.89,1.19c-0.32,0.42-0.64,0.8-0.95,1.16
		c-0.32,0.36-0.56,0.58-0.71,0.65c-0.16,0.08-0.39,0.19-0.68,0.33c-0.3,0.14-0.49,0.29-0.57,0.45l-0.77,0.18h1.25
		c0.91-0.79,1.71-1.54,2.38-2.23c0.67-0.69,1.43-1.54,2.26-2.53c0.08,0.08,0.17,0.16,0.27,0.24c0.1,0.08,0.15,0.14,0.15,0.18
		c0,0.08,0.04,0.17,0.12,0.27c0.08,0.1,0.16,0.17,0.24,0.21v0.48l0.54,0.54v0.54l0.18,0.24v0.54c0.16-0.04,0.25-0.22,0.27-0.54
		c0.02-0.32,0.03-0.63,0.03-0.95c0-0.16,0.02-0.3,0.06-0.42c0-0.08,0.02-0.18,0.06-0.3c0.08,0,0.14,0.05,0.18,0.15
		c0.04,0.1,0.1,0.17,0.18,0.21c0.2,0.12,0.5,0.22,0.89,0.3c0.4,0.08,0.71,0.16,0.95,0.24v0.65c0,0.75,0.08,1.43,0.24,2.02
		c-0.44,0.44-0.84,0.81-1.22,1.13c-0.38,0.32-0.84,0.65-1.4,1.01c-0.52,0.36-1.03,0.79-1.55,1.31l-0.54,0.48l-3.39-3.87l-2.98,3.81
		l7.68,2.62l0.18-0.95l-1.13-1.25c0.04-0.04,0.1-0.06,0.18-0.06c0.6-0.24,1.09-0.59,1.49-1.07c0.4-0.48,0.95-0.81,1.67-1.01
		c0.12-0.28,0.3-0.47,0.54-0.57c0.24-0.1,0.46-0.25,0.65-0.45c0.08-0.08,0.14-0.11,0.18-0.09c0.04,0.02,0.08,0.01,0.12-0.03v-0.24
		c0.36,0,0.61,0.18,0.77,0.54l-0.18,0.48v0.3c0,0.32-0.04,0.69-0.12,1.13c-0.08,0.44-0.24,0.66-0.48,0.66l-0.18,0.83v0.83
		c0.12,0.12,0.27,0.31,0.45,0.57c0.18,0.26,0.37,0.53,0.57,0.8c0.2,0.28,0.41,0.52,0.62,0.71c0.22,0.2,0.45,0.3,0.68,0.3
		c0.16,0,0.4,0.23,0.71,0.68c0.32,0.46,0.52,0.78,0.6,0.98c0.12,0.2,0.38,0.36,0.77,0.48c0.4,0.12,0.63,0.3,0.71,0.54H95.6z
		 M78.69,417.27v0.3h0.24l0.3-0.3H78.69z M93.34,398.22l0.24-0.24H93.1v0.24H93.34z"/>
	<path class="st3" d="M132.38,423.58l0.24-1.43l0.6-3.63h0.48c0.28,0,0.57-0.04,0.89-0.12c0.32-0.08,0.61-0.12,0.89-0.12h0.24
		c0.04-0.12,0.25-0.25,0.62-0.39c0.38-0.14,0.57-0.27,0.57-0.39c-0.2,0-0.36,0.06-0.48,0.18c-0.08,0-0.3,0.01-0.65,0.03
		c-0.36,0.02-0.77,0.03-1.25,0.03h-1.19l1.13-6.31l0.12-0.65c0.16-0.08,0.3-0.12,0.42-0.12c0.08,0,0.16-0.04,0.24-0.12
		c0.08-0.08,0.14-0.16,0.18-0.24h0.77c0.28,0.36,0.68,0.81,1.22,1.37c0.54,0.56,1.08,1.12,1.64,1.7c0.56,0.58,1.05,1.11,1.49,1.61
		c0.44,0.5,0.71,0.88,0.83,1.16l0.54,0.24c0.04,0.16,0.15,0.33,0.33,0.51c0.18,0.18,0.37,0.35,0.57,0.51
		c0.2,0.16,0.39,0.3,0.57,0.42c0.18,0.12,0.27,0.2,0.27,0.24h2.62l-0.54-0.36h-0.77l-0.24-0.18h-0.54l-0.24-0.3
		c-0.12,0-0.22-0.02-0.3-0.06c-0.08,0-0.14-0.02-0.18-0.06c0-0.08-0.08-0.14-0.24-0.18c-0.16-0.04-0.28-0.1-0.36-0.18
		c-0.04-0.08-0.13-0.22-0.27-0.42c-0.14-0.2-0.29-0.4-0.45-0.59c-0.16-0.2-0.3-0.39-0.42-0.57s-0.18-0.29-0.18-0.33
		c-0.12-0.2-0.26-0.37-0.42-0.51c-0.16-0.14-0.34-0.31-0.54-0.51c-0.44-0.4-0.76-0.88-0.98-1.46c-0.22-0.58-0.59-0.98-1.1-1.22
		v-0.54h1.01l0.3-0.3h2.26v-0.3h-0.71c-0.6,0-1.2-0.03-1.82-0.09c-0.62-0.06-1.22-0.09-1.82-0.09c-0.08-0.08-0.19-0.2-0.33-0.36
		c-0.14-0.16-0.31-0.24-0.51-0.24v-0.77c0,0.04,0.1,0,0.3-0.12l0.24-0.12c0.44-0.44,0.85-0.89,1.25-1.37
		c0.4-0.48,0.67-0.99,0.83-1.55c0.16-0.04,0.42-0.24,0.77-0.59c0.36-0.36,0.72-0.76,1.1-1.22c0.38-0.46,0.73-0.89,1.07-1.31
		c0.34-0.42,0.54-0.7,0.62-0.86l0.54-0.24c0.04-0.2,0.22-0.47,0.54-0.8c0.32-0.34,0.63-0.67,0.95-1.01
		c0.32-0.34,0.61-0.63,0.89-0.89c0.28-0.26,0.42-0.43,0.42-0.51h0.6c0.04-0.08,0.13-0.17,0.27-0.27c0.14-0.1,0.27-0.17,0.39-0.21
		h-0.65c-0.08,0.16-0.22,0.24-0.42,0.24c-0.2,0-0.32,0.08-0.36,0.24h-0.54c-0.32,0.16-0.71,0.47-1.16,0.92
		c-0.46,0.46-0.92,0.94-1.4,1.46c-0.48,0.52-0.93,1.02-1.37,1.52c-0.44,0.5-0.77,0.88-1.01,1.16c-0.08,0-0.17,0.01-0.27,0.03
		c-0.1,0.02-0.19,0.03-0.27,0.03c-0.12,0.04-0.24,0.06-0.36,0.06c0,0.12-0.12,0.18-0.36,0.18l-0.06,0.83l-2.02,2.86l-0.54,0.18
		c-0.12,0.16-0.28,0.39-0.48,0.68c-0.2,0.3-0.4,0.45-0.6,0.45c-0.12,0-0.22,0.04-0.3,0.12l-0.12,0.12c-0.2,0-0.3-0.02-0.3-0.06
		c0-0.04,0.01-0.07,0.03-0.09c0.02-0.02,0.03-0.05,0.03-0.09H135l0.54-3.1l0.6-3.33l-2.44-0.36h-0.89c0-0.24,0.01-0.49,0.03-0.74
		c0.02-0.26,0.03-0.51,0.03-0.74v-0.42h-0.3c0,0.32-0.01,0.63-0.03,0.95c-0.02,0.32-0.05,0.64-0.09,0.95h-3.69l-1.9,1.55l-1.01,6.25
		l-1.31,7.8l-0.18,0.83l-0.42-0.36c-0.6-0.32-1.02-0.57-1.28-0.74c-0.26-0.18-0.46-0.38-0.6-0.59c-0.14-0.22-0.26-0.47-0.36-0.74
		c-0.1-0.28-0.27-0.69-0.51-1.25c-0.08-0.2-0.2-0.32-0.36-0.36v-0.59c-0.08-0.04-0.27-0.33-0.57-0.86c-0.3-0.54-0.72-0.94-1.28-1.22
		c-0.08-0.2-0.28-0.37-0.6-0.51c-0.32-0.14-0.56-0.25-0.71-0.33l-0.18-0.3l-0.54-0.18c-0.24-0.32-0.46-0.52-0.65-0.6
		c-0.2-0.08-0.42-0.24-0.65-0.48l-0.77-0.77v-0.3h-0.24c0,0.08,0.08,0.22,0.24,0.42c0.16,0.2,0.28,0.32,0.36,0.36
		c0.08,0.44,0.22,0.89,0.42,1.37c0.2,0.48,0.54,0.83,1.01,1.07c0.12,0,0.25,0.04,0.39,0.12c0.14,0.08,0.21,0.2,0.21,0.36
		c0.44,0.28,0.95,0.58,1.55,0.89s1.01,0.71,1.25,1.19c0.08,0.16,0.14,0.41,0.18,0.74c0.04,0.34,0.16,0.55,0.36,0.62v0.24
		c0,0.28,0.04,0.52,0.12,0.71c0.08,0.2,0.12,0.4,0.12,0.59c0,0.44-0.01,0.76-0.03,0.98c-0.02,0.22-0.03,0.37-0.03,0.45v0.18
		c-0.16,0-0.38,0.18-0.65,0.54c-0.28,0.36-0.56,0.54-0.83,0.54l-0.71,0.77l-0.6,0.3l-0.36,0.48l0.18-0.06l0.18-0.18l0.42-0.18
		c0.12-0.04,0.2-0.09,0.24-0.15c0.04-0.06,0.1-0.13,0.18-0.21c0.16-0.12,0.38-0.23,0.65-0.33c0.28-0.1,0.48-0.25,0.6-0.45h0.54
		v-0.24c0.12,0,0.24-0.01,0.36-0.03c0.12-0.02,0.24-0.03,0.36-0.03c0.6,0,1.09,0.09,1.49,0.27c0.4,0.18,0.81,0.43,1.25,0.74
		l-0.48,2.8l1.87,0.36v0.12c-0.07,0.08-0.14,0.19-0.2,0.33c-0.06,0.14-0.16,0.21-0.31,0.21v2.38l0.24,0.24v0.54l0.3,0.24v1.37
		c-0.16,0.08-0.29,0.24-0.39,0.48c-0.1,0.24-0.25,0.44-0.45,0.6v0.54l-0.24,0.24c0,0.2,0.02,0.3,0.06,0.3
		c0.04,0,0.07-0.01,0.09-0.03c0.02-0.02,0.05-0.03,0.09-0.03v1.67c0.11,0,0.2,0.08,0.26,0.24c0.06,0.16,0.1,0.32,0.14,0.48h-11.9
		l-6.79-6.79l-0.18-3.04l1.31-7.56l1.43-8.51l1.25-7.26l6.79-5.24l2.8-2.08l2.02-0.06h24.72l5.71,5.71l1.43,1.55l0.06,0.06
		l-1.07,6.31l-1.31,7.68l-1.07,6.31l-0.83,4.94l-4.05,3.81l-5.06,4.11l-2.26,0.06h-12.88v-2.38l1.04-1.79
		c0-0.04-0.01-0.07-0.03-0.09c-0.02-0.02-0.03-0.05-0.03-0.09c0-0.12,0.06-0.22,0.18-0.3c0.12-0.08,0.22-0.18,0.3-0.3v-0.36
		c0.28,0,0.54,0.14,0.77,0.42c0.24,0.28,0.52,0.42,0.83,0.42c0.2,0.16,0.49,0.35,0.86,0.57c0.38,0.22,0.68,0.39,0.92,0.51h0.54
		c-0.08-0.12-0.26-0.3-0.54-0.54c-0.28-0.24-0.58-0.48-0.89-0.71c-0.32-0.24-0.65-0.45-1.01-0.62c-0.36-0.18-0.65-0.27-0.89-0.27
		l-0.24-0.3h-0.54c-0.08-0.2-0.27-0.39-0.56-0.57c-0.29-0.18-0.44-0.51-0.44-0.98v-0.65c0-0.08,0.02-0.12,0.06-0.12
		c0.08,0,0.13-0.04,0.17-0.12c0.04-0.08,0.11-0.12,0.23-0.12v-1.43l2.5,0.48h0.18l0.71,0.12H132.38z M117.27,420.6v0.36l0.24-0.36
		H117.27z M130.84,429.65h0.3c0-0.08-0.06-0.11-0.18-0.09c-0.12,0.02-0.22-0.01-0.3-0.09L130.84,429.65z M148.34,397.39v-0.3h-0.24
		l-0.3,0.3H148.34z"/>
	<path class="st3" d="M178.28,423.58l0.24-1.43l0.6-3.63h0.48c0.28,0,0.57-0.04,0.89-0.12c0.32-0.08,0.61-0.12,0.89-0.12h0.24
		c0.04-0.12,0.25-0.25,0.62-0.39c0.38-0.14,0.57-0.27,0.57-0.39c-0.2,0-0.36,0.06-0.48,0.18c-0.08,0-0.3,0.01-0.65,0.03
		c-0.36,0.02-0.77,0.03-1.25,0.03h-1.19l1.13-6.31l0.12-0.65c0.16-0.08,0.3-0.12,0.42-0.12c0.08,0,0.16-0.04,0.24-0.12
		c0.08-0.08,0.14-0.16,0.18-0.24h0.77c0.28,0.36,0.68,0.81,1.22,1.37c0.54,0.56,1.08,1.12,1.64,1.7c0.56,0.58,1.05,1.11,1.49,1.61
		c0.44,0.5,0.71,0.88,0.83,1.16l0.54,0.24c0.04,0.16,0.15,0.33,0.33,0.51c0.18,0.18,0.37,0.35,0.57,0.51
		c0.2,0.16,0.39,0.3,0.57,0.42c0.18,0.12,0.27,0.2,0.27,0.24h2.62l-0.54-0.36h-0.77l-0.24-0.18h-0.54l-0.24-0.3
		c-0.12,0-0.22-0.02-0.3-0.06c-0.08,0-0.14-0.02-0.18-0.06c0-0.08-0.08-0.14-0.24-0.18c-0.16-0.04-0.28-0.1-0.36-0.18
		c-0.04-0.08-0.13-0.22-0.27-0.42c-0.14-0.2-0.29-0.4-0.45-0.59c-0.16-0.2-0.3-0.39-0.42-0.57s-0.18-0.29-0.18-0.33
		c-0.12-0.2-0.26-0.37-0.42-0.51c-0.16-0.14-0.34-0.31-0.54-0.51c-0.44-0.4-0.76-0.88-0.98-1.46c-0.22-0.58-0.59-0.98-1.1-1.22
		v-0.54h1.01l0.3-0.3h2.26v-0.3h-0.71c-0.6,0-1.2-0.03-1.82-0.09c-0.62-0.06-1.22-0.09-1.82-0.09c-0.08-0.08-0.19-0.2-0.33-0.36
		c-0.14-0.16-0.31-0.24-0.51-0.24v-0.77c0,0.04,0.1,0,0.3-0.12l0.24-0.12c0.44-0.44,0.85-0.89,1.25-1.37
		c0.4-0.48,0.67-0.99,0.83-1.55c0.16-0.04,0.42-0.24,0.77-0.59c0.36-0.36,0.72-0.76,1.1-1.22c0.38-0.46,0.73-0.89,1.07-1.31
		c0.34-0.42,0.54-0.7,0.62-0.86l0.54-0.24c0.04-0.2,0.22-0.47,0.54-0.8c0.32-0.34,0.63-0.67,0.95-1.01
		c0.32-0.34,0.61-0.63,0.89-0.89c0.28-0.26,0.42-0.43,0.42-0.51h0.6c0.04-0.08,0.13-0.17,0.27-0.27c0.14-0.1,0.27-0.17,0.39-0.21
		h-0.65c-0.08,0.16-0.22,0.24-0.42,0.24c-0.2,0-0.32,0.08-0.36,0.24h-0.54c-0.32,0.16-0.71,0.47-1.16,0.92
		c-0.46,0.46-0.92,0.94-1.4,1.46c-0.48,0.52-0.93,1.02-1.37,1.52c-0.44,0.5-0.77,0.88-1.01,1.16c-0.08,0-0.17,0.01-0.27,0.03
		c-0.1,0.02-0.19,0.03-0.27,0.03c-0.12,0.04-0.24,0.06-0.36,0.06c0,0.12-0.12,0.18-0.36,0.18l-0.06,0.83l-2.02,2.86l-0.54,0.18
		c-0.12,0.16-0.28,0.39-0.48,0.68c-0.2,0.3-0.4,0.45-0.6,0.45c-0.12,0-0.22,0.04-0.3,0.12l-0.12,0.12c-0.2,0-0.3-0.02-0.3-0.06
		c0-0.04,0.01-0.07,0.03-0.09c0.02-0.02,0.03-0.05,0.03-0.09h-0.18l0.54-3.1l0.6-3.33l-2.44-0.36h-0.89c0-0.24,0.01-0.49,0.03-0.74
		c0.02-0.26,0.03-0.51,0.03-0.74v-0.42h-0.3c0,0.32-0.01,0.63-0.03,0.95c-0.02,0.32-0.05,0.64-0.09,0.95h-3.69l-1.9,1.55l-1.01,6.25
		l-1.31,7.8l-0.18,0.83l-0.42-0.36c-0.6-0.32-1.02-0.57-1.28-0.74c-0.26-0.18-0.46-0.38-0.6-0.59c-0.14-0.22-0.26-0.47-0.36-0.74
		c-0.1-0.28-0.27-0.69-0.51-1.25c-0.08-0.2-0.2-0.32-0.36-0.36v-0.59c-0.08-0.04-0.27-0.33-0.57-0.86c-0.3-0.54-0.72-0.94-1.28-1.22
		c-0.08-0.2-0.28-0.37-0.6-0.51c-0.32-0.14-0.56-0.25-0.71-0.33l-0.18-0.3l-0.54-0.18c-0.24-0.32-0.46-0.52-0.65-0.6
		c-0.2-0.08-0.42-0.24-0.65-0.48l-0.77-0.77v-0.3h-0.24c0,0.08,0.08,0.22,0.24,0.42c0.16,0.2,0.28,0.32,0.36,0.36
		c0.08,0.44,0.22,0.89,0.42,1.37c0.2,0.48,0.54,0.83,1.01,1.07c0.12,0,0.25,0.04,0.39,0.12c0.14,0.08,0.21,0.2,0.21,0.36
		c0.44,0.28,0.95,0.58,1.55,0.89s1.01,0.71,1.25,1.19c0.08,0.16,0.14,0.41,0.18,0.74c0.04,0.34,0.16,0.55,0.36,0.62v0.24
		c0,0.28,0.04,0.52,0.12,0.71c0.08,0.2,0.12,0.4,0.12,0.59c0,0.44-0.01,0.76-0.03,0.98c-0.02,0.22-0.03,0.37-0.03,0.45v0.18
		c-0.16,0-0.38,0.18-0.65,0.54c-0.28,0.36-0.56,0.54-0.83,0.54l-0.71,0.77l-0.6,0.3l-0.36,0.48l0.18-0.06l0.18-0.18l0.42-0.18
		c0.12-0.04,0.2-0.09,0.24-0.15c0.04-0.06,0.1-0.13,0.18-0.21c0.16-0.12,0.38-0.23,0.65-0.33c0.28-0.1,0.48-0.25,0.6-0.45h0.54
		v-0.24c0.12,0,0.24-0.01,0.36-0.03c0.12-0.02,0.24-0.03,0.36-0.03c0.6,0,1.09,0.09,1.49,0.27c0.4,0.18,0.81,0.43,1.25,0.74
		l-0.48,2.8l1.87,0.36v0.12c-0.07,0.08-0.14,0.19-0.2,0.33c-0.06,0.14-0.16,0.21-0.31,0.21v2.38l0.24,0.24v0.54l0.3,0.24v1.37
		c-0.16,0.08-0.29,0.24-0.39,0.48c-0.1,0.24-0.25,0.44-0.45,0.6v0.54l-0.24,0.24c0,0.2,0.02,0.3,0.06,0.3
		c0.04,0,0.07-0.01,0.09-0.03c0.02-0.02,0.05-0.03,0.09-0.03v1.67c0.11,0,0.2,0.08,0.26,0.24c0.06,0.16,0.1,0.32,0.14,0.48h-11.9
		l-6.79-6.79l-0.18-3.04l1.31-7.56l1.43-8.51l1.25-7.26l6.79-5.24l2.8-2.08l2.02-0.06h24.72l5.71,5.71l1.43,1.55l0.06,0.06
		l-1.07,6.31l-1.31,7.68l-1.07,6.31l-0.83,4.94l-4.05,3.81l-5.06,4.11l-2.26,0.06h-12.88v-2.38l1.04-1.79
		c0-0.04-0.01-0.07-0.03-0.09c-0.02-0.02-0.03-0.05-0.03-0.09c0-0.12,0.06-0.22,0.18-0.3c0.12-0.08,0.22-0.18,0.3-0.3v-0.36
		c0.28,0,0.54,0.14,0.77,0.42c0.24,0.28,0.52,0.42,0.83,0.42c0.2,0.16,0.49,0.35,0.86,0.57c0.38,0.22,0.68,0.39,0.92,0.51h0.54
		c-0.08-0.12-0.26-0.3-0.54-0.54c-0.28-0.24-0.58-0.48-0.89-0.71c-0.32-0.24-0.65-0.45-1.01-0.62c-0.36-0.18-0.65-0.27-0.89-0.27
		l-0.24-0.3h-0.54c-0.08-0.2-0.27-0.39-0.56-0.57c-0.29-0.18-0.44-0.51-0.44-0.98v-0.65c0-0.08,0.02-0.12,0.06-0.12
		c0.08,0,0.13-0.04,0.17-0.12c0.04-0.08,0.11-0.12,0.23-0.12v-1.43l2.5,0.48h0.18l0.71,0.12H178.28z M163.16,420.6v0.36l0.24-0.36
		H163.16z M176.73,429.65h0.3c0-0.08-0.06-0.11-0.18-0.09c-0.12,0.02-0.22-0.01-0.3-0.09L176.73,429.65z M194.23,397.39v-0.3h-0.24
		l-0.3,0.3H194.23z"/>
	<path class="st3" d="M218.1,411.26l-0.65,2.02l-0.65,4.11h-0.24c-0.12,0-0.2,0.06-0.24,0.18h-0.77l-1.01-0.77
		c-0.6-0.32-1.02-0.57-1.28-0.74c-0.26-0.18-0.46-0.38-0.6-0.59c-0.14-0.22-0.26-0.47-0.36-0.74c-0.1-0.28-0.27-0.69-0.51-1.25
		c-0.08-0.2-0.2-0.32-0.36-0.36v-0.6c-0.08-0.04-0.27-0.33-0.57-0.86c-0.3-0.54-0.72-0.94-1.28-1.22c-0.08-0.2-0.28-0.37-0.6-0.51
		c-0.32-0.14-0.56-0.25-0.71-0.33l-0.18-0.3l-0.54-0.18c-0.24-0.32-0.46-0.51-0.65-0.59c-0.2-0.08-0.42-0.24-0.65-0.48l-0.77-0.77
		v-0.3h-0.24c0,0.08,0.08,0.22,0.24,0.42c0.16,0.2,0.28,0.32,0.36,0.36c0.08,0.44,0.22,0.89,0.42,1.37c0.2,0.48,0.54,0.83,1.01,1.07
		c0.12,0,0.25,0.04,0.39,0.12c0.14,0.08,0.21,0.2,0.21,0.36c0.44,0.28,0.95,0.58,1.55,0.89c0.6,0.32,1.01,0.71,1.25,1.19
		c0.08,0.16,0.14,0.41,0.18,0.74c0.04,0.34,0.16,0.55,0.36,0.62v0.24c0,0.28,0.04,0.52,0.12,0.71c0.08,0.2,0.12,0.4,0.12,0.6
		c0,0.44-0.01,0.76-0.03,0.98c-0.02,0.22-0.03,0.37-0.03,0.45v0.18c-0.16,0-0.38,0.18-0.65,0.54c-0.28,0.36-0.56,0.54-0.83,0.54
		l-0.71,0.77l-0.6,0.3l-0.36,0.48l0.18-0.06l0.18-0.18l0.42-0.18c0.12-0.04,0.2-0.09,0.24-0.15c0.04-0.06,0.1-0.13,0.18-0.21
		c0.16-0.12,0.38-0.23,0.65-0.33c0.28-0.1,0.48-0.25,0.6-0.45h0.54v-0.24c0.12,0,0.24-0.01,0.36-0.03c0.12-0.02,0.24-0.03,0.36-0.03
		c0.79,0,1.43,0.16,1.9,0.48s1.05,0.69,1.73,1.13v0.59l0.24,0.18v1.13l0.24,0.24l-0.12,0.77c-0.08,0.2-0.2,0.3-0.36,0.3v1.96
		l-0.36,2.14l-1.01,5.77l-5.83,0.06h-11.73l0.06-0.83l1.85-10.77l1.31-7.8l0.3-1.43l1.61-9.76l1.49-8.69l0.24-1.31h16.43l1.67,4.34
		l1.49,4.52v0.83v3.69c0,0.12,0.08,0.31,0.24,0.57c0.16,0.26,0.35,0.53,0.57,0.8c0.22,0.28,0.44,0.54,0.65,0.77
		c0.22,0.24,0.41,0.42,0.57,0.54v0.54l0.24,0.3h-0.24l-0.3,0.18c-0.2,0.2-0.4,0.45-0.6,0.74c-0.2,0.3-0.52,0.51-0.95,0.62l-0.18,0.3
		c-0.4,0.12-0.71,0.29-0.95,0.51c-0.24,0.22-0.46,0.45-0.65,0.68c-0.2,0.24-0.4,0.49-0.6,0.74c-0.2,0.26-0.42,0.49-0.65,0.68
		c0,0.44-0.01,0.68-0.03,0.74c-0.02,0.06-0.05,0.09-0.09,0.09c-0.2,0-0.42,0.12-0.65,0.36l-0.89-2.14L218.1,411.26z M207.86,419.89
		v0.36l0.24-0.36H207.86z M248.39,392.21l-0.71,4.11l-0.42,2.44l-1.07,6.49l-1.73,10.36l-2.02,11.9l-0.48,2.98l-0.36,1.96
		l-4.82,0.36h-12.74l0.24-1.43l1.96-11.07l0.54-2.98v-0.06c0.2-0.08,0.38-0.16,0.54-0.24c0.16-0.08,0.24-0.16,0.24-0.24
		c-0.2,0-0.36,0.06-0.48,0.18h-0.24l0.89-5.3l-1.43,1.55l-2.5,3.81c-0.48-0.04-0.88-0.1-1.22-0.18c-0.34-0.08-0.55-0.2-0.62-0.36
		h-0.54c-0.08-0.24-0.31-0.38-0.68-0.42c-0.38-0.04-0.57-0.18-0.57-0.42c0-0.08,0.08-0.26,0.24-0.54c0.16-0.28,0.34-0.57,0.54-0.89
		c0.2-0.32,0.4-0.61,0.6-0.89c0.2-0.28,0.34-0.48,0.42-0.6l0.54-0.24l0.24-0.54c0.24-0.08,0.49-0.23,0.74-0.45
		c0.26-0.22,0.51-0.45,0.74-0.68s0.48-0.45,0.71-0.62s0.48-0.27,0.71-0.27c0.08,0,0.16-0.04,0.24-0.12
		c0.08-0.08,0.14-0.16,0.18-0.24h0.77c0.28,0.36,0.68,0.81,1.22,1.37s1.08,1.12,1.64,1.7c0.56,0.58,1.05,1.11,1.49,1.61
		c0.44,0.5,0.71,0.88,0.83,1.16l0.54,0.24c0.04,0.16,0.15,0.33,0.33,0.51s0.37,0.35,0.57,0.51c0.2,0.16,0.39,0.3,0.57,0.42
		c0.18,0.12,0.27,0.2,0.27,0.24h2.62l-0.54-0.36h-0.77l-0.24-0.18h-0.54l-0.24-0.3c-0.12,0-0.22-0.02-0.3-0.06
		c-0.08,0-0.14-0.02-0.18-0.06c0-0.08-0.08-0.14-0.24-0.18c-0.16-0.04-0.28-0.1-0.36-0.18c-0.04-0.08-0.13-0.22-0.27-0.42
		c-0.14-0.2-0.29-0.4-0.45-0.6c-0.16-0.2-0.3-0.39-0.42-0.57c-0.12-0.18-0.18-0.29-0.18-0.33c-0.12-0.2-0.26-0.37-0.42-0.51
		c-0.16-0.14-0.34-0.31-0.54-0.51c-0.44-0.4-0.76-0.88-0.98-1.46c-0.22-0.58-0.59-0.98-1.1-1.22v-0.54h1.01l0.3-0.3h2.26v-0.3h-0.71
		c-0.6,0-1.2-0.03-1.82-0.09c-0.62-0.06-1.22-0.09-1.82-0.09c-0.08-0.08-0.19-0.2-0.33-0.36c-0.14-0.16-0.31-0.24-0.51-0.24v-0.77
		c0,0.04,0.1,0,0.3-0.12l0.24-0.12c0.44-0.44,0.85-0.89,1.25-1.37c0.4-0.48,0.67-0.99,0.83-1.55c0.16-0.04,0.42-0.24,0.77-0.6
		c0.36-0.36,0.72-0.76,1.1-1.22c0.38-0.46,0.73-0.89,1.07-1.31c0.34-0.42,0.54-0.7,0.62-0.86l0.54-0.24c0.04-0.2,0.22-0.47,0.54-0.8
		c0.32-0.34,0.63-0.67,0.95-1.01c0.32-0.34,0.61-0.63,0.89-0.89c0.28-0.26,0.42-0.43,0.42-0.51h0.6c0.04-0.08,0.13-0.17,0.27-0.27
		c0.14-0.1,0.27-0.17,0.39-0.21h-0.65c-0.08,0.16-0.22,0.24-0.42,0.24c-0.2,0-0.32,0.08-0.36,0.24h-0.54
		c-0.32,0.16-0.7,0.47-1.16,0.92c-0.46,0.46-0.92,0.94-1.4,1.46c-0.48,0.52-0.93,1.02-1.37,1.52c-0.44,0.5-0.77,0.88-1.01,1.16
		c-0.08,0-0.17,0.01-0.27,0.03c-0.1,0.02-0.19,0.03-0.27,0.03c-0.12,0.04-0.24,0.06-0.36,0.06c0,0.12-0.12,0.18-0.36,0.18
		l-0.06,0.83l-2.02,2.86l-0.54,0.18c-0.12,0.16-0.28,0.39-0.48,0.68c-0.2,0.3-0.4,0.45-0.6,0.45c-0.12,0-0.22,0.04-0.3,0.12
		l-0.12,0.12c-0.2,0-0.3-0.02-0.3-0.06c0-0.04,0.01-0.07,0.03-0.09c0.02-0.02,0.03-0.05,0.03-0.09h-0.54c0-0.04-0.07-0.2-0.21-0.48
		c-0.14-0.28-0.31-0.58-0.51-0.92c-0.2-0.34-0.39-0.65-0.57-0.95c-0.18-0.3-0.27-0.49-0.27-0.57c-0.2-0.79-0.3-1.57-0.3-2.32
		l0.42,1.25l6.13-8.57l0.95-1.43l9.11-1.31H248.39z M220.42,416.97h0.54l0.48,0.36c0.08,0,0.14-0.01,0.18-0.03
		c0.04-0.02,0.1-0.03,0.18-0.03c0.24,0,0.5,0.04,0.77,0.12c0.28,0.08,0.56,0.16,0.83,0.24l-1.61,2.44L220.42,416.97z M238.93,396.67
		v-0.3h-0.24l-0.3,0.3H238.93z"/>
	<path class="st3" d="M263.22,425.42l-0.54,3.21l-0.06,0.12l-0.3,0.36l-0.18,0.36c0.12,0,0.18-0.04,0.18-0.12l0.24-0.18l-0.18,1.31
		l-7.68,2.32h-9.64l0.06-3.81l4.58-2.44v0.48c0.08,0,0.15-0.09,0.21-0.27c0.06-0.18,0.13-0.33,0.21-0.45l1.61-0.89H263.22z
		 M246.13,422.57l1.25-7.26l1.85-11.01l1.84-10.54l0.12-0.71l5-0.83h11.37l1.01,1.31l-1.31,7.86l-0.71,4.17
		c-0.16-0.08-0.32-0.12-0.48-0.12l-0.59-0.36c-0.16,0-0.28-0.08-0.36-0.24h-0.83c-0.12,0.04-0.28,0.15-0.48,0.33
		c-0.2,0.18-0.42,0.36-0.65,0.54c-0.24,0.18-0.46,0.35-0.66,0.51c-0.2,0.16-0.34,0.24-0.42,0.24c-0.24,0-0.46-0.18-0.65-0.54
		c-0.12-0.16-0.22-0.36-0.3-0.6c-0.24-0.36-0.49-0.64-0.74-0.86c-0.26-0.22-0.52-0.4-0.77-0.54c-0.26-0.14-0.51-0.27-0.74-0.39
		s-0.48-0.3-0.71-0.54v-0.24h-0.24l-0.3-0.36h-0.24c0,0.08,0.13,0.27,0.39,0.57c0.26,0.3,0.55,0.62,0.89,0.98
		c0.34,0.36,0.66,0.7,0.98,1.01s0.52,0.54,0.6,0.65l0.71,0.83c0,0.12,0.02,0.22,0.06,0.3c0,0.08,0.02,0.14,0.06,0.18
		c0.08,0,0.12,0.1,0.12,0.3l0.36,0.3v1.25l-0.36,0.3v0.3c0,0.32-0.06,0.68-0.18,1.1c-0.12,0.42-0.32,0.67-0.59,0.74l-0.48,1.37
		h-0.77l-0.24,0.18l-0.95-0.06c0-0.08-0.05-0.12-0.15-0.12c-0.1,0-0.17,0-0.21,0v-0.59l0.3-0.24v-0.54l0.24-0.3v-0.77l0.24-0.24
		v-1.31c-0.08,0.44-0.27,0.88-0.57,1.34c-0.3,0.46-0.45,0.74-0.45,0.86c0,0.2-0.1,0.34-0.3,0.42v0.54h-0.77v-0.3
		c-0.04,0.04-0.1,0.06-0.18,0.06c-0.28,0-0.55-0.17-0.8-0.51c-0.26-0.34-0.54-0.51-0.86-0.51c-0.12,0-0.23-0.17-0.33-0.51
		c-0.1-0.34-0.21-0.54-0.33-0.62v-0.6h-1.07v-0.24c-0.12,0-0.22-0.02-0.3-0.06c-0.08,0-0.14-0.02-0.18-0.06
		c0-0.08-0.07-0.17-0.21-0.27c-0.14-0.1-0.25-0.15-0.33-0.15h-0.3c0,0.2,0.18,0.46,0.54,0.77c0.36,0.32,0.62,0.52,0.77,0.6
		c0.12,0.08,0.27,0.2,0.45,0.36c0.18,0.16,0.29,0.22,0.33,0.18v0.54c0.51,0.2,0.92,0.55,1.22,1.04s0.68,0.86,1.16,1.1h-2.92v-0.36
		h-0.77c-0.08-0.16-0.22-0.27-0.42-0.33c-0.2-0.06-0.38-0.11-0.54-0.15c-0.2,0.08-0.43,0.14-0.68,0.18
		c-0.26,0.04-0.55,0.06-0.86,0.06v0.24h0.24c0.12,0,0.3,0.01,0.54,0.03c0.24,0.02,0.48,0.06,0.71,0.12
		c0.24,0.06,0.46,0.14,0.65,0.24c0.2,0.1,0.32,0.25,0.36,0.45h0.54l0.24,0.3h1.61l0.24,0.18h2.02v0.36h0.54v0.24
		c-0.08,0.08-0.17,0.16-0.27,0.24c-0.1,0.08-0.19,0.18-0.27,0.3l-2.02,2.08h-0.77c-0.08-0.12-0.19-0.23-0.33-0.33
		c-0.14-0.1-0.21-0.25-0.21-0.45c-0.08-0.04-0.24-0.15-0.48-0.33c-0.24-0.18-0.4-0.25-0.48-0.21c-0.08-0.08-0.2-0.19-0.36-0.33
		c-0.16-0.14-0.33-0.29-0.51-0.45c-0.18-0.16-0.34-0.29-0.48-0.39s-0.23-0.15-0.27-0.15l-0.3,0.18h-0.48l0.3,0.36h0.48
		c0.16,0.08,0.4,0.27,0.71,0.57c0.32,0.3,0.63,0.62,0.95,0.98c0.32,0.36,0.59,0.71,0.83,1.07c0.24,0.36,0.36,0.63,0.36,0.83v2.14
		l-0.3,0.48v1.07h-0.24v0.59c-0.12,0-0.18,0.08-0.18,0.24c0,0.04-0.01,0.06-0.03,0.06s-0.03,0.02-0.03,0.06
		c-0.04,0.04-0.06,0.08-0.06,0.12c-0.08,0.12-0.27,0.21-0.57,0.27c-0.3,0.06-0.53,0.13-0.68,0.21c-0.08,0.08-0.15,0.13-0.21,0.15
		c-0.06,0.02-0.13,0.05-0.21,0.09h-5.36L246.13,422.57z M253.1,423.58l0.42-0.3c0-0.12,0.07-0.21,0.21-0.27s0.25-0.11,0.33-0.15
		v-0.83l0.24-0.24v-0.77l0.3-0.3v-1.07l0.24-0.3v-0.24c0-0.36,0.06-0.69,0.18-1.01c0.08-0.08,0.32-0.29,0.71-0.62
		c0.4-0.34,0.81-0.71,1.25-1.13c0.44-0.42,0.85-0.82,1.25-1.22c0.4-0.4,0.63-0.67,0.71-0.83h0.71v0.36c0.2,0.28,0.5,0.58,0.89,0.89
		c0.4,0.32,0.73,0.62,1.01,0.89l1.31,1.49c0.08,0.08,0.14,0.17,0.18,0.27c0.04,0.1,0.12,0.15,0.24,0.15v0.54
		c-0.16,0.08-0.24,0.24-0.24,0.48c-0.08,0.16-0.26,0.43-0.54,0.8c-0.28,0.38-0.58,0.77-0.89,1.19c-0.32,0.42-0.64,0.8-0.95,1.16
		c-0.32,0.36-0.56,0.58-0.71,0.66c-0.08,0.04-0.21,0.1-0.39,0.18c-0.18,0.08-0.35,0.16-0.51,0.24H253.1z M263.45,423.58h-3.69
		c0.71-0.67,1.38-1.33,1.99-1.96c0.62-0.63,1.3-1.39,2.05-2.26c0.04,0.08,0.09,0.14,0.15,0.18c0.06,0.04,0.11,0.08,0.15,0.12
		l-0.42,2.62L263.45,423.58z M264.41,417.98c-0.4-0.32-0.6-0.63-0.6-0.95l-0.77-0.95c0-0.32-0.14-0.67-0.42-1.07
		c-0.28-0.4-0.5-0.69-0.65-0.89c-0.08-0.08-0.17-0.17-0.27-0.27c-0.1-0.1-0.15-0.27-0.15-0.51l-0.36-0.3h0.36
		c0-0.08-0.01-0.13-0.03-0.15c-0.02-0.02-0.03-0.07-0.03-0.15c0-0.36,0.08-0.74,0.24-1.16c0.16-0.42,0.24-0.8,0.24-1.16v-0.3
		l0.3-0.48v-0.6c0.12-0.16,0.31-0.38,0.57-0.65c0.26-0.28,0.52-0.57,0.77-0.86c0.26-0.3,0.53-0.56,0.8-0.77
		c0.28-0.22,0.51-0.33,0.71-0.33c0.2,0,0.41,0.01,0.62,0.03c0.22,0.02,0.43,0.05,0.62,0.09l-1.67,9.76L264.41,417.98z"/>
	<path class="st3" d="M283.93,425.42l-0.54,3.21l-0.06,0.12l-0.3,0.36l-0.18,0.36c0.12,0,0.18-0.04,0.18-0.12l0.24-0.18l-0.18,1.31
		l-7.68,2.32h-9.64l0.06-3.81l4.58-2.44v0.48c0.08,0,0.15-0.09,0.21-0.27c0.06-0.18,0.13-0.33,0.21-0.45l1.61-0.89H283.93z
		 M266.85,422.57l1.25-7.26l1.85-11.01l1.84-10.54l0.12-0.71l5-0.83h11.37l1.01,1.31l-1.31,7.86l-0.71,4.17
		c-0.16-0.08-0.32-0.12-0.48-0.12l-0.59-0.36c-0.16,0-0.28-0.08-0.36-0.24H285c-0.12,0.04-0.28,0.15-0.48,0.33
		c-0.2,0.18-0.42,0.36-0.65,0.54c-0.24,0.18-0.46,0.35-0.66,0.51c-0.2,0.16-0.34,0.24-0.42,0.24c-0.24,0-0.46-0.18-0.65-0.54
		c-0.12-0.16-0.22-0.36-0.3-0.6c-0.24-0.36-0.49-0.64-0.74-0.86c-0.26-0.22-0.52-0.4-0.77-0.54c-0.26-0.14-0.51-0.27-0.74-0.39
		s-0.48-0.3-0.71-0.54v-0.24h-0.24l-0.3-0.36h-0.24c0,0.08,0.13,0.27,0.39,0.57c0.26,0.3,0.56,0.62,0.89,0.98
		c0.34,0.36,0.66,0.7,0.98,1.01s0.52,0.54,0.6,0.65l0.71,0.83c0,0.12,0.02,0.22,0.06,0.3c0,0.08,0.02,0.14,0.06,0.18
		c0.08,0,0.12,0.1,0.12,0.3l0.36,0.3v1.25l-0.36,0.3v0.3c0,0.32-0.06,0.68-0.18,1.1c-0.12,0.42-0.32,0.67-0.59,0.74l-0.48,1.37
		h-0.77l-0.24,0.18l-0.95-0.06c0-0.08-0.05-0.12-0.15-0.12c-0.1,0-0.17,0-0.21,0v-0.59l0.3-0.24v-0.54l0.24-0.3v-0.77l0.24-0.24
		v-1.31c-0.08,0.44-0.27,0.88-0.57,1.34c-0.3,0.46-0.45,0.74-0.45,0.86c0,0.2-0.1,0.34-0.3,0.42v0.54h-0.77v-0.3
		c-0.04,0.04-0.1,0.06-0.18,0.06c-0.28,0-0.55-0.17-0.8-0.51c-0.26-0.34-0.55-0.51-0.86-0.51c-0.12,0-0.23-0.17-0.33-0.51
		c-0.1-0.34-0.21-0.54-0.33-0.62v-0.6h-1.07v-0.24c-0.12,0-0.22-0.02-0.3-0.06c-0.08,0-0.14-0.02-0.18-0.06
		c0-0.08-0.07-0.17-0.21-0.27c-0.14-0.1-0.25-0.15-0.33-0.15h-0.3c0,0.2,0.18,0.46,0.54,0.77c0.36,0.32,0.61,0.52,0.77,0.6
		c0.12,0.08,0.27,0.2,0.45,0.36c0.18,0.16,0.29,0.22,0.33,0.18v0.54c0.52,0.2,0.92,0.55,1.22,1.04s0.68,0.86,1.16,1.1h-2.92v-0.36
		h-0.77c-0.08-0.16-0.22-0.27-0.42-0.33c-0.2-0.06-0.38-0.11-0.54-0.15c-0.2,0.08-0.43,0.14-0.68,0.18
		c-0.26,0.04-0.55,0.06-0.86,0.06v0.24h0.24c0.12,0,0.3,0.01,0.54,0.03c0.24,0.02,0.48,0.06,0.71,0.12s0.46,0.14,0.66,0.24
		c0.2,0.1,0.32,0.25,0.36,0.45h0.54l0.24,0.3h1.61l0.24,0.18h2.02v0.36h0.54v0.24c-0.08,0.08-0.17,0.16-0.27,0.24
		c-0.1,0.08-0.19,0.18-0.27,0.3l-2.02,2.08h-0.77c-0.08-0.12-0.19-0.23-0.33-0.33c-0.14-0.1-0.21-0.25-0.21-0.45
		c-0.08-0.04-0.24-0.15-0.48-0.33c-0.24-0.18-0.4-0.25-0.48-0.21c-0.08-0.08-0.2-0.19-0.36-0.33c-0.16-0.14-0.33-0.29-0.51-0.45
		c-0.18-0.16-0.34-0.29-0.48-0.39c-0.14-0.1-0.23-0.15-0.27-0.15l-0.3,0.18h-0.48l0.3,0.36h0.48c0.16,0.08,0.4,0.27,0.71,0.57
		c0.32,0.3,0.63,0.62,0.95,0.98c0.32,0.36,0.6,0.71,0.83,1.07c0.24,0.36,0.36,0.63,0.36,0.83v2.14l-0.3,0.48v1.07h-0.24v0.59
		c-0.12,0-0.18,0.08-0.18,0.24c0,0.04-0.01,0.06-0.03,0.06c-0.02,0-0.03,0.02-0.03,0.06c-0.04,0.04-0.06,0.08-0.06,0.12
		c-0.08,0.12-0.27,0.21-0.57,0.27s-0.53,0.13-0.68,0.21c-0.08,0.08-0.15,0.13-0.21,0.15c-0.06,0.02-0.13,0.05-0.21,0.09h-5.36
		L266.85,422.57z M273.81,423.58l0.42-0.3c0-0.12,0.07-0.21,0.21-0.27c0.14-0.06,0.25-0.11,0.33-0.15v-0.83l0.24-0.24v-0.77l0.3-0.3
		v-1.07l0.24-0.3v-0.24c0-0.36,0.06-0.69,0.18-1.01c0.08-0.08,0.32-0.29,0.71-0.62c0.4-0.34,0.81-0.71,1.25-1.13
		c0.44-0.42,0.85-0.82,1.25-1.22c0.4-0.4,0.63-0.67,0.71-0.83h0.71v0.36c0.2,0.28,0.5,0.58,0.89,0.89c0.4,0.32,0.73,0.62,1.01,0.89
		l1.31,1.49c0.08,0.08,0.14,0.17,0.18,0.27c0.04,0.1,0.12,0.15,0.24,0.15v0.54c-0.16,0.08-0.24,0.24-0.24,0.48
		c-0.08,0.16-0.26,0.43-0.54,0.8c-0.28,0.38-0.58,0.77-0.89,1.19c-0.32,0.42-0.64,0.8-0.95,1.16c-0.32,0.36-0.56,0.58-0.71,0.66
		c-0.08,0.04-0.21,0.1-0.39,0.18c-0.18,0.08-0.35,0.16-0.51,0.24H273.81z M284.17,423.58h-3.69c0.71-0.67,1.38-1.33,1.99-1.96
		c0.62-0.63,1.3-1.39,2.05-2.26c0.04,0.08,0.09,0.14,0.15,0.18c0.06,0.04,0.11,0.08,0.15,0.12l-0.42,2.62L284.17,423.58z
		 M285.12,417.98c-0.4-0.32-0.6-0.63-0.6-0.95l-0.77-0.95c0-0.32-0.14-0.67-0.42-1.07c-0.28-0.4-0.5-0.69-0.65-0.89
		c-0.08-0.08-0.17-0.17-0.27-0.27c-0.1-0.1-0.15-0.27-0.15-0.51l-0.36-0.3h0.36c0-0.08-0.01-0.13-0.03-0.15
		c-0.02-0.02-0.03-0.07-0.03-0.15c0-0.36,0.08-0.74,0.24-1.16c0.16-0.42,0.24-0.8,0.24-1.16v-0.3l0.3-0.48v-0.6
		c0.12-0.16,0.31-0.38,0.57-0.65c0.26-0.28,0.52-0.57,0.77-0.86c0.26-0.3,0.53-0.56,0.8-0.77c0.28-0.22,0.51-0.33,0.71-0.33
		c0.2,0,0.41,0.01,0.62,0.03c0.22,0.02,0.43,0.05,0.62,0.09l-1.67,9.76L285.12,417.98z"/>
	<path class="st3" d="M304.64,425.42l-0.54,3.21l-0.06,0.12l-0.3,0.36l-0.18,0.36c0.12,0,0.18-0.04,0.18-0.12l0.24-0.18l-0.18,1.31
		l-7.68,2.32h-9.64l0.06-3.81l4.58-2.44v0.48c0.08,0,0.15-0.09,0.21-0.27c0.06-0.18,0.13-0.33,0.21-0.45l1.61-0.89H304.64z
		 M287.56,422.57l1.25-7.26l1.85-11.01l1.84-10.54l0.12-0.71l5-0.83h11.37l1.01,1.31l-1.31,7.86l-0.71,4.17
		c-0.16-0.08-0.32-0.12-0.48-0.12l-0.59-0.36c-0.16,0-0.28-0.08-0.36-0.24h-0.83c-0.12,0.04-0.28,0.15-0.48,0.33
		c-0.2,0.18-0.42,0.36-0.65,0.54c-0.24,0.18-0.46,0.35-0.66,0.51c-0.2,0.16-0.34,0.24-0.42,0.24c-0.24,0-0.46-0.18-0.65-0.54
		c-0.12-0.16-0.22-0.36-0.3-0.6c-0.24-0.36-0.49-0.64-0.74-0.86c-0.26-0.22-0.52-0.4-0.77-0.54c-0.26-0.14-0.51-0.27-0.74-0.39
		s-0.48-0.3-0.71-0.54v-0.24h-0.24l-0.3-0.36h-0.24c0,0.08,0.13,0.27,0.39,0.57c0.26,0.3,0.56,0.62,0.89,0.98
		c0.34,0.36,0.66,0.7,0.98,1.01s0.52,0.54,0.6,0.65l0.71,0.83c0,0.12,0.02,0.22,0.06,0.3c0,0.08,0.02,0.14,0.06,0.18
		c0.08,0,0.12,0.1,0.12,0.3l0.36,0.3v1.25l-0.36,0.3v0.3c0,0.32-0.06,0.68-0.18,1.1c-0.12,0.42-0.32,0.67-0.59,0.74l-0.48,1.37
		h-0.77l-0.24,0.18l-0.95-0.06c0-0.08-0.05-0.12-0.15-0.12c-0.1,0-0.17,0-0.21,0v-0.59l0.3-0.24v-0.54l0.24-0.3v-0.77l0.24-0.24
		v-1.31c-0.08,0.44-0.27,0.88-0.57,1.34c-0.3,0.46-0.45,0.74-0.45,0.86c0,0.2-0.1,0.34-0.3,0.42v0.54h-0.77v-0.3
		c-0.04,0.04-0.1,0.06-0.18,0.06c-0.28,0-0.55-0.17-0.8-0.51c-0.26-0.34-0.55-0.51-0.86-0.51c-0.12,0-0.23-0.17-0.33-0.51
		c-0.1-0.34-0.21-0.54-0.33-0.62v-0.6h-1.07v-0.24c-0.12,0-0.22-0.02-0.3-0.06c-0.08,0-0.14-0.02-0.18-0.06
		c0-0.08-0.07-0.17-0.21-0.27c-0.14-0.1-0.25-0.15-0.33-0.15h-0.3c0,0.2,0.18,0.46,0.54,0.77c0.36,0.32,0.61,0.52,0.77,0.6
		c0.12,0.08,0.27,0.2,0.45,0.36c0.18,0.16,0.29,0.22,0.33,0.18v0.54c0.52,0.2,0.92,0.55,1.22,1.04s0.68,0.86,1.16,1.1h-2.92v-0.36
		h-0.77c-0.08-0.16-0.22-0.27-0.42-0.33c-0.2-0.06-0.38-0.11-0.54-0.15c-0.2,0.08-0.43,0.14-0.68,0.18
		c-0.26,0.04-0.55,0.06-0.86,0.06v0.24h0.24c0.12,0,0.3,0.01,0.54,0.03c0.24,0.02,0.48,0.06,0.71,0.12s0.46,0.14,0.66,0.24
		c0.2,0.1,0.32,0.25,0.36,0.45h0.54l0.24,0.3h1.61l0.24,0.18h2.02v0.36h0.54v0.24c-0.08,0.08-0.17,0.16-0.27,0.24
		c-0.1,0.08-0.19,0.18-0.27,0.3l-2.02,2.08h-0.77c-0.08-0.12-0.19-0.23-0.33-0.33c-0.14-0.1-0.21-0.25-0.21-0.45
		c-0.08-0.04-0.24-0.15-0.48-0.33c-0.24-0.18-0.4-0.25-0.48-0.21c-0.08-0.08-0.2-0.19-0.36-0.33c-0.16-0.14-0.33-0.29-0.51-0.45
		c-0.18-0.16-0.34-0.29-0.48-0.39c-0.14-0.1-0.23-0.15-0.27-0.15l-0.3,0.18h-0.48l0.3,0.36h0.48c0.16,0.08,0.4,0.27,0.71,0.57
		c0.32,0.3,0.63,0.62,0.95,0.98c0.32,0.36,0.6,0.71,0.83,1.07c0.24,0.36,0.36,0.63,0.36,0.83v2.14l-0.3,0.48v1.07h-0.24v0.59
		c-0.12,0-0.18,0.08-0.18,0.24c0,0.04-0.01,0.06-0.03,0.06c-0.02,0-0.03,0.02-0.03,0.06c-0.04,0.04-0.06,0.08-0.06,0.12
		c-0.08,0.12-0.27,0.21-0.57,0.27s-0.53,0.13-0.68,0.21c-0.08,0.08-0.15,0.13-0.21,0.15c-0.06,0.02-0.13,0.05-0.21,0.09h-5.36
		L287.56,422.57z M294.52,423.58l0.42-0.3c0-0.12,0.07-0.21,0.21-0.27c0.14-0.06,0.25-0.11,0.33-0.15v-0.83l0.24-0.24v-0.77l0.3-0.3
		v-1.07l0.24-0.3v-0.24c0-0.36,0.06-0.69,0.18-1.01c0.08-0.08,0.32-0.29,0.71-0.62c0.4-0.34,0.81-0.71,1.25-1.13
		c0.44-0.42,0.85-0.82,1.25-1.22c0.4-0.4,0.63-0.67,0.71-0.83h0.71v0.36c0.2,0.28,0.5,0.58,0.89,0.89c0.4,0.32,0.73,0.62,1.01,0.89
		l1.31,1.49c0.08,0.08,0.14,0.17,0.18,0.27c0.04,0.1,0.12,0.15,0.24,0.15v0.54c-0.16,0.08-0.24,0.24-0.24,0.48
		c-0.08,0.16-0.26,0.43-0.54,0.8c-0.28,0.38-0.58,0.77-0.89,1.19c-0.32,0.42-0.64,0.8-0.95,1.16c-0.32,0.36-0.56,0.58-0.71,0.66
		c-0.08,0.04-0.21,0.1-0.39,0.18c-0.18,0.08-0.35,0.16-0.51,0.24H294.52z M304.88,423.58h-3.69c0.71-0.67,1.38-1.33,1.99-1.96
		c0.62-0.63,1.3-1.39,2.05-2.26c0.04,0.08,0.09,0.14,0.15,0.18c0.06,0.04,0.11,0.08,0.15,0.12l-0.42,2.62L304.88,423.58z
		 M305.83,417.98c-0.4-0.32-0.6-0.63-0.6-0.95l-0.77-0.95c0-0.32-0.14-0.67-0.42-1.07c-0.28-0.4-0.5-0.69-0.65-0.89
		c-0.08-0.08-0.17-0.17-0.27-0.27c-0.1-0.1-0.15-0.27-0.15-0.51l-0.36-0.3h0.36c0-0.08-0.01-0.13-0.03-0.15
		c-0.02-0.02-0.03-0.07-0.03-0.15c0-0.36,0.08-0.74,0.24-1.16c0.16-0.42,0.24-0.8,0.24-1.16v-0.3l0.3-0.48v-0.6
		c0.12-0.16,0.31-0.38,0.57-0.65c0.26-0.28,0.52-0.57,0.77-0.86c0.26-0.3,0.53-0.56,0.8-0.77c0.28-0.22,0.51-0.33,0.71-0.33
		c0.2,0,0.41,0.01,0.62,0.03c0.22,0.02,0.43,0.05,0.62,0.09l-1.67,9.76L305.83,417.98z"/>
</g>
</svg>
