<?xml version="1.0" encoding="utf-8"?>
<!-- Generator: Adobe Illustrator 24.0.3, SVG Export Plug-In . SVG Version: 6.00 Build 0)  -->
<svg version="1.1" id="Layer_1" xmlns="http://www.w3.org/2000/svg" xmlns:xlink="http://www.w3.org/1999/xlink" x="0px" y="0px"
	 viewBox="0 0 357 500" style="enable-background:new 0 0 357 500;" xml:space="preserve">
<style type="text/css">
	.st0{fill:#5D6478;}
	.st1{fill:#353944;}
	.st2{fill:#00B92B;}
</style>
<g>
	<path class="st0" d="M23.13,490C15.89,490,10,484.11,10,476.87V23.13C10,15.89,15.89,10,23.13,10h310.87
		c7.24,0,13.13,5.89,13.13,13.13v453.73c0,7.24-5.89,13.13-13.13,13.13H23.13z"/>
	<path class="st1" d="M334.01,20c1.67,0,3.13,1.46,3.13,3.13v453.73c0,1.67-1.46,3.13-3.13,3.13H23.13c-1.67,0-3.13-1.46-3.13-3.13
		V23.13c0-1.67,1.46-3.13,3.13-3.13H334.01 M334.01,0H23.13C10.41,0,0,10.41,0,23.13v453.73C0,489.59,10.41,500,23.13,500h310.87
		c12.72,0,23.13-10.41,23.13-23.13V23.13C357.14,10.41,346.73,0,334.01,0L334.01,0z"/>
</g>
<g>
	<path class="st2" d="M116.19,431.2l-0.3,1.54l-6.79,0.06H97.86l-0.12-1.07l0.89-5.11l2.08-12.24l0.12-0.77l0.06-0.06
		c0.32-0.32,0.73-0.59,1.25-0.83c0.52-0.24,0.95-0.52,1.31-0.83c0-0.12,0.07-0.21,0.21-0.27c0.14-0.06,0.25-0.11,0.33-0.15v-0.83
		l0.24-0.24v-0.77l0.3-0.3v-1.07l0.24-0.3v-0.24c0-0.36,0.06-0.69,0.18-1.01c0.08-0.08,0.32-0.29,0.71-0.62
		c0.4-0.34,0.81-0.71,1.25-1.13c0.44-0.42,0.85-0.82,1.25-1.22c0.4-0.4,0.63-0.67,0.71-0.83h0.71v0.36c0.2,0.28,0.5,0.58,0.89,0.89
		c0.4,0.32,0.73,0.62,1.01,0.89l1.31,1.49c0.08,0.08,0.14,0.17,0.18,0.27c0.04,0.1,0.12,0.15,0.24,0.15v0.54
		c-0.16,0.08-0.24,0.24-0.24,0.48c-0.08,0.16-0.26,0.43-0.54,0.8c-0.28,0.38-0.58,0.77-0.89,1.19c-0.32,0.42-0.64,0.8-0.95,1.16
		c-0.32,0.36-0.56,0.58-0.71,0.65c-0.16,0.08-0.39,0.19-0.68,0.33c-0.3,0.14-0.49,0.29-0.57,0.45l-0.77,0.18h1.25
		c0.91-0.79,1.71-1.54,2.38-2.23c0.67-0.69,1.43-1.54,2.26-2.53c0.08,0.08,0.17,0.16,0.27,0.24c0.1,0.08,0.15,0.14,0.15,0.18
		c0,0.08,0.04,0.17,0.12,0.27c0.08,0.1,0.16,0.17,0.24,0.21v0.48l0.54,0.54v0.54l0.18,0.24v0.54c0.16-0.04,0.25-0.22,0.27-0.54
		c0.02-0.32,0.03-0.63,0.03-0.95c0-0.16,0.02-0.3,0.06-0.42c0-0.08,0.02-0.18,0.06-0.3c0.08,0,0.14,0.05,0.18,0.15
		c0.04,0.1,0.1,0.17,0.18,0.21c0.2,0.12,0.5,0.22,0.89,0.3c0.4,0.08,0.71,0.16,0.95,0.24v0.65c0,0.75,0.08,1.43,0.24,2.02
		c-0.44,0.44-0.84,0.81-1.22,1.13c-0.38,0.32-0.84,0.65-1.4,1.01c-0.52,0.36-1.03,0.79-1.55,1.31c-0.16,0.16-0.31,0.29-0.45,0.39
		c-0.14,0.1-0.31,0.23-0.51,0.39c-0.16,0.16-0.3,0.36-0.42,0.59l-0.3,0.36l-0.18,0.36c0.12,0,0.18-0.04,0.18-0.12
		c0.16-0.12,0.28-0.18,0.36-0.18c0.12,0,0.26-0.12,0.42-0.36c0.08-0.08,0.2-0.21,0.36-0.38c0.16-0.18,0.34-0.27,0.54-0.27
		c0.6-0.24,1.09-0.59,1.49-1.07c0.4-0.47,0.95-0.81,1.67-1.01c0.12-0.28,0.3-0.46,0.54-0.56s0.46-0.25,0.65-0.45
		c0.08-0.08,0.14-0.11,0.18-0.09c0.04,0.02,0.08,0.01,0.12-0.03v-0.24c0.36,0,0.62,0.18,0.77,0.54l-0.18,0.47v0.3
		c0,0.32-0.04,0.7-0.12,1.13c-0.08,0.44-0.24,0.65-0.48,0.65l-0.18,0.83v0.83c0.12,0.12,0.26,0.31,0.42,0.56
		c0.16,0.26,0.34,0.53,0.54,0.8l-1.73,3.15L116.19,431.2z M101.37,410.63l1.01-5.98c0.36,0.4,0.67,0.79,0.95,1.17
		c0.28,0.38,0.42,0.67,0.42,0.87v2.15l-0.3,0.48v1.08h-0.24v0.6c-0.12,0-0.18,0.08-0.18,0.24c0,0.04-0.01,0.06-0.03,0.06
		c-0.02,0-0.03,0.02-0.03,0.06c-0.04,0.04-0.06,0.08-0.06,0.12c-0.08,0.12-0.27,0.21-0.57,0.27c-0.3,0.06-0.53,0.13-0.68,0.21
		c-0.12,0.08-0.23,0.15-0.33,0.21c-0.1,0.06-0.19,0.13-0.27,0.21L101.37,410.63z M102.86,401.85l0.06,0.06h1.61l0.24,0.18h2.02v0.36
		h0.54v0.24c-0.08,0.08-0.17,0.16-0.27,0.24c-0.1,0.08-0.19,0.18-0.27,0.3l-2.02,2.08h-0.77c-0.08-0.12-0.19-0.23-0.33-0.33
		c-0.14-0.1-0.21-0.25-0.21-0.45c-0.08-0.04-0.24-0.15-0.48-0.33c-0.24-0.18-0.4-0.25-0.48-0.21L102.86,401.85z M103.46,398.46V399
		c0.52,0.2,0.92,0.55,1.22,1.04c0.3,0.5,0.68,0.86,1.16,1.1h-2.86l0.42-2.68H103.46z M104.17,394.05l0.3-1.73l3.04-0.06h0.89
		l1.79,1.9l0.71,0.83c0,0.12,0.02,0.22,0.06,0.3c0,0.08,0.02,0.14,0.06,0.18c0.08,0,0.12,0.1,0.12,0.3l0.36,0.3v1.25l-0.36,0.3v0.3
		c0,0.32-0.06,0.68-0.18,1.1c-0.12,0.42-0.32,0.67-0.6,0.74l-0.48,1.37h-0.77l-0.24,0.18l-0.95-0.06c0-0.08-0.05-0.12-0.15-0.12
		c-0.1,0-0.17,0-0.21,0v-0.6l0.3-0.24v-0.54l0.24-0.3v-0.77l0.24-0.24v-1.31c-0.08,0.44-0.27,0.88-0.57,1.34
		c-0.3,0.46-0.45,0.74-0.45,0.86c0,0.2-0.1,0.34-0.3,0.42v0.54h-0.77v-0.3c-0.04,0.04-0.1,0.06-0.18,0.06
		c-0.28,0-0.55-0.17-0.8-0.51c-0.26-0.34-0.55-0.51-0.86-0.51c-0.12,0-0.23-0.17-0.33-0.51c-0.1-0.34-0.21-0.54-0.33-0.62v-0.59
		h-0.12L104.17,394.05z M107.32,412.72v0.29h0.24l0.3-0.29H107.32z M140.42,392.27l-0.95,5.77l-0.48,3.1l-5.71,0.3h-4.4
		c0.28-0.2,0.54-0.4,0.8-0.59c0.26-0.2,0.43-0.3,0.51-0.3l0.48-0.48c-0.2,0.2-0.5,0.37-0.89,0.51c-0.4,0.14-0.75,0.21-1.07,0.21
		c-0.12,0.08-0.26,0.16-0.42,0.24c-0.16,0.08-0.28,0.18-0.36,0.3h-0.54l-0.06,0.12h-6.01l-0.89,4.88l0.83,0.24
		c-0.48,0.44-0.99,0.81-1.55,1.13l-1.31,0.83c-0.08,0-0.14-0.02-0.18-0.06c-0.24-0.12-0.61-0.28-1.1-0.48
		c-0.5-0.2-0.99-0.43-1.49-0.68c-0.5-0.26-0.93-0.54-1.31-0.83c-0.38-0.3-0.57-0.58-0.57-0.86l-0.77-0.95
		c0-0.32-0.14-0.67-0.42-1.07c-0.28-0.4-0.5-0.69-0.65-0.89c-0.08-0.08-0.17-0.17-0.27-0.27c-0.1-0.1-0.15-0.27-0.15-0.51l-0.36-0.3
		h0.36c0-0.08-0.01-0.13-0.03-0.15c-0.02-0.02-0.03-0.07-0.03-0.15c0-0.36,0.08-0.74,0.24-1.16c0.16-0.42,0.24-0.8,0.24-1.16v-0.3
		l0.3-0.48v-0.6c0.12-0.16,0.31-0.38,0.57-0.65c0.26-0.28,0.52-0.57,0.77-0.86c0.26-0.3,0.53-0.55,0.8-0.77
		c0.28-0.22,0.52-0.33,0.71-0.33c0.56,0,1.12,0.08,1.7,0.24c0.58,0.16,1.12,0.34,1.64,0.54c0.08-0.04,0.29-0.15,0.62-0.33
		c0.34-0.18,0.68-0.38,1.04-0.6c0.36-0.22,0.7-0.45,1.04-0.68c0.34-0.24,0.55-0.42,0.62-0.54h-0.54l-0.24,0.36
		c-0.04,0-0.08-0.01-0.12-0.03c-0.04-0.02-0.08-0.03-0.12-0.03c-0.28,0-0.54,0.08-0.77,0.24c-0.24,0.16-0.5,0.24-0.77,0.24h-0.24
		l-0.36,0.36h-0.48l-0.24-0.36h-0.54l-0.24-0.24h-0.54c-0.12-0.12-0.3-0.18-0.54-0.18l-0.6-0.36c-0.16,0-0.28-0.08-0.36-0.24h-0.83
		c-0.12,0.04-0.28,0.15-0.48,0.33c-0.2,0.18-0.42,0.36-0.65,0.54c-0.24,0.18-0.46,0.35-0.65,0.51c-0.2,0.16-0.34,0.24-0.42,0.24
		c-0.24,0-0.46-0.18-0.65-0.54c-0.12-0.16-0.22-0.36-0.3-0.6c-0.32-0.48-0.65-0.81-0.98-1.01c-0.34-0.2-0.67-0.4-0.98-0.59H140.42z
		 M129.82,408.88h4.4l-0.06,2.31l-1.13,6.92h-12.86c-0.08-0.08-0.17-0.18-0.27-0.3c-0.1-0.12-0.17-0.22-0.21-0.3v-1.12l0.18-0.18
		v-0.59l0.3-0.18v-0.59h0.24v-1.83l-0.24-0.29c0-0.08,0.01-0.14,0.03-0.18c0.02-0.04,0.03-0.1,0.03-0.18c0-0.35-0.07-0.7-0.21-1.03
		c-0.14-0.33-0.21-0.7-0.21-1.09c0-0.08,0.01-0.14,0.03-0.18c0.02-0.04,0.03-0.1,0.03-0.18l-0.18-0.24v-0.53
		c0-0.04,0.02-0.06,0.06-0.06c0.08,0,0.22-0.11,0.42-0.33c0.2-0.22,0.36-0.36,0.48-0.44c0.16-0.12,0.44-0.29,0.83-0.51
		c0.4-0.22,0.63-0.41,0.71-0.57h1.31l0.6,0.18l0.12,0.12h0.3h0.18l1.79,0.48l0.71,0.18c0.08,0.08,0.15,0.15,0.21,0.21
		s0.13,0.13,0.21,0.21c0.04,0,0.08-0.01,0.12-0.03c0.04-0.02,0.08-0.03,0.12-0.03c0.2,0,0.4,0.05,0.6,0.15
		c0.2,0.1,0.34,0.23,0.42,0.39h0.54c-0.08-0.08-0.19-0.16-0.33-0.24c-0.14-0.08-0.31-0.16-0.51-0.24L129.82,408.88z M121.97,393.64
		l0.24-0.24h-0.48v0.24H121.97z"/>
	<path class="st2" d="M155.3,419.29c0.08-0.08,0.16-0.12,0.24-0.12c0.16,0,0.4,0.12,0.71,0.36l-0.24,1.55l-0.18,1.19h6.73l1.43-4.58
		l4.29-25l6.67-0.42h9.94l0.95,0.95l-5.48,32.2l-2.62,2.02l-0.24-0.3l0.24-0.48l0.48-0.48c0.36-0.44,0.57-0.87,0.65-1.31l-1.9,2.14
		l-0.6-0.54l-0.06-0.36l-0.36-0.36l0.06-0.42l-0.89-1.31l1.01-1.25h0.36l0.54-0.59c0.12,0.08,0.24,0.07,0.36-0.03
		c0.12-0.1,0.28-0.15,0.48-0.15c0.24-0.24,0.3-0.44,0.18-0.6l0.12-0.18c0.12-0.12,0.22-0.27,0.3-0.45c0.08-0.18,0.16-0.35,0.24-0.51
		l-0.83,0.95l-0.36,0.06l-0.54,0.6c-0.2-0.12-0.38-0.06-0.54,0.18c-0.28,0.08-0.48,0.18-0.6,0.3c-0.08,0.12-0.22,0.17-0.42,0.15
		c-0.2-0.02-0.4,0.03-0.6,0.15c-0.08,0-0.16-0.04-0.24-0.12l-0.18,0.18l-0.18-0.24l0.12-0.18l-0.36-0.48c0-0.32-0.08-0.71-0.24-1.19
		c-0.16-0.48-0.35-0.99-0.57-1.55c-0.22-0.55-0.42-1.14-0.6-1.76s-0.31-1.2-0.39-1.76l0.48-0.6l0.42,0.06l0.71-0.83h0.24l0.83-1.01
		l0.48,0.06c0.08-0.08,0.15-0.17,0.21-0.27s0.01-0.21-0.15-0.33l0.89-1.01l-2.14,1.67l-0.3-0.06l-0.54,0.59l-0.36,0.06l-0.3,0.36
		c-0.24,0.08-0.54,0.13-0.89,0.15c-0.36,0.02-0.72,0.03-1.1,0.03c-0.38,0-0.73-0.03-1.07-0.09c-0.34-0.06-0.59-0.17-0.74-0.33
		c0-0.04-0.05-0.07-0.15-0.09c-0.1-0.02-0.17,0.01-0.21,0.09c-0.04,0-0.06,0.02-0.06,0.06l-1.67-1.49l-0.06,0.36
		c0.12,0.16,0.23,0.31,0.33,0.45c0.1,0.14,0.23,0.27,0.39,0.39c0.36,0.32,0.76,0.58,1.22,0.77c0.46,0.2,0.88,0.46,1.28,0.77
		c0.2,0,0.43,0.03,0.68,0.09c0.26,0.06,0.47,0.07,0.62,0.03l0.36,0.36l-0.18,0.18l0.54,1.61c0.04,0.08,0.09,0.15,0.15,0.21
		s0.09,0.13,0.09,0.21c0,0.24,0.05,0.54,0.15,0.89c0.1,0.36,0.2,0.74,0.3,1.13c0.1,0.4,0.18,0.77,0.24,1.13
		c0.06,0.36,0.03,0.64-0.09,0.83l1.07,2.98l0.36,0.36l0.06,0.3l0.6,0.48l0.06,0.42l0.18,0.18c0.2,0.2,0.34,0.39,0.42,0.57
		c0.08,0.18,0.22,0.33,0.42,0.45l0.6,0.6l-3.1,2.38c-0.16-0.04-0.3-0.09-0.42-0.15c-0.12-0.06-0.22-0.11-0.3-0.15
		c0.16,0.16,0.36,0.3,0.6,0.42l-2.08,1.61l-3.33,0.36h-23.1l-6.85-7.08l0.36-4.11l1.73-10.3c0.16,0.12,0.32,0.21,0.48,0.27
		c0.16,0.06,0.32,0.13,0.48,0.21l1.01,1.01l0.12,0.12c-0.08,0.12-0.09,0.41-0.03,0.86c0.06,0.46,0.01,0.78-0.15,0.98l0.12,1.01
		l-0.18,0.65l0.12,0.6l0.12-0.18l-0.06-0.24l0.18-0.48c0.04-0.08,0.04-0.16,0-0.24c-0.04-0.08-0.04-0.18,0-0.3
		c0-0.2,0.06-0.44,0.18-0.71c0.12-0.28,0.14-0.51,0.06-0.71l0.36-0.42l-0.18-0.18c0.16-0.24,0.3-0.42,0.42-0.54
		c0.56-0.63,1.09-1.02,1.61-1.16c0.52-0.14,1.17-0.31,1.96-0.51l0.48,0.36l0.3-0.06l0.83,0.77l0.36-0.06l0.42,0.36
		c0,0.08,0.03,0.2,0.09,0.36c0.06,0.16,0.05,0.28-0.03,0.36l1.79,1.61l0.36-0.06l0.36,0.36l0.42-0.06l1.01,0.89
		c-0.04,0.2,0,0.42,0.12,0.66c0.12,0.24,0.16,0.48,0.12,0.71l0.42,0.36v0.3l0.3,0.18c0.04-0.04,0.05-0.07,0.03-0.09
		c-0.02-0.02-0.01-0.05,0.03-0.09L155.3,419.29z M143.28,396.79c0.48,0,0.87-0.04,1.19-0.12l0.36,0.36l0.42,0.06l-0.18,0.18
		l-0.06,0.3c0.04,0.2,0.08,0.4,0.12,0.59c0.04,0.2,0.06,0.42,0.06,0.65c0,0.28-0.06,0.56-0.18,0.83l0.12,0.36
		c-0.16,0.36-0.24,0.77-0.24,1.25c0,0.44,0.05,0.84,0.15,1.22c0.1,0.38,0.15,0.78,0.15,1.22v0.18c0.4,0.32,0.6,0.52,0.6,0.6
		c-0.12,0.12-0.18,0.42-0.18,0.89c0,0.44,0.03,0.91,0.09,1.43c0.06,0.52,0.09,0.91,0.09,1.19c0,0.2-0.02,0.3-0.06,0.3
		c0,0.12,0.02,0.22,0.06,0.3c0.04,0.08,0.06,0.16,0.06,0.24c-0.04,0.08-0.07,0.13-0.09,0.15c-0.02,0.02-0.05,0.07-0.09,0.15
		c-0.04,0.04-0.06,0.08-0.06,0.12c0,0.08,0.02,0.14,0.06,0.18l-0.54,0.59l-1.25,0.24c-0.56,0.2-0.98,0.34-1.28,0.42
		c-0.3,0.08-0.56,0.12-0.77,0.12c-0.22,0-0.44-0.05-0.65-0.15c-0.22-0.1-0.53-0.21-0.92-0.33l2.26-13.51H143.28z M141.79,417.27
		l0.3,0.24l-0.12-0.42L141.79,417.27z M143.22,392.45l1.37-0.18h0.12l0.18,0.77l-0.24,0.54c0.04,0.16,0.09,0.36,0.15,0.59
		s0.09,0.46,0.09,0.66c0,0.16-0.02,0.26-0.06,0.3c-0.08,0.08-0.12,0.18-0.12,0.3v0.18c-0.12,0.12-0.2,0.18-0.24,0.18l-0.12-0.18
		l-0.36,0.42c-0.04-0.04-0.19-0.09-0.45-0.15c-0.26-0.06-0.55-0.13-0.86-0.21L143.22,392.45z M159.88,392.27l0.83,0.95l-3.39,19.82
		c0,0.04-0.02,0.06-0.06,0.06h0.06l-1.07,6.37l-1.85-1.67l-0.65-1.96c0-0.04-0.06-0.06-0.18-0.06c-0.04-0.04-0.06-0.14-0.06-0.3
		c0-0.24-0.02-0.4-0.06-0.48l-0.24-0.24c0.2-0.2,0.48-0.3,0.83-0.3c0.36,0,0.63-0.12,0.83-0.36c0.24-0.08,0.57-0.18,0.98-0.3
		s0.74-0.24,0.98-0.36l0.36-0.36h-0.18c-0.2,0-0.47,0.02-0.8,0.06c-0.34,0.04-0.68,0.11-1.04,0.21c-0.36,0.1-0.71,0.22-1.04,0.36
		c-0.34,0.14-0.59,0.29-0.74,0.45h-0.36l-0.36,0.36h-0.12c-0.12,0-0.24,0.02-0.36,0.06c-0.12,0.04-0.28,0.06-0.48,0.06
		c-0.36,0-0.65-0.12-0.89-0.36c-0.16-0.12-0.27-0.22-0.33-0.3c-0.06-0.08-0.11-0.14-0.15-0.18l-0.06-0.06
		c0.04-0.04,0.06-0.12,0.06-0.24s0.02-0.2,0.06-0.24l-1.61-1.43c0.08-0.08,0.14-0.15,0.18-0.21c0.04-0.06,0.08-0.11,0.12-0.15
		c0.04-0.04,0.06-0.04,0.06,0c0.08,0.08,0.18,0.12,0.3,0.12c0.32,0,0.66-0.13,1.04-0.39c0.38-0.26,0.57-0.41,0.57-0.45h0.18
		c0.12,0,0.18-0.04,0.18-0.12c0-0.08-0.04-0.12-0.12-0.12h-0.24c-0.2,0-0.38,0.01-0.54,0.03c-0.16,0.02-0.3,0.03-0.42,0.03
		c-0.08,0-0.18,0.01-0.3,0.03c-0.12,0.02-0.22,0.03-0.3,0.03c-0.32,0-0.6-0.02-0.83-0.06c-0.24-0.04-0.48-0.06-0.71-0.06h-0.24
		l-0.77-0.65c0-0.24-0.04-0.5-0.12-0.77c-0.08-0.28-0.12-0.55-0.12-0.83c0-0.32,0.08-0.56,0.24-0.71l0.12-0.71l0.36-0.65l0.3-0.12
		l0.54-0.54l0.54-0.12c0.08-0.08,0.12-0.14,0.12-0.18c0-0.04,0.04-0.1,0.12-0.18c0.28-0.32,0.62-0.57,1.04-0.77
		c0.42-0.2,0.76-0.46,1.04-0.77c0.2-0.2,0.37-0.45,0.51-0.74c0.14-0.3,0.31-0.54,0.51-0.74l0.12-0.18c0-0.2,0.05-0.41,0.15-0.62
		c0.1-0.22,0.15-0.43,0.15-0.62c0-0.08-0.02-0.14-0.06-0.18c-0.12,0.12-0.18,0.24-0.18,0.36c0,0.16-0.13,0.38-0.39,0.65
		c-0.26,0.28-0.55,0.6-0.86,0.95c-0.44,0.48-0.89,0.94-1.37,1.4c-0.48,0.46-0.83,0.68-1.07,0.68l-0.06,0.06
		c-0.04,0.04-0.09,0.08-0.15,0.12c-0.06,0.04-0.13,0.1-0.21,0.18h-0.12c-0.2,0-0.4,0.08-0.6,0.24c-0.2,0.16-0.38,0.24-0.54,0.24
		c-0.08,0-0.14-0.02-0.18-0.06c-0.08-0.04-0.17-0.21-0.27-0.51c-0.1-0.3-0.2-0.63-0.3-1.01c-0.1-0.38-0.19-0.73-0.27-1.07
		c-0.08-0.34-0.14-0.57-0.18-0.68l0.18-0.54l-0.3-0.54c0.08-0.16,0.13-0.34,0.15-0.54c0.02-0.2,0.03-0.4,0.03-0.59
		c0-0.2-0.01-0.41-0.03-0.62c-0.02-0.22-0.03-0.43-0.03-0.62c0-0.24,0.02-0.47,0.06-0.68c0.04-0.22,0.12-0.39,0.24-0.51
		c0.04-0.04,0.06-0.12,0.06-0.24c0-0.16-0.02-0.26-0.06-0.3l0.54-0.59c0.12,0,0.25,0.01,0.39,0.03c0.14,0.02,0.29,0.03,0.45,0.03
		c0.79,0,1.7-0.04,2.71-0.12c1.01-0.08,1.91-0.12,2.71-0.12c0.71,0,1.23,0.06,1.55,0.18l0.54-0.24c0.08,0.04,0.24,0.06,0.48,0.06
		c0.32,0,0.67-0.05,1.07-0.15c0.4-0.1,0.65-0.15,0.77-0.15l0.24-0.24c0.12-0.12,0.3-0.31,0.54-0.57c0.24-0.26,0.57-0.64,1.01-1.16
		l-0.6,0.18l-0.54,0.6l-0.3,0.06l-0.36,0.42l-0.36-0.06c-0.04,0.08-0.08,0.13-0.12,0.15c-0.04,0.02-0.08,0.05-0.12,0.09
		c-0.08,0.04-0.14,0.06-0.18,0.06c-0.12,0-0.24,0.03-0.36,0.09s-0.22,0.11-0.3,0.15c-0.08-0.04-0.24-0.07-0.48-0.09
		c-0.24-0.02-0.5-0.04-0.77-0.06c-0.28-0.02-0.53-0.04-0.74-0.06c-0.22-0.02-0.33-0.05-0.33-0.09h-0.36c-0.16,0-0.32,0-0.48,0
		c-0.16,0-0.34,0.02-0.54,0.06h-0.24c-0.44,0-0.85-0.06-1.25-0.18c-0.4-0.12-0.79-0.18-1.19-0.18c-0.16,0-0.4,0.04-0.71,0.12
		l-0.42-0.36l0.71-0.71l-0.06-0.42l1.07-1.25H159.88z M147.26,394.77h-0.36c-0.32,0-0.54,0.08-0.65,0.24l-0.54-0.54v-0.06
		c0-0.04,0.01-0.07,0.03-0.09c0.02-0.02,0.03-0.05,0.03-0.09c0-0.08,0.02-0.18,0.06-0.3l-0.12-1.67h3.99
		c-0.4,0.44-0.81,0.85-1.25,1.25C148.02,393.92,147.62,394.33,147.26,394.77z M166.73,412.27l-0.18-0.24l-0.18,0.18l0.42,0.42
		L166.73,412.27z"/>
	<path class="st2" d="M188.75,431.44l-5.18-5.65l0.24-3.93l2.38-2.44h15.42l-0.3,3.15l0.71,1.01l2.86-2.32
		c0.04,0.16,0.06,0.31,0.06,0.45c0,0.14,0,0.25,0,0.33c0,0.2-0.02,0.3-0.06,0.3c0,0.12,0.02,0.22,0.06,0.3
		c0.04,0.08,0.06,0.16,0.06,0.24c-0.04,0.08-0.07,0.13-0.09,0.15c-0.02,0.02-0.05,0.07-0.09,0.15c-0.12,0.12-0.12,0.22,0,0.3
		l-0.54,0.59l-1.25,0.24c-0.6,0.24-1.05,0.39-1.37,0.45c-0.32,0.06-0.6,0.07-0.83,0.03c-0.24-0.04-0.51-0.12-0.8-0.24
		c-0.3-0.12-0.72-0.26-1.28-0.42c-0.08,0-0.17-0.01-0.27-0.03c-0.1-0.02-0.19,0.01-0.27,0.09l-0.42-0.42
		c-0.04,0.04-0.16,0.04-0.36,0c-0.2-0.04-0.43-0.08-0.68-0.12c-0.26-0.04-0.55-0.05-0.86-0.03c-0.32,0.02-0.62,0.09-0.89,0.21
		c-0.2-0.08-0.45-0.05-0.74,0.09c-0.3,0.14-0.55,0.25-0.74,0.33l-0.36-0.06l-0.48,0.3c-0.4-0.04-0.69-0.02-0.89,0.06
		c-0.2,0.08-0.46,0.14-0.77,0.18l-1.07,0.06l-0.24-0.18l-0.18,0.18c0.08,0.04,0.25,0.07,0.51,0.09c0.26,0.02,0.43,0.01,0.51-0.03
		c0.36,0.28,0.78,0.49,1.28,0.62c0.5,0.14,0.98,0.11,1.46-0.09c0.08-0.08,0.2-0.14,0.36-0.18c0.16-0.04,0.3-0.02,0.42,0.06
		c0.48-0.16,1.03-0.36,1.67-0.59c0.63-0.24,1.21-0.28,1.73-0.12c0.2,0.04,0.43,0.16,0.68,0.36c0.26,0.2,0.49,0.24,0.68,0.12
		l0.18,0.18c0.2,0.2,0.4,0.33,0.6,0.39c0.2,0.06,0.4,0.15,0.6,0.27l1.01,1.01l0.12,0.12c-0.08,0.12-0.09,0.41-0.03,0.86
		c0.06,0.46,0.01,0.78-0.15,0.98l0.12,1.01l-0.18,0.66l0.12,0.59l0.12-0.18l-0.06-0.24l0.18-0.48c0.04-0.08,0.04-0.16,0-0.24
		c-0.04-0.08-0.04-0.18,0-0.3c0-0.2,0.06-0.44,0.18-0.71c0.12-0.28,0.14-0.51,0.06-0.71l0.36-0.42l-0.18-0.18
		c0.16-0.24,0.3-0.42,0.42-0.54c0.56-0.63,1.09-1.02,1.61-1.16c0.52-0.14,1.17-0.31,1.96-0.51l0.48,0.36l0.3-0.06l0.83,0.77
		l0.36-0.06l0.42,0.36c0,0.08,0.03,0.2,0.09,0.36s0.05,0.28-0.03,0.36l1.79,1.61l0.36-0.06l0.36,0.36l0.42-0.06l1.01,0.89
		c-0.04,0.2,0,0.42,0.12,0.66c0.12,0.24,0.16,0.48,0.12,0.71l0.42,0.36v0.3l0.3,0.18c0.04-0.04,0.05-0.07,0.03-0.09
		c-0.02-0.02-0.01-0.05,0.03-0.09l0.6,0.54h-23.39L188.75,431.44z M204.05,392.69l-0.24-0.24l-0.18,0.18l0.06,0.42l-0.48,0.54v0.12
		c0,0.12-0.04,0.24-0.12,0.36c-0.08,0.12-0.12,0.22-0.12,0.3c0,0.08,0.02,0.14,0.06,0.18l-0.36,0.36c-0.04,0.16-0.06,0.46-0.06,0.89
		c0,0.44,0.03,0.95,0.09,1.55c0.06,0.59,0.13,1.18,0.21,1.76c0.08,0.58,0.15,1.12,0.21,1.64c0.06,0.52,0.11,0.93,0.15,1.25
		c-0.16,0.16-0.28,0.3-0.36,0.42c-0.08,0.12-0.14,0.22-0.18,0.3v0.18c0,0.08-0.04,0.16-0.12,0.24l0.6,0.6l0.83,3.39l-0.24,0.54
		c0.04,0.16,0.09,0.36,0.15,0.6s0.09,0.46,0.09,0.65c0,0.16-0.02,0.26-0.06,0.3c-0.08,0.08-0.12,0.18-0.12,0.3v0.18
		c-0.12,0.12-0.2,0.18-0.24,0.18l-0.12-0.18l-0.36,0.42c0-0.04-0.16-0.1-0.48-0.18c-0.32-0.08-0.67-0.15-1.04-0.21
		c-0.38-0.06-0.73-0.13-1.07-0.21c-0.34-0.08-0.55-0.14-0.62-0.18c-0.44-0.24-0.88-0.54-1.34-0.89c-0.46-0.36-0.9-0.71-1.34-1.07
		l-1.49-1.37l-0.3-0.3l-0.18,0.24c0.36,0.32,0.72,0.67,1.1,1.07c0.38,0.4,0.74,0.75,1.1,1.07l2.74,2.44
		c0.12,0.12,0.41,0.21,0.86,0.27c0.46,0.06,0.9,0.09,1.34,0.09c0.48,0,0.87-0.04,1.19-0.12l0.36,0.36l0.42,0.06l-0.18,0.18
		l-0.06,0.3c0.04,0.2,0.08,0.4,0.12,0.6c0.04,0.2,0.06,0.42,0.06,0.65c0,0.28-0.06,0.56-0.18,0.83l0.12,0.36
		c-0.16,0.36-0.24,0.77-0.24,1.25c0,0.32,0.03,0.62,0.09,0.92s0.11,0.61,0.15,0.92H192.2l-5.3-3.93v-9.29l0.83-5.12l8.75-6.61H225
		l5.18,6.13l0.3,5.54l-8.99,1.73h-9.29l0.42-4.11h-3.33l-4.52,4.46c-0.08-0.28-0.15-0.54-0.21-0.8c-0.06-0.26-0.17-0.49-0.33-0.68
		c0.04-0.04,0.06-0.2,0.06-0.48c0-0.32-0.03-0.72-0.09-1.22s-0.13-0.98-0.21-1.46c-0.08-0.48-0.16-0.92-0.24-1.34
		c-0.08-0.42-0.14-0.68-0.18-0.8l0.18-0.59c-0.12-0.16-0.21-0.46-0.27-0.89c-0.06-0.44-0.1-0.89-0.12-1.37
		c-0.02-0.48-0.05-0.91-0.09-1.31c-0.04-0.4-0.08-0.62-0.12-0.66l0.42-0.42c-0.04-0.04-0.06-0.12-0.06-0.24s0.02-0.24,0.06-0.36
		c0.04-0.12,0.08-0.22,0.12-0.3L204.05,392.69z M200.95,431.32l0.3,0.24l-0.12-0.42L200.95,431.32z M225.89,426.32l-0.18-0.24
		l-0.18,0.18l0.36,0.42l-7.56,6.13h-3.69l-1.07-0.95l-0.65-1.96c0-0.04-0.06-0.06-0.18-0.06c-0.04-0.04-0.06-0.14-0.06-0.3
		c0-0.24-0.02-0.4-0.06-0.48l-0.24-0.24c0.2-0.2,0.48-0.3,0.83-0.3c0.36,0,0.63-0.12,0.83-0.36c0.24-0.08,0.57-0.18,0.98-0.3
		c0.42-0.12,0.74-0.24,0.98-0.36l0.36-0.36h-0.18c-0.2,0-0.47,0.02-0.8,0.06c-0.34,0.04-0.68,0.11-1.04,0.21
		c-0.36,0.1-0.7,0.22-1.04,0.36c-0.34,0.14-0.59,0.29-0.74,0.45h-0.36l-0.36,0.36h-0.12c-0.12,0-0.24,0.02-0.36,0.06
		c-0.12,0.04-0.28,0.06-0.48,0.06c-0.36,0-0.65-0.12-0.89-0.36c-0.16-0.12-0.27-0.22-0.33-0.3c-0.06-0.08-0.11-0.14-0.15-0.18
		l-0.06-0.06c0.04-0.04,0.06-0.12,0.06-0.24s0.02-0.2,0.06-0.24l-1.61-1.43c0.08-0.08,0.14-0.15,0.18-0.21
		c0.04-0.06,0.08-0.11,0.12-0.15c0.04-0.04,0.06-0.04,0.06,0c0.08,0.08,0.18,0.12,0.3,0.12c0.32,0,0.66-0.13,1.04-0.39
		c0.38-0.26,0.57-0.41,0.57-0.45h0.18c0.12,0,0.18-0.04,0.18-0.12s-0.04-0.12-0.12-0.12h-0.24c-0.2,0-0.38,0.01-0.54,0.03
		c-0.16,0.02-0.3,0.03-0.42,0.03c-0.08,0-0.18,0.01-0.3,0.03c-0.12,0.02-0.22,0.03-0.3,0.03c-0.32,0-0.6-0.02-0.83-0.06
		c-0.24-0.04-0.48-0.06-0.71-0.06h-0.24l-0.77-0.66c0-0.24-0.04-0.5-0.12-0.77c-0.08-0.28-0.12-0.56-0.12-0.83
		c0-0.32,0.08-0.55,0.24-0.71l0.12-0.71l0.36-0.66l0.3-0.12l0.54-0.54l0.54-0.12c0.08-0.08,0.12-0.14,0.12-0.18
		c0-0.04,0.04-0.1,0.12-0.18c0.28-0.32,0.62-0.57,1.04-0.77c0.42-0.2,0.76-0.46,1.04-0.77c0.2-0.2,0.37-0.45,0.51-0.74
		c0.14-0.3,0.31-0.54,0.51-0.74l0.12-0.18c0-0.2,0.05-0.41,0.15-0.62c0.1-0.22,0.15-0.43,0.15-0.62c0-0.08-0.02-0.14-0.06-0.18
		c-0.12,0.12-0.18,0.24-0.18,0.36c0,0.16-0.13,0.38-0.39,0.65c-0.26,0.28-0.55,0.6-0.86,0.95l-0.65,0.71h-4.4
		c-0.08-0.24-0.14-0.47-0.18-0.68c-0.04-0.22-0.06-0.37-0.06-0.45l0.18-0.54l-0.3-0.54c0.08-0.16,0.13-0.34,0.15-0.54
		c0.02-0.2,0.03-0.4,0.03-0.6c0-0.2-0.01-0.41-0.03-0.62c-0.02-0.22-0.03-0.43-0.03-0.62c0-0.24,0.02-0.47,0.06-0.68
		c0.04-0.22,0.12-0.39,0.24-0.51c0.04-0.04,0.06-0.12,0.06-0.24c0-0.16-0.02-0.26-0.06-0.3l0.54-0.6c0.12,0,0.25,0.01,0.39,0.03
		c0.14,0.02,0.29,0.03,0.45,0.03c0.79,0,1.7-0.04,2.71-0.12c1.01-0.08,1.91-0.12,2.71-0.12c0.71,0,1.23,0.06,1.55,0.18l0.54-0.24
		c0.08,0.04,0.24,0.06,0.48,0.06c0.32,0,0.67-0.05,1.07-0.15c0.4-0.1,0.65-0.15,0.77-0.15l0.24-0.24c0.12-0.12,0.29-0.31,0.51-0.57
		c0.22-0.26,0.54-0.62,0.98-1.1h4.4l6.25,5.66l-2.14,12.5l-0.71,0.6L225.89,426.32z M206.43,408.82h-0.36
		c-0.32,0-0.54,0.08-0.65,0.24l-0.54-0.54v-0.06c0-0.04,0.01-0.07,0.03-0.09c0.02-0.02,0.03-0.05,0.03-0.09
		c0-0.08,0.02-0.18,0.06-0.3c-0.04-0.2-0.06-0.39-0.06-0.57s0-0.37,0-0.57l2.98,0.42c-0.28,0.28-0.55,0.54-0.8,0.77
		C206.86,408.28,206.63,408.54,206.43,408.82z M211.91,407.86h6.07l-0.36,0.12l-0.54,0.6l-0.3,0.06l-0.36,0.42l-0.36-0.06
		c-0.04,0.08-0.08,0.13-0.12,0.15c-0.04,0.02-0.08,0.05-0.12,0.09c-0.08,0.04-0.14,0.06-0.18,0.06c-0.12,0-0.24,0.03-0.36,0.09
		s-0.22,0.11-0.3,0.15c-0.08-0.04-0.24-0.07-0.48-0.09c-0.24-0.02-0.5-0.04-0.77-0.06c-0.28-0.02-0.53-0.04-0.74-0.06
		c-0.22-0.02-0.33-0.05-0.33-0.09h-0.36c-0.16,0-0.32,0-0.48,0c-0.16,0-0.34,0.02-0.54,0.06h-0.24c-0.44,0-0.85-0.06-1.25-0.18
		c-0.4-0.12-0.79-0.18-1.19-0.18c-0.16,0-0.4,0.04-0.71,0.12l-0.42-0.36l0.71-0.71l-0.06-0.42l0.18-0.24L211.91,407.86z
		 M216.73,427.09l0.18-0.18c-0.12,0-0.21,0.03-0.27,0.09s-0.13,0.11-0.21,0.15L216.73,427.09z"/>
	<path class="st2" d="M241.07,430.01c0.24,0,0.38,0.19,0.42,0.57c0.04,0.38,0.08,0.61,0.12,0.68v-2.92l1.07-1.79
		c0-0.04-0.01-0.07-0.03-0.09c-0.02-0.02-0.03-0.05-0.03-0.09c0-0.12,0.06-0.22,0.18-0.3c0.12-0.08,0.22-0.18,0.3-0.3v-0.36
		c0.28,0,0.54,0.14,0.77,0.42s0.52,0.42,0.83,0.42c0.2,0.16,0.49,0.35,0.86,0.57c0.38,0.22,0.68,0.39,0.92,0.51h0.54
		c-0.08-0.12-0.26-0.3-0.54-0.54c-0.28-0.24-0.58-0.48-0.89-0.71c-0.32-0.24-0.65-0.45-1.01-0.62c-0.36-0.18-0.65-0.27-0.89-0.27
		l-0.24-0.3h-0.54c-0.08-0.2-0.27-0.39-0.57-0.57c-0.3-0.18-0.45-0.51-0.45-0.98v-0.66c0-0.08,0.02-0.12,0.06-0.12
		c0.08,0,0.14-0.04,0.18-0.12c0.04-0.08,0.12-0.12,0.24-0.12v-2.14c0.12,0,0.22,0.01,0.3,0.03c0.08,0.02,0.14,0.03,0.18,0.03h0.06
		c0,0.16,0.09,0.3,0.27,0.42s0.38,0.22,0.6,0.3c0.22,0.08,0.53,0.16,0.92,0.24c0.04,0.04,0.1,0.08,0.18,0.12
		c0.12,0.12,0.18,0.14,0.18,0.06c0-0.08-0.02-0.14-0.06-0.18c-0.08-0.2-0.21-0.36-0.39-0.48c-0.18-0.12-0.33-0.24-0.45-0.36
		c-0.36-0.36-0.62-0.68-0.8-0.98c-0.18-0.3-0.41-0.58-0.68-0.86v-1.01c0.04,0,0.12-0.09,0.24-0.27c0.12-0.18,0.26-0.36,0.42-0.54
		c0.16-0.18,0.34-0.35,0.54-0.51c0.2-0.16,0.38-0.24,0.54-0.24l0.6-0.36l0.71-0.18l0.3,0.18h0.77l0.48,0.36
		c0.08,0,0.14-0.01,0.18-0.03c0.04-0.02,0.1-0.03,0.18-0.03c0.44,0,0.87,0.09,1.31,0.27c0.44,0.18,0.85,0.27,1.25,0.27
		c0.28,0,0.57-0.04,0.89-0.12c0.32-0.08,0.61-0.12,0.89-0.12h0.24c0.04-0.12,0.25-0.25,0.62-0.39c0.38-0.14,0.57-0.27,0.57-0.39
		c-0.2,0-0.36,0.06-0.48,0.18c-0.08,0-0.3,0.01-0.66,0.03c-0.36,0.02-0.77,0.03-1.25,0.03c-0.67,0-1.36-0.04-2.05-0.12
		c-0.69-0.08-1.08-0.22-1.16-0.42h-0.54c-0.08-0.24-0.31-0.38-0.68-0.42c-0.38-0.04-0.57-0.18-0.57-0.42c0-0.08,0.08-0.26,0.24-0.54
		c0.16-0.28,0.34-0.57,0.54-0.89c0.2-0.32,0.4-0.61,0.6-0.89c0.2-0.28,0.34-0.48,0.42-0.6l0.54-0.24l0.24-0.54
		c0.24-0.08,0.49-0.23,0.74-0.45c0.26-0.22,0.51-0.45,0.74-0.68s0.48-0.45,0.71-0.62c0.24-0.18,0.48-0.27,0.71-0.27
		c0.08,0,0.16-0.04,0.24-0.12c0.08-0.08,0.14-0.16,0.18-0.24h0.77c0.28,0.36,0.68,0.81,1.22,1.37s1.08,1.12,1.64,1.7
		s1.05,1.11,1.49,1.61c0.44,0.5,0.71,0.88,0.83,1.16l0.54,0.24c0.04,0.16,0.15,0.33,0.33,0.51s0.37,0.35,0.57,0.51
		c0.2,0.16,0.39,0.3,0.57,0.42s0.27,0.2,0.27,0.24h2.62l-0.54-0.36h-0.77l-0.24-0.18h-0.54l-0.24-0.3c-0.12,0-0.22-0.02-0.3-0.06
		c-0.08,0-0.14-0.02-0.18-0.06c0-0.08-0.08-0.14-0.24-0.18c-0.16-0.04-0.28-0.1-0.36-0.18c-0.04-0.08-0.13-0.22-0.27-0.42
		c-0.14-0.2-0.29-0.4-0.45-0.59c-0.16-0.2-0.3-0.39-0.42-0.57c-0.12-0.18-0.18-0.29-0.18-0.33c-0.12-0.2-0.26-0.37-0.42-0.51
		c-0.16-0.14-0.34-0.31-0.54-0.51c-0.44-0.4-0.76-0.88-0.98-1.46c-0.22-0.58-0.59-0.98-1.1-1.22v-0.54h1.01l0.3-0.3h2.26v-0.12h6.19
		l0.06,5.95l-0.36,2.08l-4.94,1.19h-10.36l-0.95,4.88l6.79,1.37h12.8l-0.48,2.98l-0.89,5.42l-1.96,0.83h-35.3l0.12-3.69l0.36-1.85
		l1.96-11.73l1.13-6.9l0.36,0.18c0.12,0,0.25,0.04,0.39,0.12c0.14,0.08,0.21,0.2,0.21,0.36c0.44,0.28,0.95,0.58,1.55,0.89
		c0.6,0.32,1.01,0.71,1.25,1.19c0.08,0.16,0.14,0.41,0.18,0.74c0.04,0.34,0.16,0.55,0.36,0.62v0.24c0,0.28,0.04,0.52,0.12,0.71
		c0.08,0.2,0.12,0.4,0.12,0.6c0,0.44-0.01,0.76-0.03,0.98c-0.02,0.22-0.03,0.37-0.03,0.45v0.18c-0.16,0-0.38,0.18-0.65,0.54
		c-0.28,0.36-0.56,0.54-0.83,0.54l-0.71,0.77l-0.6,0.3l-0.36,0.48l0.18-0.06l0.18-0.18l0.42-0.18c0.12-0.04,0.2-0.09,0.24-0.15
		c0.04-0.06,0.1-0.13,0.18-0.21c0.16-0.12,0.38-0.23,0.65-0.33c0.28-0.1,0.48-0.25,0.6-0.45h0.54v-0.24c0.12,0,0.24-0.01,0.36-0.03
		c0.12-0.02,0.24-0.03,0.36-0.03c0.79,0,1.43,0.16,1.9,0.48s1.05,0.69,1.73,1.13v0.59l0.24,0.18v1.13l0.3,0.24v0.54
		c-0.08,0.08-0.15,0.19-0.21,0.33c-0.06,0.14-0.17,0.21-0.33,0.21v2.38l0.24,0.24v0.54l0.3,0.24v1.37
		c-0.16,0.08-0.29,0.24-0.39,0.48c-0.1,0.24-0.25,0.44-0.45,0.59v0.54l-0.24,0.24c0,0.2,0.02,0.3,0.06,0.3
		c0.04,0,0.07-0.01,0.09-0.03c0.02-0.02,0.05-0.03,0.09-0.03V430.01z M233.51,404.05l0.71-4.17l0.77-4.52l0.54-3.15h37.56
		l-0.95,6.07l-0.42,2.62l-3.04,0.54h-10.83c0.4-0.44,0.76-0.86,1.1-1.28c0.34-0.42,0.54-0.72,0.62-0.92l0.54-0.24
		c0.04-0.2,0.22-0.47,0.54-0.8c0.32-0.34,0.63-0.67,0.95-1.01c0.32-0.34,0.62-0.63,0.89-0.89c0.28-0.26,0.42-0.43,0.42-0.51h0.6
		c0.04-0.08,0.13-0.17,0.27-0.27c0.14-0.1,0.27-0.17,0.39-0.21h-0.65c-0.08,0.16-0.22,0.24-0.42,0.24c-0.2,0-0.32,0.08-0.36,0.24
		h-0.54c-0.32,0.16-0.71,0.47-1.16,0.92c-0.46,0.46-0.92,0.94-1.4,1.46c-0.48,0.52-0.93,1.02-1.37,1.52
		c-0.44,0.5-0.77,0.88-1.01,1.16c-0.08,0-0.17,0.01-0.27,0.03c-0.1,0.02-0.19,0.03-0.27,0.03c-0.12,0.04-0.24,0.06-0.36,0.06
		c0,0.12-0.12,0.18-0.36,0.18l-0.06,0.3h-3.75l-1.13,4.17l1.13,0.6l-0.24,0.12l-0.06,0.06c-0.2,0-0.3-0.02-0.3-0.06
		c0-0.04,0.01-0.07,0.03-0.09c0.02-0.02,0.03-0.05,0.03-0.09h-0.54c0-0.04-0.07-0.2-0.21-0.48c-0.14-0.28-0.31-0.58-0.51-0.92
		c-0.2-0.34-0.39-0.65-0.57-0.95c-0.18-0.3-0.27-0.49-0.27-0.57c-0.12-0.52-0.2-1.06-0.24-1.64c-0.04-0.58-0.06-1.14-0.06-1.7
		c0-0.36,0.01-0.7,0.03-1.04c0.02-0.34,0.03-0.66,0.03-0.98v-0.42h-0.3c0,0.52-0.03,1.04-0.09,1.58c-0.06,0.54-0.09,1.04-0.09,1.52
		v3.69c0,0.12,0.08,0.31,0.24,0.57c0.16,0.26,0.35,0.53,0.57,0.8c0.22,0.28,0.44,0.54,0.65,0.77c0.22,0.24,0.41,0.42,0.57,0.54v0.54
		l0.24,0.3h-0.24l-0.3,0.18c-0.2,0.2-0.4,0.45-0.6,0.74c-0.2,0.3-0.52,0.51-0.95,0.62l-0.18,0.3c-0.4,0.12-0.71,0.29-0.95,0.51
		c-0.24,0.22-0.46,0.45-0.65,0.68c-0.2,0.24-0.4,0.49-0.6,0.74c-0.2,0.26-0.42,0.49-0.65,0.68c0,0.44-0.01,0.68-0.03,0.74
		c-0.02,0.06-0.05,0.09-0.09,0.09c-0.2,0-0.45,0.14-0.74,0.42c-0.3,0.28-0.6,0.58-0.89,0.89c-0.3,0.32-0.57,0.61-0.8,0.86
		c-0.24,0.26-0.38,0.37-0.42,0.33c-0.08,0-0.15,0.06-0.21,0.18s-0.11,0.2-0.15,0.24c-0.08,0.04-0.18,0.06-0.3,0.06
		c-0.12,0-0.2,0.06-0.24,0.18h-0.77l-1.01-0.77c-0.6-0.32-1.02-0.57-1.28-0.74c-0.26-0.18-0.46-0.38-0.6-0.59
		c-0.14-0.22-0.26-0.47-0.36-0.74c-0.1-0.28-0.27-0.69-0.51-1.25c-0.08-0.2-0.2-0.32-0.36-0.36v-0.59
		c-0.08-0.04-0.27-0.33-0.57-0.86c-0.3-0.54-0.72-0.94-1.28-1.22c-0.08-0.2-0.28-0.37-0.6-0.51c-0.32-0.14-0.56-0.25-0.71-0.33
		l-0.18-0.3l-0.54-0.18l-0.42-0.42L233.51,404.05z M233.69,418.52v0.36l0.24-0.36H233.69z M247.26,427.57h0.3
		c0-0.08-0.06-0.11-0.18-0.09c-0.12,0.02-0.22-0.01-0.3-0.09L247.26,427.57z M254.23,407.75c-0.08-0.08-0.19-0.2-0.33-0.36
		c-0.14-0.16-0.31-0.24-0.51-0.24v-0.36l2.08,1.01c-0.2-0.04-0.41-0.06-0.62-0.06C254.63,407.75,254.42,407.75,254.23,407.75z
		 M264.76,395.3v-0.3h-0.24l-0.3,0.3H264.76z"/>
</g>
<g id="pMpUcU.tif">
	<g>
		<g>
			<path class="st2" d="M255.04,168.14c3.41-3.64,6.5-6.93,9.4-10.02c14.29,14.31,28.37,28.41,43.01,43.06
				c-3.15,2.76-6.54,5.74-10.14,8.9c9.86,9.75,19.27,19.06,28.68,28.37c-3.45,3.28-6.55,6.24-10.1,9.61
				c-9.12-9.19-18.44-18.59-28.26-28.49c-3.08,3.4-6.11,6.74-8.99,9.92c-14.38-14.38-28.41-28.42-42.78-42.8
				c3.24-2.85,6.68-5.89,10.3-9.08c-11.25-11.22-21.8-21.73-32.35-32.26c-11.61-11.6-23.14-23.29-34.85-34.79
				c-9.56-9.38-21.08-12.14-33.73-8.14c-12.44,3.94-20.1,12.81-22.44,25.68c-2.12,11.64,1.4,21.71,9.81,30.1
				c22.85,22.81,45.67,45.66,68.5,68.49c13.36,13.36,26.85,26.6,40.05,40.12c12.83,13.14,17.1,28.93,11.77,46.5
				c-5.36,17.69-17.7,28.69-35.88,32.2c-16.18,3.13-30.32-1.64-42-13.3c-20.72-20.67-41.39-41.38-62.06-62.1
				c-1.28-1.28-2.35-2.78-3.89-4.62c-3.58,3.87-6.65,7.19-9.52,10.29c-14.36-14.36-28.44-28.45-43.06-43.07
				c3.13-2.76,6.51-5.75,10.07-8.89c-9.85-9.74-19.26-19.06-28.55-28.26c3.38-3.37,6.41-6.4,9.8-9.79
				c9.21,9.29,18.53,18.69,28.29,28.54c3.1-3.52,6.09-6.9,8.93-10.12c14.56,14.57,28.59,28.61,42.99,43.03
				c-3.22,2.79-6.69,5.81-10.37,9.01c11.14,11.1,21.55,21.44,31.94,31.81c11.7,11.67,23.34,23.39,35.07,35.03
				c13.41,13.32,34.35,13.39,47.38,0.25c12.98-13.1,12.9-33.9-0.32-47.16c-36.08-36.16-72.22-72.25-108.31-108.39
				c-14.65-14.67-18.59-35.04-10.35-52.99c13.6-29.62,51.95-36.74,75.08-13.8c21.63,21.44,43.09,43.05,64.62,64.59
				C253.42,166.18,253.94,166.87,255.04,168.14z M265.09,177.42c-3.3,3.26-6.7,6.63-9.51,9.41c7.52,7.69,15.23,15.58,22.68,23.2
				c3.25-3.2,6.61-6.5,9.85-9.69C280.43,192.7,272.65,184.95,265.09,177.42z M98.95,256.69c3.45-3.29,6.86-6.56,10.08-9.64
				c-7.85-7.86-15.68-15.68-23.15-23.15c-3.22,3.2-6.63,6.57-9.91,9.82C83.54,241.29,91.3,249.05,98.95,256.69z"/>
		</g>
	</g>
</g>
</svg>
