<?xml version="1.0" encoding="utf-8"?>
<!-- Generator: Adobe Illustrator 24.0.3, SVG Export Plug-In . SVG Version: 6.00 Build 0)  -->
<svg version="1.1" id="Layer_1" xmlns="http://www.w3.org/2000/svg" xmlns:xlink="http://www.w3.org/1999/xlink" x="0px" y="0px"
	 viewBox="0 0 357 500" style="enable-background:new 0 0 357 500;" xml:space="preserve">
<style type="text/css">
	.st0{fill:#5D6478;}
	.st1{fill:#353944;}
</style>
<g>
	<path class="st0" d="M23.13,490C15.89,490,10,484.11,10,476.87V23.13C10,15.89,15.89,10,23.13,10h310.87
		c7.24,0,13.13,5.89,13.13,13.13v453.73c0,7.24-5.89,13.13-13.13,13.13H23.13z"/>
	<path class="st1" d="M334.01,20c1.67,0,3.13,1.46,3.13,3.13v453.73c0,1.67-1.46,3.13-3.13,3.13H23.13c-1.67,0-3.13-1.46-3.13-3.13
		V23.13c0-1.67,1.46-3.13,3.13-3.13H334.01 M334.01,0H23.13C10.41,0,0,10.41,0,23.13v453.73C0,489.59,10.41,500,23.13,500h310.87
		c12.72,0,23.13-10.41,23.13-23.13V23.13C357.14,10.41,346.73,0,334.01,0L334.01,0z"/>
</g>
<g>
	<path class="st1" d="M157.66,266.55h-26.29l-0.34-10l14.49-3.93h3.48v0.79l-0.56,0.9v2.02H148v1.12c-0.22,0-0.34,0.15-0.34,0.45
		c0,0.08-0.02,0.11-0.06,0.11c-0.04,0-0.06,0.04-0.06,0.11c-0.08,0.08-0.11,0.15-0.11,0.22c-0.15,0.22-0.51,0.39-1.07,0.51
		c-0.56,0.11-0.99,0.24-1.29,0.39c-0.38,0.22-0.75,0.49-1.12,0.79c-0.38,0.3-0.79,0.52-1.24,0.67c-0.15,0.38-0.36,0.95-0.62,1.74
		c-0.26,0.79-0.39,1.55-0.39,2.3l-0.45,0.45v1.01c0.07,0,0.26-0.3,0.56-0.9c0.15-0.3,0.26-0.6,0.34-0.9
		c0.22-0.37,0.45-0.75,0.67-1.12c0.22-0.37,0.49-0.71,0.79-1.01c0.6-0.6,1.39-1.12,2.36-1.57c0.97-0.45,1.8-0.97,2.47-1.57
		c0-0.22,0.13-0.39,0.39-0.5c0.26-0.11,0.47-0.21,0.62-0.28v-1.57l0.45-0.45v-1.46l0.56-0.56v-1.68h7.64l0.56,7.3
		c-0.3,0.15-0.45,0.3-0.45,0.45l-1.46,0.34h1.8L157.66,266.55z M155.75,260.71v0.56h0.45l0.56-0.56H155.75z"/>
	<path class="st1" d="M191.25,266.55h-26.29l-0.34-10l14.49-3.93h3.48v0.79l-0.56,0.9v2.02h-0.45v1.12c-0.22,0-0.34,0.15-0.34,0.45
		c0,0.08-0.02,0.11-0.06,0.11c-0.04,0-0.06,0.04-0.06,0.11c-0.08,0.08-0.11,0.15-0.11,0.22c-0.15,0.22-0.51,0.39-1.07,0.51
		c-0.56,0.11-0.99,0.24-1.29,0.39c-0.38,0.22-0.75,0.49-1.12,0.79c-0.38,0.3-0.79,0.52-1.24,0.67c-0.15,0.38-0.36,0.95-0.62,1.74
		c-0.26,0.79-0.39,1.55-0.39,2.3l-0.45,0.45v1.01c0.07,0,0.26-0.3,0.56-0.9c0.15-0.3,0.26-0.6,0.34-0.9
		c0.22-0.37,0.45-0.75,0.67-1.12c0.22-0.37,0.49-0.71,0.79-1.01c0.6-0.6,1.39-1.12,2.36-1.57c0.97-0.45,1.8-0.97,2.47-1.57
		c0-0.22,0.13-0.39,0.39-0.5c0.26-0.11,0.47-0.21,0.62-0.28v-1.57l0.45-0.45v-1.46l0.56-0.56v-1.68h7.64l0.56,7.3
		c-0.3,0.15-0.45,0.3-0.45,0.45l-1.46,0.34h1.8L191.25,266.55z M189.34,260.71v0.56h0.45l0.56-0.56H189.34z"/>
	<path class="st1" d="M224.83,266.55h-26.29l-0.34-10l14.49-3.93h3.48v0.79l-0.56,0.9v2.02h-0.45v1.12c-0.22,0-0.34,0.15-0.34,0.45
		c0,0.08-0.02,0.11-0.06,0.11c-0.04,0-0.06,0.04-0.06,0.11c-0.08,0.08-0.11,0.15-0.11,0.22c-0.15,0.22-0.51,0.39-1.07,0.51
		c-0.56,0.11-0.99,0.24-1.29,0.39c-0.38,0.22-0.75,0.49-1.12,0.79c-0.38,0.3-0.79,0.52-1.24,0.67c-0.15,0.38-0.36,0.95-0.62,1.74
		c-0.26,0.79-0.39,1.55-0.39,2.3l-0.45,0.45v1.01c0.07,0,0.26-0.3,0.56-0.9c0.15-0.3,0.26-0.6,0.34-0.9
		c0.22-0.37,0.45-0.75,0.67-1.12c0.22-0.37,0.49-0.71,0.79-1.01c0.6-0.6,1.39-1.12,2.36-1.57c0.97-0.45,1.8-0.97,2.47-1.57
		c0-0.22,0.13-0.39,0.39-0.5c0.26-0.11,0.47-0.21,0.62-0.28v-1.57l0.45-0.45v-1.46l0.56-0.56v-1.68h7.64l0.56,7.3
		c-0.3,0.15-0.45,0.3-0.45,0.45l-1.46,0.34h1.8L224.83,266.55z M222.92,260.71v0.56h0.45l0.56-0.56H222.92z"/>
</g>
</svg>
