<?xml version="1.0" encoding="utf-8"?>
<!-- Generator: Adobe Illustrator 24.0.3, SVG Export Plug-In . SVG Version: 6.00 Build 0)  -->
<svg version="1.1" id="Layer_1" xmlns="http://www.w3.org/2000/svg" xmlns:xlink="http://www.w3.org/1999/xlink" x="0px" y="0px"
	 viewBox="0 0 500 500" style="enable-background:new 0 0 500 500;" xml:space="preserve">
<style type="text/css">
	.st0{fill:#1E8279;}
	.st1{fill:#00A99D;}
	.st2{fill:#EEBEAA;}
</style>
<rect class="st0" width="500" height="500"/>
<path d="M352.27,133.49c0,0-7.27,46.51,26.73,88.51s84,122,52,246L70,481c0,0-17,3,0-89s58-217,45-253S289.54,29.99,352.27,133.49z"
	/>
<g>
	<path d="M359.04,196.69c-3.9-10.13-16.66-11.71-26.24-12.05c-9.5-0.33-18.97,2.79-24.66,10.73c-5,6.99-6.3,16.66-1.14,23.93
		c1.7,2.39,3.73,3.54,6.22,3.75c-1.37,3.14-2.49,6.49-3.41,9.89c-6.15,13.67-12.88,27.09-20.15,40.2
		c-8.68,15.66-22.25,33.05-16.26,51.98c1.54,4.88,7.05,7.33,11.62,4.73c1.49-0.85,2.86-1.81,4.15-2.83
		c17.13-8.94,29.92-23.89,42.15-38.55c7.57-9.08,14.51-18.26,19.15-29.22c4.21-9.95,7.01-20.52,8.99-31.13
		C361.32,218.11,362.8,206.47,359.04,196.69z"/>
	<path class="st1" d="M193.44,406.49c0,0-111.94-19.54-138.71,93.51h402.74c0,0-3.65-85.13-184.94-94.9
		C272.53,405.1,211.69,407.89,193.44,406.49z"/>
	<path class="st2" d="M218.92,331.89c0.17,23.26-0.67,46.53-2.22,69.75c-0.59,8.77-6.04,11.56-12.77,15.69
		c-13.77,8.45-16.45,29.65-5.33,41.33c5.48,5.76,12.99,9.15,20.55,11.6c14.38,4.65,29.59,6.35,44.71,6.37
		c15.2,0.02,30.28-2.99,41.74-13.74c3.86-3.62,6.85-8.45,7.16-13.73c0.72-12.33-12.34-22.54-17.33-33.02
		c-9.64-20.23-8.92-43.73-6.69-65.53c2.43-23.76,8.03-47.02,13.18-70.3c5.02-22.72,9.64-47.56,5.66-70.83
		c-1.8-10.55-6.02-21.86-15.78-27.47c-17.44-10.01-42.98,1.82-53.55,16.95c-21.27,30.44-21.19,74.59-19.85,109.92
		C218.69,316.54,218.86,324.22,218.92,331.89z"/>
	<path class="st2" d="M122.26,155.06c0,0-2.43,64.49,0,91.86s10.95,68.74,13.38,73.61s6.08,14.6,15.82,18.25s65.7,20.68,105.85-3.65
		s64.49-45.02,69.35-107.07c0,0,17.03-87.6-6.08-132.01s-82.84-50.43-127.2-37.69S123.48,96.66,122.26,155.06z"/>
	<path class="st2" d="M315.11,201.49c0,0,19.47-5.16,27.98,0s30.42,43.34-35.28,66.05S315.11,201.49,315.11,201.49z"/>
	<path d="M355.57,171.73c0.05-9.79-0.66-19.55-1.97-29.25c-2.34-17.35-5.91-36.58-14.65-51.99c-1.91-3.37-4.33-6.71-7.16-9.38
		c-1.23-1.16-3.43-2.15-4.36-3.5c-0.99-1.44-0.71-3.42-1.02-5.27c-1.29-7.73-6.81-13.51-13.19-17.63
		c-14.6-9.41-33.74-12.78-50.79-13.55c-38.34-1.73-74.84,11.51-111.29,21.33c-10.51,2.83-21.11,5.38-31.85,7.16
		c-5.22,0.87-10.47,1.49-15.75,1.89c-4.96,0.37-10.18,0.37-14.65,2.86c-7.77,4.35-11.09,15.61-3.76,22.07
		c1.68,1.48,3.66,2.38,5.76,2.82c-1.64,1.43-3.4,2.75-5.29,3.93c-3.51,2.2-7.19,3.91-11.18,5.05c-4.2,1.2-8.69,1.33-12.01,4.53
		c-9,8.64,2.11,17.16,9.88,20.13c4.18,1.6,8.57,2.48,13,2.68c-4.77,6.37-11.33,11.18-19.06,14.45c-5.41,2.29-10.52,5.85-10.98,12.23
		c-0.48,6.66,4.89,11.3,10.97,12.39c5.88,1.06,12.31-0.37,18.13-1.34c6.71-1.12,13.26-2.88,19.55-5.48
		c6.06-2.5,11.54-5.67,16.6-9.87c5.51-4.58,9.23-10.4,13.4-16.14c15.68-21.59,45.51-26.23,70.17-29.35
		c16.42-2.07,33.02-3.3,49.57-3.37c6.76-0.03,12.44,0.54,16.48,6.47c4,5.87,4.81,13.5,6.01,20.32
		c5.14,29.21,23.09,54.78,49.88,68.08c0.15,0.07,0.29,0.13,0.44,0.19c1.49,1.13,3.09,2.05,4.84,2.66
		c7.82,2.71,16.18-1.43,20.24-8.37C356.01,190.8,355.52,180.31,355.57,171.73z"/>
</g>
</svg>
