<?xml version="1.0" encoding="utf-8"?>
<!-- Generator: Adobe Illustrator 24.0.3, SVG Export Plug-In . SVG Version: 6.00 Build 0)  -->
<svg version="1.1" id="Layer_1" xmlns="http://www.w3.org/2000/svg" xmlns:xlink="http://www.w3.org/1999/xlink" x="0px" y="0px"
	 viewBox="0 0 500 500" style="enable-background:new 0 0 500 500;" xml:space="preserve">
<style type="text/css">
	.st0{fill:#E53935;}
	.st1{fill:#820F14;}
	.st2{fill:#F0C5A1;}
	.st3{fill:#F2D22E;}
</style>
<rect class="st0" width="500" height="500"/>
<g>
	<path class="st1" d="M193.33,407.54c0,0-110.69-19.32-137.15,92.46h398.23c0,0-3.61-84.18-182.87-93.84
		C271.54,406.16,211.38,408.92,193.33,407.54z"/>
	<path class="st2" d="M218.53,333.77c0.17,23-0.66,46.01-2.2,68.97c-0.58,8.67-5.98,11.43-12.62,15.51
		c-13.61,8.36-16.26,29.31-5.27,40.87c5.42,5.7,12.84,9.05,20.32,11.47c14.22,4.6,29.26,6.28,44.21,6.3
		c15.03,0.02,29.95-2.96,41.28-13.58c3.82-3.58,6.77-8.36,7.08-13.58c0.71-12.19-12.2-22.29-17.14-32.65
		c-9.53-20.01-8.82-43.24-6.61-64.8c2.4-23.49,7.94-46.5,13.03-69.51c4.97-22.47,9.53-47.02,5.6-70.04
		c-1.78-10.43-5.95-21.62-15.6-27.16c-17.25-9.9-42.49,1.8-52.95,16.76c-21.03,30.1-20.95,73.75-19.62,108.69
		C218.3,318.6,218.47,326.18,218.53,333.77z"/>
	<path class="st2" d="M122.95,158.92c0,0-2.41,63.76,0,90.83s10.83,67.98,13.23,72.79c2.41,4.81,6.02,14.44,15.64,18.05
		s64.97,20.45,104.67-3.61s63.76-44.51,68.58-105.87c0,0,16.84-86.62-6.02-130.54c-22.85-43.91-81.9-49.87-125.77-37.26
		C149.42,75.91,124.16,101.17,122.95,158.92z"/>
	<path class="st3" d="M334.2,40.73c-2.9,5-5.8,10-8.7,15c-3.55-6.77-5.65-14.27-6.18-21.93c-0.51-7.43-9.23-9.44-13.45-3.64
		c-2.23,3.06-4.46,6.12-6.69,9.19c-3.39-4.98-6.78-9.95-10.18-14.93c-2.94-4.32-9.67-5-12.47,0c-2.01,3.59-4.44,6.62-7.42,9.18
		c-2.35-2.68-4.32-5.61-6-8.92c-1.81-3.56-6.61-4.36-9.88-2.59c-3.38,1.83-6.49,4.02-9.33,6.54c-3.57-2.15-7.14-4.3-10.72-6.44
		c-2.6-1.56-6.67-1.23-8.75,1.13c-1.59,1.8-3.18,3.6-4.77,5.4c-3.22-3.2-6.45-6.41-9.67-9.61c-4.13-4.1-10.18-1.76-12.07,3.19
		c-1.18,3.1-2.36,6.19-3.54,9.29c-1.08-1.74-2.16-3.49-3.24-5.23c-2.68-4.33-9.97-5.05-12.47,0c-2.62,5.29-5.25,10.59-7.87,15.88
		c-5.24-5.88-10.34-11.88-15.3-18.01c-4.07-5.03-12.34-0.72-12.32,5.1c0.02,5.24-0.29,10.4-0.92,15.52
		c-0.91-1.92-1.73-3.88-2.44-5.9c-2.69-7.62-13.79-6.44-14.18,1.92c-1.75,37.73-3.5,75.47-5.25,113.2
		c-1.82,10.71-1.89,22.01-1.52,32.69c0.1,2.79,1.4,4.73,3.17,5.84c0.27-10.95,1.77-46.62,9.89-54.74
		c9.62-9.62,20.22-16.71,41.39-18.58l0,0c11.73-1.39,24.19,0.18,35.16,2.01c12.04,2.01,24.07,4.45,36.28,5.08
		c10.7,0.55,22.93-3.01,33.3,0.06c10.24,3.03,15.92,16.48,20.85,25c0.08,0.13,0.15,0.27,0.23,0.4c0.77,23.77,3.74,48.88-10.34,69.43
		c-5.27,7.68,7.24,14.91,12.47,7.29c3.21-4.69,5.65-9.57,7.5-14.59c1.81,0.07,3.61-0.56,4.94-2.14c0.67-0.8,1.35-1.5,2.05-2.15
		c-1.17,13.08-6.31,25.56-17.26,33.61c-3.4,2.5-4.34,5.98-2.59,9.88c2.71,6.02,9.96,6.62,15.29,3.92
		c6.47-3.27,10.38-10.7,13.68-16.83c7.8-14.48,11.86-30.57,12.18-46.99c0.02-0.89-0.11-1.68-0.33-2.4
		c-0.39-10.6-1.15-21.18-2.27-31.73c2.16-37.82,6.43-75.5,12.89-112.86C348.72,38.63,338.56,33.21,334.2,40.73z"/>
	<path class="st2" d="M307.63,205.24c0,0,19.25-6.02,27.67,0s30.08,50.53-34.89,77S307.63,205.24,307.63,205.24z"/>
</g>
</svg>
