<?xml version="1.0" encoding="utf-8"?>
<!-- Generator: Adobe Illustrator 24.0.3, SVG Export Plug-In . SVG Version: 6.00 Build 0)  -->
<svg version="1.1" id="Layer_1" xmlns="http://www.w3.org/2000/svg" xmlns:xlink="http://www.w3.org/1999/xlink" x="0px" y="0px"
	 viewBox="0 0 500 500" style="enable-background:new 0 0 500 500;" xml:space="preserve">
<style type="text/css">
	.st0{fill:#42A5F5;}
	.st1{fill:#604225;}
	.st2{fill:#EBB494;}
	.st3{fill:#0071BC;}
</style>
<rect x="-0.5" y="-0.5" class="st0" width="500" height="500"/>
<path class="st1" d="M183.98,237.88c9.66,0.14,9.66-14.86,0-15c-10.9-0.16-17.88,7.57-20.85,16.94
	c-7.42,1.69-10.87,8.85-10.52,15.97c0.03,0.6,0.08,1.22,0.14,1.84c-4.79,1.21-8.86,3.74-10.62,8.22c-2.03,5.17-0.28,10.71,2.9,15.66
	c-2.26,2.35-3.93,5.24-4.58,8.63c-0.02,0.11-0.03,0.23-0.05,0.34c-1.94,0.7-3.77,1.79-5.38,3.32c-4.09,3.87-5.33,9.1-4.44,14.05
	c-5.45,1.91-10.11,5.31-11.65,11.49c-0.61,2.46-0.59,4.96-0.06,7.3c-1.2,1.05-2.24,2.29-3.08,3.69c-3.54,1.85-6.79,4.28-9.68,7.37
	c-2.21,2.36-2.62,5.88-1.39,8.63c-2.88,0.76-5.57,2.29-7.74,4.35c-5.76-1.78-12.13,3.2-9.95,9.18c-1.43,0.99-2.54,2.43-2.97,4.12
	c-0.2,0.77-0.33,1.56-0.41,2.35c-1.55,0.14-3.04,0.76-4.24,1.76c-1.06-0.66-2.17-1.26-3.35-1.77c-4.13-1.81-9.9-0.72-11.02,4.48
	c-0.06,0.28-0.12,0.57-0.18,0.86c-1.49,0.29-2.9,0.94-3.99,1.9c-0.62-0.17-1.26-0.24-1.87-0.17c-1.63,0.17-3.12,0.59-4.47,1.19
	c-0.02-0.11-0.04-0.22-0.07-0.33c-1.33-5.48-5.92-8.92-11.43-9.11c-3.38-0.11-5.7,1.93-6.74,4.61c-4.71-0.16-9.44,3.46-7.35,9.06
	c2.31,6.19,6.48,10.49,12.9,12.38c0.88,0.26,1.9,0.33,2.91,0.22c0.86,0.83,1.77,1.61,2.73,2.33c1.47,2.87,4.11,5.27,8.11,6.5
	c5.55,1.71,10.3,0.45,13.76-2.4c3.58,3.52,8.47,5.63,13.6,4.94c6.65-0.89,11.57-6.24,13.03-12.64c0.03-0.14,0.05-0.28,0.08-0.42
	c1.85-0.19,3.6-0.75,5.04-1.8c2.9,0.13,5.92-0.65,8.83-2.62c3.52-2.38,5.1-5.5,5.35-8.89c0.26,0,0.52,0.01,0.78,0
	c3.16-0.12,6.26-0.7,9.25-1.63c2.91,0.5,5.51-0.89,7.14-3.02c5.25-2.83,9.94-6.77,13.71-11.33c1.82-2.2,3.32-4.62,3.92-7.1
	c1.07-0.14,2.14-0.31,3.21-0.52c10.32-2.05,13.04-9.48,12.19-19.24c-0.25-2.93-0.91-5.89-2.02-8.63c3.82-3.24,6.76-8.43,6.61-13.41
	c3.84-5.35,3.61-13.52-3.29-16.63c-1.3-0.59-2.68-0.88-4.01-0.87c2.07-1.02,3.81-2.96,4.57-4.97c1.16-3.09,1.04-5.97,0.5-9.18
	c-0.2-1.2-0.74-2.18-1.48-2.97c0.11-0.4,0.18-0.8,0.23-1.22c4.41,0.23,8.89-1.74,10.86-6c0.63-1.36,0.91-2.74,0.88-4.04
	c2.08-0.87,3.89-2.36,4.96-4.41c2.12-4.08,0.04-8.38-2.09-12.02c-1.06-1.8-2.37-3.48-3.88-4.91c0.08-0.27,0.15-0.55,0.24-0.82
	C178.65,240.39,180.55,237.83,183.98,237.88z M158.72,295.21c-0.25-0.28-0.52-0.55-0.78-0.81c0.54,0.2,1.09,0.29,1.64,0.31
	C159.29,294.86,159,295.02,158.72,295.21z"/>
<path class="st1" d="M362.61,328.17c-0.38-0.25-0.77-0.47-1.16-0.69c1.4-1.52,2.5-3.43,3.15-5.73c0.4-1.43,0.61-2.81,0.67-4.15
	c5.05-5.79,6.62-14.27,0.33-20.57c-0.2-0.2-0.4-0.38-0.61-0.56c0.43-1.69,0.21-3.53-0.97-5.27c-1.17-1.71-2.54-3.05-4.03-4.05
	c1.29-2.12,2.06-4.64,2.12-7.34c0.02-0.76-0.03-1.51-0.1-2.24c4.66-7.8-0.03-19.59-9.93-22.14c-0.76-0.2-1.51-0.26-2.25-0.22
	c-0.37-1.45-1.15-2.79-2.19-3.85c-0.26-4.31-2.18-8.47-6.01-11.3c-6.73-4.98-15.31-3.75-21.71,0.74c-1.46,0.36-2.92,0.91-4.37,1.73
	c-4.09,2.32-6.16,5.89-6.53,9.69c-5.65,0.84-10.43,3.53-10.27,10.08c0.09,3.74,2.23,6.53,5.29,8.58c0.39,0.71,0.86,1.38,1.42,2.02
	c0.34,0.75,0.79,1.48,1.38,2.2c0.69,0.82,1.5,1.53,2.41,2.15c-0.55-0.24-1.1-0.48-1.66-0.72c-3.54-1.46-8.55,1.61-9.23,5.24
	c-1.7,9.16,3.19,19.24,13.61,19.21c1.4,0,2.67-0.18,3.81-0.51c2.24,2.62,4.91,4.91,7.9,6.79c1.37,0.86,2.88,1.11,4.35,0.92
	c0.73,0.58,1.6,1.01,2.62,1.24c0.82,0.18,1.62,0.28,2.4,0.31c-0.34,6.52,1.25,12.97,5.86,17.47c0.51,0.49,1.04,0.95,1.59,1.36
	c-2.22,1.51-4.18,3.46-5.71,5.8c-3.92,6.03-4.99,14.61-2.04,21.19c-2.63,3.84-4.11,9.03-5.55,12.95c-1.42,3.88-2.89,8.06-2.74,12.17
	c-0.14,1.91,0.06,3.86,0.58,5.63c1.5,5.08,5.19,8.74,9.59,10.49c4.98,3.71,11.59,2.98,17.24,0.86c4.75-1.78,5.89-6.7,4.56-10.42
	c3.15-0.17,6.54-2.25,7.02-5.46c0.86-5.8,1.27-11.79-2.57-16.69c-0.55-0.7-1.16-1.33-1.81-1.9c2.92-1.5,5.23-3.85,6.22-7.17
	c0.58-1.96,0.63-3.83,0.28-5.6c0.21-0.31,0.42-0.61,0.61-0.93c2.84-4.88,2.01-9.06-0.64-12.11
	C366.56,334.22,365.82,330.34,362.61,328.17z"/>
<g>
	<path class="st2" d="M249.59,94.2c-15.26,1.48-32.7,2.48-50.33,11.77c-6.71,3.54-35.33,16.94-39.83,53.63
		c-2.55,20.83-5.09,46.2-4.26,71.57c0.25,7.78-0.22,46.1,1.96,65.67c2.26,20.13,7.93,45.84,11.28,52.24
		c2.12,4.04,5.35,9.95,11.38,13.55c10.64,6.34,45.47,16.15,75.4,8.61c21.11-5.32,42.63-9.9,56.9-22.92
		c15.42-14.07,25.43-42.65,33.39-77.44c4.39-19.18,11.48-56.45,10.24-85.12c-0.89-20.61-8.44-44.89-22.51-63.55
		c-9.5-12.6-21.94-21.58-37.12-25.93C281.27,92.05,264.87,92.71,249.59,94.2z"/>
	<path class="st3" d="M183.27,410.28c0,0-107.41-18.75-133.09,89.72h386.43c0,0-3.5-81.69-177.46-91.06
		C259.16,408.94,200.78,411.62,183.27,410.28z"/>
	<path class="st2" d="M207.79,338.69c0.13,11.29-0.02,22.53-0.59,34.01c-0.78,15.85-0.65,32.68-4.12,48.23
		c-3.54,15.87-15.29,40.04-4.68,47.91s32.26,10.55,59.63,4.12s37.37-18.54,30.99-37.66s-29.18-21.63-1.66-146.11
		c4.82-21.8,9.25-45.63,5.43-67.96c-1.73-10.12-5.78-20.98-15.14-26.35c-16.74-9.61-41.24,1.75-51.38,16.27
		c-20.41,29.21-20.33,71.57-19.04,105.47C207.51,324.05,207.71,331.38,207.79,338.69z"/>
	<path class="st2" d="M334.04,224.89c11.09-9.77,27.8-17.71,39.53-8.58c10.51,8.17,18.68,23.35-11.67,44.36
		c-9.64,6.67-29.21,19.14-41.7,13.48c-16.18-7.33-0.61-31.64,5.77-40.51C327.98,230.82,330.77,227.77,334.04,224.89z"/>
	<path class="st1" d="M372.89,164.02c-0.9-13.78-1.52-29.37-8.05-41.95c-0.05-2.48-1.1-5.03-3.09-6.45
		c-8.38-5.97-11.93-14.59-13.38-24.45c-1.47-9.98-6.02-17.02-15.42-21.03c-6.85-2.92-16.39-3.71-20.75-10.44
		c-4.66-7.2-3.2-17.77-2.04-25.77c0.83-5.7-4.55-11.32-10.29-7.91c-12.61,7.48-19.85,21.1-19.6,35.31
		c-26.71,0.58-54.12,2.15-79.31,11.45c-13.4,4.95-25.72,11.98-36.35,21.57c-6.08,5.49-10.58,8.81-19.05,9.06
		c-9.46,0.28-18.99-0.32-28.35-1.68c-3.39-0.49-8,0.8-8.62,4.89c-1.56,10.3,3.3,20.03,11.17,25.41c0.9,2.78,3.98,5.11,6.77,4.91
		c1.27-0.09,1.5,0.45,1.22,1.76c-0.46,2.18-4.32,3.18-5.97,3.44c-5.97,0.93-12.53-0.83-18.43-1.7c-4.23-0.62-9.1,1.74-8.87,6.75
		c0.86,18.84,16.13,32.7,34.27,35.23c14.45,2.01,27.9-2.26,40.38-8.78c2.25,7.25,11.29,8.46,18.1,6.6
		c19.32-5.3,34.77-19.25,53.49-26.02c4.56-1.65,9.22-3.04,13.91-4.29c2.61-0.7,5.24-1.34,7.86-1.97c-1.81,2.99-2.47,6.69-1.23,10.03
		c3.77,10.14,17.18,6.06,24.97,4.33c10.16-2.27,20.01-5.83,29.37-10.38c3.11-1.51,2.72-3.61,3.75,0.2c0.75,2.77,0.78,5.8,0.95,8.65
		c0.36,6.34,0.28,12.69,1.02,19c1.06,9.14,3.7,17.96,9.42,25.07c-0.04,0.34-0.06,0.69-0.05,1.06c0.1,5.46,0.08,10.91-0.09,16.36
		c-1.84,0.74-3.41,2.26-4.14,4.72c-1.81,6.1-1.06,12.88,2.5,17.95c-0.05,1.16-0.09,2.33-0.08,3.48c0.02,2.4,0.43,4.56,1.13,6.49
		c-0.94,1.31-1.52,2.93-1.72,4.57c-1.16,9.72,4.48,21.69,11.68,28.22c4.64,4.2,12.13,2.33,14.04-3.73c0.72-2.28,0.96-4.88,1.01-7.53
		c2.69-1.51,4.54-4.24,4.63-7.77c2.2-0.26,4.29-1.54,5.77-3.6c2.59-3.61,3.08-7.43,2.17-10.94c1.92-5.61,2.88-11.76,3.61-16.13
		c0.81-4.85,2.62-11.54,0.56-16.45c1.18-2.99,1.17-6.43,1.35-9.64c0.3-5.32,0.49-10.64,0.57-15.97
		C373.85,185.31,373.58,174.65,372.89,164.02z M261.8,111.97c-1.08,0.12-2.15,0.24-3.23,0.35c1.81-0.25,3.63-0.48,5.44-0.7
		c0,0.02,0,0.04,0,0.07C263.28,111.78,262.54,111.88,261.8,111.97z"/>
</g>
<path class="st1" d="M352.79,387.29c-8.56-1.8-16.28-6.68-25.3-3.93c-8,2.44-12.83,10.54-10.76,18.66c0,0.02,0.01,0.03,0.02,0.05
	c-0.22,0.1-0.44,0.2-0.66,0.3c-1.63,0.77-2.66,1.89-3.21,3.16c-4.71,0.44-9.12,3.07-11.66,7.39c-1.09,1.85-1.23,4.01-0.65,5.94
	c-1.73,1.27-3.01,3.13-3.55,5.78c-0.26,1.26-0.27,2.45-0.1,3.57c-3.66-0.06-7.36,0.93-10.58,2.68c-2.53,1.38-4.22,4.94-3.69,7.94
	c-0.73,0.02-1.46,0.06-2.18,0.12c-6.83,0.65-11.41,7.58-8.44,13.92c-0.21,0.1-0.43,0.2-0.64,0.31c-8.5,4.58-0.94,17.54,7.57,12.95
	c2.04-1.1,5.12-0.35,7.36-0.57c3.38-0.32,6.62-1.29,9.34-3.39c2.77-2.15,4.34-5.11,4.7-8.24c2.19-1.46,4.08-3.06,5.45-4.61
	c0.34-0.38,0.66-0.78,0.97-1.19c6.28-2.19,11.18-7.18,14.99-12.6c0.18-0.25,0.33-0.51,0.5-0.77c3.02-2.19,5.37-5.25,6.41-9
	c0.12-0.43,0.22-0.86,0.3-1.29c5.23-1.11,10.8-3.32,12.55-8.72c2.71-1.1,5.11-2.62,6.88-4.64c1.92-2.19,2.84-4.92,2.77-7.64
	c1.73-1.05,3.38-2.26,4.92-3.68C360.12,396.14,358.24,388.44,352.79,387.29z"/>
</svg>
