<?xml version="1.0" encoding="utf-8"?>
<!-- Generator: Adobe Illustrator 24.0.3, SVG Export Plug-In . SVG Version: 6.00 Build 0)  -->
<svg version="1.1" id="Layer_1" xmlns="http://www.w3.org/2000/svg" xmlns:xlink="http://www.w3.org/1999/xlink" x="0px" y="0px"
	 viewBox="0 0 500 500" style="enable-background:new 0 0 500 500;" xml:space="preserve">
<style type="text/css">
	.st0{fill:#42A5F5;}
	.st1{fill:#EBB494;}
	.st2{fill:#0071BC;}
	.st3{fill:#604225;}
</style>
<rect x="-0.5" y="-0.5" class="st0" width="500" height="500"/>
<g>
	<path class="st1" d="M249.59,94.2c-15.26,1.48-32.7,2.48-50.33,11.77c-6.71,3.54-35.33,16.94-39.83,53.63
		c-2.55,20.83-5.09,46.2-4.26,71.57c0.25,7.78-0.22,46.1,1.96,65.67c2.26,20.13,7.93,45.84,11.28,52.24
		c2.12,4.04,5.35,9.95,11.38,13.55c10.64,6.34,45.47,16.15,75.4,8.61c21.11-5.32,42.63-9.9,56.9-22.92
		c15.42-14.07,25.43-42.65,33.39-77.44c4.39-19.18,11.48-56.45,10.24-85.12c-0.89-20.61-8.44-44.89-22.51-63.55
		c-9.5-12.6-21.94-21.58-37.12-25.93C281.27,92.05,264.87,92.71,249.59,94.2z"/>
	<path class="st2" d="M183.27,410.28c0,0-107.41-18.75-133.09,89.72h386.43c0,0-3.5-81.69-177.46-91.06
		C259.16,408.94,200.78,411.62,183.27,410.28z"/>
	<path class="st1" d="M207.79,338.69c0.13,11.29-0.02,22.53-0.59,34.01c-0.78,15.85-0.65,32.68-4.12,48.23
		c-3.54,15.87-15.29,40.04-4.68,47.91s32.26,10.55,59.63,4.12s37.37-18.54,30.99-37.66s-29.18-21.63-1.66-146.11
		c4.82-21.8,9.25-45.63,5.43-67.96c-1.73-10.12-5.78-20.98-15.14-26.35c-16.74-9.61-41.24,1.75-51.38,16.27
		c-20.41,29.21-20.33,71.57-19.04,105.47C207.51,324.05,207.71,331.38,207.79,338.69z"/>
	<path class="st1" d="M334.04,224.89c11.09-9.77,27.8-17.71,39.53-8.58c10.51,8.17,18.68,23.35-11.67,44.36
		c-9.64,6.67-29.21,19.14-41.7,13.48c-16.18-7.33-0.61-31.64,5.77-40.51C327.98,230.82,330.77,227.77,334.04,224.89z"/>
	<path class="st3" d="M372.89,164.02c-0.9-13.78-1.52-29.37-8.05-41.95c-0.05-2.48-1.1-5.03-3.09-6.45
		c-8.38-5.97-11.93-14.59-13.38-24.45c-1.47-9.98-6.02-17.02-15.42-21.03c-6.85-2.92-16.39-3.71-20.75-10.44
		c-4.66-7.2-3.2-17.77-2.04-25.77c0.83-5.7-4.55-11.32-10.29-7.91c-12.61,7.48-19.85,21.1-19.6,35.31
		c-26.71,0.58-54.12,2.15-79.31,11.45c-13.4,4.95-25.72,11.98-36.35,21.57c-6.08,5.49-10.58,8.81-19.05,9.06
		c-9.46,0.28-18.99-0.32-28.35-1.68c-3.39-0.49-8,0.8-8.62,4.89c-1.56,10.3,3.3,20.03,11.17,25.41c0.9,2.78,3.98,5.11,6.77,4.91
		c1.27-0.09,1.5,0.45,1.22,1.76c-0.46,2.18-4.32,3.18-5.97,3.44c-5.97,0.93-12.53-0.83-18.43-1.7c-4.23-0.62-9.1,1.74-8.87,6.75
		c0.86,18.84,16.13,32.7,34.27,35.23c14.45,2.01,27.9-2.26,40.38-8.78c2.25,7.25,11.29,8.46,18.1,6.6
		c19.32-5.3,34.77-19.25,53.49-26.02c4.56-1.65,9.22-3.04,13.91-4.29c2.61-0.7,5.24-1.34,7.86-1.97c-1.81,2.99-2.47,6.69-1.23,10.03
		c3.77,10.14,17.18,6.06,24.97,4.33c10.16-2.27,20.01-5.83,29.37-10.38c3.11-1.51,2.72-3.61,3.75,0.2c0.75,2.77,0.78,5.8,0.95,8.65
		c0.36,6.34,0.28,12.69,1.02,19c1.17,10.09,4.25,19.8,11.31,27.24c0.16,1.24,0.64,2.5,1.56,3.67c-0.92-1.16-0.08,0.82-0.02,1.49
		c0.1,1.1,0.17,2.22,0.38,3.31c0.52,2.69,1.56,5.07,3.5,7.07c1.44,1.49,3.14,2.56,4.95,3.15c0.56,2.51,0.84,5.04,2.83,7.3
		c2.58,2.92,6.32,4.41,10.21,3.44c3.67-0.92,5.8-3.53,7.7-6.61c1.64-2.65,4.09-2.79,6.2-5.22c3.05-3.5,2.93-8.32,3.18-12.7
		c0.3-5.32,0.49-10.64,0.57-15.97C373.85,185.31,373.58,174.65,372.89,164.02z M261.8,111.97c-1.08,0.12-2.15,0.24-3.23,0.35
		c1.81-0.25,3.63-0.48,5.44-0.7c0,0.02,0,0.04,0,0.07C263.28,111.78,262.54,111.88,261.8,111.97z"/>
</g>
</svg>
