<?xml version="1.0" encoding="utf-8"?>
<!-- Generator: Adobe Illustrator 24.0.3, SVG Export Plug-In . SVG Version: 6.00 Build 0)  -->
<svg version="1.1" id="Layer_1" xmlns="http://www.w3.org/2000/svg" xmlns:xlink="http://www.w3.org/1999/xlink" x="0px" y="0px"
	 viewBox="0 0 500 500" style="enable-background:new 0 0 500 500;" xml:space="preserve">
<style type="text/css">
	.st0{fill:#EC407A;}
	.st1{fill:#9B6239;}
	.st2{fill:#A34363;}
	.st3{fill:#DEAE98;}
	.st4{fill:#736357;}
</style>
<rect x="-0.5" y="-0.5" class="st0" width="500" height="500"/>
<path class="st1" d="M338.94,261.94c0,0,3.06,13.06,1.06,57.06s-15,68,0,104s-193,22-193,22s33-39,21-110s-40-137-36-152
	S337.87,204.87,338.94,261.94z"/>
<g>
	<path class="st1" d="M338.94,261.94c-0.5-5.08-3.99-9.45-9.45-9.45c-4.48,0-9.41,3.91-9.47,8.68c-0.49,0.48-0.96,0.99-1.38,1.55
		c-11.44,14.91-20.06,31.54-26.07,49.33c-2.57,7.61,5.12,12.51,11.62,11.62c5.69-0.78,10.25-3.83,13.84-7.96
		c4.14,6.14,14.73,3.58,16.61-3.4C339.05,295.88,340.6,278.87,338.94,261.94z"/>
	<path class="st2" d="M185.62,403.18c0,0-115.9-20.23-143.62,96.82h417c0,0-3.78-88.15-191.49-98.27
		C267.51,401.73,204.52,404.62,185.62,403.18z"/>
	<path class="st3" d="M219.44,320.36c-1.65,12.07-3.6,24.05-6.02,36.21c-3.35,16.79-5.88,34.77-12.05,50.83
		c-6.3,16.38-22.68,40.31-12.6,50.39c10.08,10.08,32.76,16.38,62.99,13.86c30.24-2.52,42.83-13.86,39.05-35.27
		c-3.78-21.42-27.72-27.72,21.42-156.22c8.6-22.5,17.12-47.24,16.58-71.68c-0.24-11.08-2.84-23.31-11.98-30.53
		c-16.34-12.91-44.29-4.68-57.42,9.21c-26.42,27.94-33.06,73.16-37.06,109.55C221.47,304.69,220.52,312.55,219.44,320.36z"/>
	<path class="st3" d="M212.75,57.23c-34.61,6.5-72.65,14.72-81.03,64.96c-3.03,6.77-4.4,36.7-2.49,70.14
		c0.59,10.32,0.39,54.33,2.73,77.67c2.61,25.58,8.65,56.16,11.83,62.17c2.78,5.29,6.31,12.78,12.79,17.55
		c3.65,2.68,10.01,6.05,19.2,7.65c14.15,2.47,46.06,4.37,74.93-4.02c23.99-6.97,46.68-14.57,55.82-29.7
		c10.19-16.87,18.42-47.84,22.45-86.75c2.21-21.28,11.28-89.01-3.15-126.14c-9.29-23.91-25.61-38.98-45.13-47.41
		C259.51,54.2,234.93,53.07,212.75,57.23z"/>
	<path class="st1" d="M249.87,132.76"/>
	<path class="st1" d="M229.7,112.67c-1.22-0.11-2.43-0.17-3.64-0.21c-0.97-3.02-3.25-5.68-6.39-6.15
		c-29.41-4.4-59.07-2.59-87.56,6.11c-2.16,0.66-3.78,2.01-4.87,3.69c-12.71,5.06-16.84,20.36-18.43,33.93
		c-2.1,17.93-0.8,36.05,3.09,53.65c2.27,10.26,19.35,8.2,18.56-2.51c-0.18-2.42,0.25-4.82,0.99-7.19
		c5.16,4.78,15.51,1.15,16.01-7.16c0.6-9.99,4-19.72,9.58-27.98c0.95,4.48,2.55,8.82,5.13,12.89c4.02,6.33,15.69,6.18,17.27-2.26
		c4.59-24.42,25.51-40.15,50.26-37.91C241.81,132.67,241.74,113.76,229.7,112.67z"/>
	<path class="st4" d="M345.57,138.13c-3.2-26.14-14.65-50.67-34.97-67.89c-39.25-33.28-97.92-34.15-143.09-13.27
		c-24.44,11.3-50.54,31.43-58.09,58.41c-0.8,2.85-0.47,5.35,0.57,7.39c-0.52,2.69-0.14,5.59,1.14,7.78
		c3.18,5.44,9.35,6.2,14.65,3.84c37.53-16.7,84.86-12.82,121.74,3.93c17.8,8.08,34.49,20.01,45.71,36.24
		c10.92,15.81,13.6,36.24,27.24,50.18c4.48,4.58,13.87,4.13,16.82-2.17c6.1-13.01,6.64-28.7,8.05-42.85
		C346.71,165.9,347.26,151.96,345.57,138.13z"/>
	<path class="st3" d="M312.86,218.43c0,0,25.2-18.9,37.79-3.78c12.6,15.12-16.38,70.55-38.42,65.51
		C290.18,275.12,309.08,233.55,312.86,218.43z"/>
</g>
</svg>
