<?xml version="1.0" encoding="utf-8"?>
<!-- Generator: Adobe Illustrator 24.0.3, SVG Export Plug-In . SVG Version: 6.00 Build 0)  -->
<svg version="1.1" id="Layer_1" xmlns="http://www.w3.org/2000/svg" xmlns:xlink="http://www.w3.org/1999/xlink" x="0px" y="0px"
	 viewBox="0 0 500 500" style="enable-background:new 0 0 500 500;" xml:space="preserve">
<style type="text/css">
	.st0{fill:#E53935;}
	.st1{fill:#F2D22E;}
	.st2{fill:#752E31;}
	.st3{fill:#F0C5A1;}
</style>
<rect class="st0" width="500" height="500"/>
<path class="st1" d="M183.43,331.82c-6.92-7.97-14.83-2.22-22.8,0.19c-1.65,0.5-3.32,0.9-5.01,1.22c-0.19-0.31-0.39-0.61-0.63-0.91
	c-5.23-6.71-10.45-13.43-15.68-20.14c-0.78-7.54-0.37-14.83-5.77-20.76c5.57-16.19,7.65-33.46,5.49-50.55
	c-0.51-4.02-3.08-7.5-7.5-7.5c-3.66,0-8.01,3.45-7.5,7.5c2.27,17.91-0.06,36.23-7.31,52.82c-3.48,7.97-8.01,15.68-13.5,22.44
	c-5.71,7.04-12.63,14.76-21.61,17.32c-9.27,2.65-5.37,16.93,3.99,14.46c2.42-0.64,4.84-1.28,7.27-1.92
	c-1.69,1.82-3.39,3.63-5.12,5.41c-5.05,5.22-0.04,14.82,7.3,12.54c4.15-1.29,8.13-2.86,11.97-4.69c1.57,3.07,5.21,5.33,8.88,4.5
	c2.72-0.62,5.4-1.38,8.03-2.28c1.65,2.9,5.14,4.79,8.56,3.69c5.3-1.71,10.36-3.91,15.16-6.64c2.81,2.16,6.42,3.39,9.94,3.41
	c5.32,0.02,9.72-2.59,13.42-6.05c2.71,1,6.09,0.22,8.33-1.64C185.89,348.78,189.75,339.1,183.43,331.82z"/>
<g>
	<path class="st2" d="M193.33,407.54c0,0-110.69-19.32-137.15,92.46h398.23c0,0-3.61-84.18-182.87-93.84
		C271.54,406.16,211.38,408.92,193.33,407.54z"/>
	<path class="st3" d="M218.53,333.77c0.17,23-0.66,46.01-2.2,68.97c-0.58,8.67-5.98,11.43-12.62,15.51
		c-13.61,8.36-16.26,29.31-5.27,40.87c5.42,5.7,12.84,9.05,20.32,11.47c14.22,4.6,29.26,6.28,44.21,6.3
		c15.03,0.02,29.95-2.96,41.28-13.58c3.82-3.58,6.77-8.36,7.08-13.58c0.71-12.19-12.2-22.29-17.14-32.65
		c-9.53-20.01-8.82-43.24-6.61-64.8c2.4-23.49,7.94-46.5,13.03-69.51c4.97-22.47,9.53-47.02,5.6-70.04
		c-1.78-10.43-5.95-21.62-15.6-27.16c-17.25-9.9-42.49,1.8-52.95,16.76c-21.03,30.1-20.95,73.75-19.62,108.69
		C218.3,318.6,218.47,326.18,218.53,333.77z"/>
	<path class="st3" d="M122.95,158.92c0,0-2.41,63.76,0,90.83s10.83,67.98,13.23,72.79c2.41,4.81,6.02,14.44,15.64,18.05
		s64.97,20.45,104.67-3.61s63.76-44.51,68.58-105.87c0,0,16.84-86.62-6.02-130.54c-22.85-43.91-81.9-49.87-125.77-37.26
		C149.42,75.91,124.16,101.17,122.95,158.92z"/>
	<path class="st3" d="M307.63,205.24c0,0,19.25-6.02,27.67,0s30.08,50.53-34.89,77S307.63,205.24,307.63,205.24z"/>
</g>
<path class="st1" d="M414.3,235.51c1.99-1.77,3.14-4.48,2.29-7.43c-6.34-22.02-18.47-41.16-32.09-59.25
	c1.1,0.13,2.21,0.25,3.32,0.34c6.08,0.46,8.8-6.61,6.48-11.29c-8.97-18.07-24.03-31.25-40.42-42.49
	c9.74-1.76,19.17-5.15,27.91-10.04c4.92-2.75,4.82-10.17,0-12.95c-43.7-25.2-94.96-28.85-144.2-31.8c-0.65-0.04-1.25-0.01-1.81,0.09
	c-0.9-1.31-2.23-2.33-3.99-2.77c-12.77-3.17-25.35,1.06-37.59,4.56c-12.03,3.44-23.92,7.3-35.37,12.38
	c-20.27,8.99-39.6,23.39-49.75,43.6c-5.32,10.59-8.05,22.44-7.43,34.31c0.11,2.15,0.31,4.31,0.61,6.45
	c-0.49,10.34,3.92,20.67,8.21,29.96c1.13,2.44,3.11,3.51,5.25,3.63c4.03,5.6,13.21,4.36,13.72-3.8c0.15-2.3,0.29-4.61,0.44-6.91
	c3.97-3.89,5.02-9.06,6.17-14.36c2.11-9.71,7.18-18.08,14.61-24.66c3.65-3.23,8.03-5.92,12.56-7.72c3.94-1.56,8.53-1.97,12.11-4.12
	c2.52,2.24,6.79,2.37,9.74,0.38c2.29-1.05,4.03-3.21,4.05-6.5c0.08-19.4,11.24-37.26,27.6-46.79c-10.52,9.44-18.3,21.85-21.59,35.91
	c-1.32,5.62-2.73,12.22,1.48,16.96c4.11,4.64,10.38,4.43,16.03,4.34c12.35-0.21,24.76,0.68,36.67,4.14
	c12.02,3.49,22.51,9.8,30.88,19.15c8.51,9.51,14.92,21.1,20.56,32.48c11.3,22.8,18.58,48.02,20.52,73.42
	c2.13,27.89-1.93,56.21-13.96,81.61c-3.48,7.34,5.49,15.54,11.78,9.09c3.75-3.84,7.21-7.88,10.41-12.09
	c-0.92,5.85-2.08,11.67-3.52,17.46c-1.24,5,2.06,8.49,5.96,9.13c-0.07,0.63-0.14,1.25-0.2,1.88c-0.69,6.35,6.45,8.47,11.16,6.32
	c-0.08,0.66-0.16,1.32-0.25,1.97c-0.4,3.23,2.62,6.41,5.51,7.23c3.39,0.97,6.53-0.74,8.47-3.45c5.17-7.24,9.94-14.73,14.32-22.45
	c2.24,4.26,4.49,8.52,6.73,12.77c3.15,5.99,11.82,4.05,13.71-1.79c1.9-5.87,3.8-11.74,5.7-17.62c1.9,3.93,4.06,7.73,6.49,11.38
	c3.76,5.63,11.41,4.29,13.71-1.79c3.6-9.52,4.32-19.77,4.35-29.87c0.01-2.1,0-4.19-0.01-6.29c4.34,1.01,9.89-1.76,9.83-7.15
	C431.14,291.67,425.26,262.66,414.3,235.51z"/>
</svg>
