<?xml version="1.0" encoding="utf-8"?>
<!-- Generator: Adobe Illustrator 24.0.3, SVG Export Plug-In . SVG Version: 6.00 Build 0)  -->
<svg version="1.1" id="Layer_1" xmlns="http://www.w3.org/2000/svg" xmlns:xlink="http://www.w3.org/1999/xlink" x="0px" y="0px"
	 viewBox="0 0 500 500" style="enable-background:new 0 0 500 500;" xml:space="preserve">
<style type="text/css">
	.st0{fill:#66BB6A;}
	.st1{fill:#23190A;}
	.st2{fill:#24732F;}
	.st3{fill:#9B6239;}
	.st4{fill:#5F3E22;}
</style>
<rect x="-0.5" y="-0.5" class="st0" width="500" height="500"/>
<g>
	<path class="st1" d="M448.59,265.35c1.65-5.98,0.14-13.8-4.76-18c-4.89-4.18-11.14-8.12-17.84-10.96
		c-4.07-18.16-12.2-35.57-23.52-50.29c-0.65-0.85-1.32-1.7-2-2.54c8.27-9.6,10.33-23.19,5.03-36.35
		c-2.35-5.84-5.35-11.11-8.85-16.14c4.56-7.91,2.25-21.07-6.75-25.09c-18.22-8.14-38.19-11.99-57.86-10.53
		c0-8.82-0.34-17.65-1.07-26.47c-0.91-10.94-7.82-17.18-18.5-18.5c-13.88-1.72-27.81-2.03-41.75-0.91
		c-9.62,0.77-18.97,7.96-18.5,18.5c0.42,9.36,8.17,19.33,18.5,18.5c8.07-0.64,16.13-0.8,24.19-0.49c0.19,6.53,0.19,13.07-0.02,19.59
		c-6.4,4.42-9.5,11.26-7.76,19.99c2.34,11.73,13.44,19.19,24.88,19.54c8.36,0.26,14.33-5.25,17.02-12.29
		c0.25-0.05,0.51-0.1,0.75-0.14c0.75-0.09,2.67-0.35,2.97-0.37c2.17-0.19,4.35-0.28,6.54-0.33c0.22,5.53,1.56,11.12,3.44,16.06
		c0.82,2.16,1.78,4.09,2.96,5.78c-1.74,0.24-3.5,0.58-5.29,1.06c-7.11,1.89-12.29,8.24-13.25,15.38
		c-0.63,4.72,0.69,10.21,3.75,14.21c-1.39,1.38-2.66,2.9-3.79,4.56c-2.19,3.2-3.58,6.81-4.92,10.44c-0.32,0.88-0.6,1.78-0.9,2.66
		c-0.2,0.63-0.43,1.26-0.64,1.88c-0.03,0.06-0.06,0.11-0.09,0.18c-4.38,8.62-2.55,20.46,6.64,25.31c3.87,2.04,8.52,2.74,12.88,2.02
		c0.09,4.25,0.99,8.38,2.6,12.21c-2.44,1.03-4.7,2.52-6.68,4.5c-1.12,1.12-2.16,2.37-3.11,3.7c-4.86,1.2-9.55,3.62-13.73,6.62
		c-7.98,5.74-15.93,11.53-23.89,17.29c-2.5,1.81-5.06,3.58-7.63,5.36c-2.25,0.36-4.5,1.08-6.75,2.28
		c-7.07,3.78-11.22,10.78-15.91,17.02c-0.99,1.31-1.98,2.63-2.96,3.94c-2.71-1.98-5.37-4.01-8-5.8
		c-5.87-3.99-11.67-8.67-18.03-11.85c-8.32-4.15-17.33-6.14-26.46-3.33c-1.35,0.42-2.68,0.95-3.98,1.58
		c-10.7-5.35-22.57-7.92-34.65-4.34c-6.04,1.79-11.85,5.13-16.67,9.53c-0.22-0.03-0.42-0.09-0.64-0.12
		c-3.9-0.52-8.11-0.11-12.07,1.15c-0.18-0.1-0.36-0.21-0.55-0.3c-6.36-3.11-13.78-4.33-20.49-2.06c-0.31-0.28-0.64-0.55-0.94-0.83
		c-0.19-0.18-0.37-0.36-0.55-0.55c0.21,0.26-0.23-0.09-0.62-0.62c-0.15-0.15-0.3-0.31-0.46-0.46c0.15,0.14,0.28,0.27,0.4,0.38
		c-0.09-0.13-0.18-0.27-0.25-0.41c-0.06-0.12-0.1-0.21-0.16-0.31c-0.24-0.81-0.47-1.62-0.67-2.44c0.42-1.91,0.77-3.85,1.03-5.79
		c3.84-4.85,7.17-10.34,10.54-15.35c7.78-11.58,15.57-23.16,23.35-34.73c5.73-8.53,1.92-18.3-5.17-23.86
		c1.78-5.25,3.43-10.54,4.92-15.88c1.23-4.41,2.3-8.85,3.52-13.26c0.49-1.75,0.99-3.5,1.54-5.24c0.04-0.13,0.17-0.45,0.33-0.87
		c12.09,3.91,24.31-3.38,25.06-17.07c0.31-5.69-0.45-11.62-2.36-17.02c4.6-15.88,3.44-32.85-3.82-49.25
		c-3.32-7.5-13.59-10.32-20.89-8.5c-17.96,4.46-24.36,21.95-31.13,37.03c-5.54,12.34-12.18,24.88-12.36,37.82
		c-3.65,4.13-6.41,9.13-8.56,14.79c-1.25,3.27-2.14,6.66-3.06,10.03c-0.52,1.91-1.04,3.82-1.65,5.71c-0.28,0.86-0.61,1.71-0.92,2.57
		c-0.31,0.67-0.63,1.33-0.96,1.99c-4.7,9.5-10.45,18.3-14.52,28.14c-4.32,10.44-5.62,21.81-5.18,33.05
		c0.2,5.02,0.54,10.05,0.96,15.09c-0.82,1.63-1.5,3.36-2.03,5.19c-1.41,4.84-0.6,9.7,1.68,13.73c-0.03,0.01-0.06,0.03-0.08,0.04
		c-0.06,0.02-0.12,0.04-0.18,0.07c-0.79-0.08-1.59-0.15-2.38-0.2c-9.68-0.65-18.93,8.97-18.5,18.5c0.22,4.82,1.8,8.71,4.37,11.67
		c0.01,1.45,0.2,2.92,0.57,4.37c3.31,12.94,15.7,18.16,26.74,15.93c0.38,0.2,0.77,0.4,1.15,0.62c0.57,0.34,2.31,1.58,2.45,1.6
		c0.63,0.56,1.25,1.13,1.85,1.73c0.13,0.13,0.58,0.6,1.02,1.06c0.28,0.53,2.01,2.88,2.24,3.27c4.5,7.63,13.86,10.83,22.04,7.96
		c2.27,3.53,4.72,6.95,7.56,10.15c8.93,10.08,21.51,17.24,35.06,18.13c3.46,0.23,7.12-0.16,10.49-0.92c0.07,0.04,0.13,0.09,0.2,0.13
		c3.25,2.01,6.7,3.19,10.42,3.48c5.18,2.83,10.9,4.67,16.76,5.45c2.79,0.38,5.46,0.55,8.27,0.53c1.06-0.01,2.38,0.18,3.41-0.02
		c0.11-0.02,0.19-0.04,0.27-0.06c4.7,1.62,9.4,3.68,14.29,4.66c21.9,4.39,45.04-2.08,66.68-5.58c4.44-0.72,8.32-3.98,10.81-8.12
		c4.23,3.48,8.59,6.83,13.08,10.02c5.26,3.74,13.36,3.11,18.67,0c4.86-2.84,7.59-7.29,8.68-12.46c3.87,1.58,7.96,2.62,12.25,2.92
		c11.21,0.78,22.97-4.62,26.83-15.66c5.78-2.75,10.99-6.74,15.03-11.97c3.08-3.99,5.26-8.46,6.5-13.12
		c5.06,1.67,10.51,2.21,15.46,0.71c7.52-2.28,11.86-7.71,14.2-14.25c1.33-0.59,2.63-1.35,3.89-2.32c5.92-4.58,8.45-12.14,6.63-19.45
		c-1.95-7.79-4.81-15.51-8.51-22.73C441.92,275.96,446.78,271.95,448.59,265.35z"/>
	<path class="st1" d="M119,287.61c-0.09-0.11-0.3-0.33-0.68-0.69c0.02,0.03,0.04,0.05,0.06,0.08
		C118.59,287.2,118.8,287.4,119,287.61z"/>
</g>
<g>
	<path class="st2" d="M184.71,403.24c0,0-115.83-20.22-143.53,96.76h416.73c0,0-3.78-88.09-191.37-98.2
		C266.54,401.8,203.59,404.69,184.71,403.24z"/>
	<path class="st3" d="M218.51,320.48c-1.65,12.07-3.6,24.03-6.02,36.19c-3.34,16.78-5.88,34.75-12.05,50.79
		c-6.29,16.37-22.66,40.29-12.59,50.36c10.07,10.07,32.73,16.37,62.95,13.85s42.81-13.85,39.03-35.25s-27.7-27.7,21.4-156.12
		c8.6-22.49,17.11-47.21,16.57-71.63c-0.24-11.07-2.83-23.29-11.97-30.51c-16.33-12.9-44.26-4.68-57.39,9.2
		c-26.4,27.92-33.03,73.12-37.04,109.48C220.53,304.82,219.58,312.67,218.51,320.48z"/>
	<path class="st3" d="M203.59,54.32c0,0-55.4,5.04-69.24,66.73s-33.99,151.08-22.66,187.59s88.13,65.47,130.94,46.58
		c42.81-18.88,94.42-138.49,100.72-183.81C349.63,126.08,329.49,35.43,203.59,54.32z"/>
	<path class="st4" d="M296.55,178.33c0,0,1.47,31.47-1.05,41.55c-2.52,10.07-17.35,47.2-17.35,47.2l48.83-27.06
		c0,0,7.55-28.96,9.44-32.1S316.48,134.26,296.55,178.33z"/>
	<path class="st3" d="M315.64,229.32c0,0,33.99-23.92,46.58,0s-36.51,45.32-57.91,52.88C282.91,289.75,271.58,251.98,315.64,229.32z
		"/>
	<path class="st1" d="M149.45,87.68c0,0,23.92-10.07,45.32-2.52s90.65,35.25,99.46,88.13c0,0,0,7.55,5.04,8.81
		s36.51,18.88,35.25,30.22s30.22-61.69-5.04-115.83s-104.5-60.43-134.71-52.88S130.57,76.35,149.45,87.68z"/>
</g>
</svg>
