<?xml version="1.0" encoding="utf-8"?>
<!-- Generator: Adobe Illustrator 24.0.3, SVG Export Plug-In . SVG Version: 6.00 Build 0)  -->
<svg version="1.1" id="Layer_1" xmlns="http://www.w3.org/2000/svg" xmlns:xlink="http://www.w3.org/1999/xlink" x="0px" y="0px"
	 viewBox="0 0 500 500" style="enable-background:new 0 0 500 500;" xml:space="preserve">
<style type="text/css">
	.st0{fill:#FFA726;}
	.st1{fill:#534741;}
	.st2{fill:#D1891F;}
	.st3{fill:#F0C5A1;}
</style>
<rect x="-0.5" y="-0.5" class="st0" width="500" height="500"/>
<path class="st1" d="M358.56,114.45c0,0,7.44,98.55,33.44,135.55s23,116-11,127c0,0-187-33-245-11c0,0-36-50-29-93s19-139,16-159
	S266.12-26.1,358.56,114.45z"/>
<g>
	<path class="st1" d="M355.26,191.82c-0.89-1.23-2.03-2.28-3.49-3.11c-0.17-0.09-0.33-0.16-0.5-0.25c-0.86-0.5-1.77-0.88-2.69-1.13
		c-16.93-5.22-26.81,27.05-28.38,38.61c-0.31,2.29-0.03,4.4,0.78,6.17c-0.34,1.31-0.66,2.57-0.96,3.76
		c-3.09,12.16-6.46,24.63-16.01,33.38c-2.89,2.65-3.26,5.87-2.18,8.62c-2.22,2.46-4.59,4.82-7.16,7.05
		c-8.48,7.38,3.9,19.67,12.33,12.33c6.35-5.53,11.9-11.87,16.54-18.84c2.55,0.33,5.15-0.37,6.87-2.52
		c6.38-7.98,12.72-15.07,16.57-23.75c1.09-0.95,1.98-2.23,2.55-3.89c2.26-6.57,4.04-13.23,5.37-20c2.72-1.23,4.93-3.76,5.34-7.51
		c0.22-1.94,0.27-3.87,0.17-5.78C360.75,206.54,360.97,198.16,355.26,191.82z"/>
	<path class="st2" d="M197.17,404.28c0,0-114.58-20-141.98,95.72h412.25c0,0-3.74-87.15-189.31-97.15
		C278.12,402.85,215.85,405.71,197.17,404.28z"/>
	<path class="st3" d="M223.25,327.91c0.18,23.81-0.69,47.63-2.27,71.4c-0.6,8.98-6.19,11.83-13.07,16.06
		c-14.09,8.65-16.84,30.35-5.45,42.31c5.61,5.9,13.29,9.37,21.04,11.87c14.72,4.76,30.29,6.5,45.76,6.52
		c15.56,0.02,31-3.06,42.73-14.06c3.95-3.7,7.01-8.65,7.33-14.06c0.74-12.62-12.63-23.07-17.74-33.8
		c-9.87-20.71-9.13-44.76-6.85-67.08c2.49-24.32,8.22-48.14,13.49-71.96c5.14-23.26,9.87-48.68,5.79-72.51
		c-1.85-10.8-6.16-22.38-16.15-28.12c-17.85-10.25-43.99,1.86-54.82,17.35c-21.77,31.16-21.69,76.35-20.32,112.52
		C223.02,312.21,223.19,320.06,223.25,327.91z"/>
	<path class="st3" d="M124.3,146.91c0,0-2.49,66.01,0,94.03s11.21,70.37,13.7,75.35c2.49,4.98,6.23,14.95,16.19,18.68
		c9.96,3.74,67.26,21.17,108.36-3.74s66.01-46.08,70.99-109.6c0,0,17.44-89.67-6.23-135.13c-23.66-45.46-84.79-51.62-130.2-38.58
		S125.55,87.12,124.3,146.91z"/>
	<path class="st3" d="M315.49,194.86c0,0,19.93-6.23,28.65,0s31.14,52.31-36.12,79.71S315.49,194.86,315.49,194.86z"/>
	<path class="st1" d="M363.33,142.9c-2.01-22.3-7.86-43.92-17.69-64.06c-4.44-9.09-9.56-20.04-17.07-27.04
		c-3.88-3.62-9.01-5.32-13.08-8.69c-4.38-3.62-8.27-7.39-13.4-9.99c-17.8-9.02-40.7-8.66-60.16-7.56
		c-20.7,1.17-41.36,5.18-60.57,13.1c-10.46,4.31-20.47,9.64-29.65,16.28c-9.29,6.73-17.5,16.66-28.99,19.46
		c-4.74,1.15-4.42,7.07-0.96,9.1c-6.27,8.77-11.22,18.29-14.79,28.61c-1.5,4.32,3.14,7.03,6.63,5.8
		c-3.06,17.69-2.94,35.77,0.31,53.63c0.86,4.71,8.84,4.81,9.61,0c1.83-11.36,3.77-23.22,8.03-34.02c0.24,0,0.47,0,0.71-0.01
		c-0.17,12.22,0.57,24.43,2.19,36.62c0,0.05,0,0.1,0.01,0.15h0.01c0.06,0.44,0.1,0.88,0.16,1.33c0.77,5.56,10.04,4.23,9.79-1.32
		c-0.48-10.39,0.47-20.65,3.21-30.7c1.4-5.13,3.19-10.16,5.43-14.98c0.74-1.59,2.76-6.79,5.07-9.79
		c1.32,20.22,6.71,39.75,15.93,57.9c2.71,5.34,10.06,1.39,9.11-3.84c-3.92-21.58-7.18-43.93-2.49-65.4
		c2.83,28.84,10.51,56.87,22.78,83.25c2.53,5.44,10.06,1.34,9.11-3.84c-3.83-20.73-7.58-42.11-6.31-63.13
		c5.28,22.29,15.69,43.15,30.54,61.01c3.2,3.85,9.81-0.28,8.33-4.85c-3.73-11.47-6.65-23.11-8.77-34.9
		c9.65,16.43,22.91,30.64,38.92,41.47c4.07,2.76,9.59-2.74,6.82-6.82c-6.14-9.03-11.56-18.46-16.28-28.24
		c4.94,5.45,9.94,10.86,15.54,15.66c12.13,10.39,26.13,18.1,40.1,25.68c2.69,1.46,5.98-0.03,7.16-2.44c1.46,2.25,2.87,4.53,4.27,6.8
		c2.33,3.78,7.18,2.53,8.81-0.41c3.79-0.19,6.7,1.22,8.65,4.79c2.4,4.39,9.28,2.33,9.28-2.51c0.02-17.11-0.13-34.21-0.44-51.32
		C361.49,147.33,363.58,145.63,363.33,142.9z"/>
</g>
</svg>
