<?xml version="1.0" encoding="utf-8"?>
<!-- Generator: Adobe Illustrator 24.0.3, SVG Export Plug-In . SVG Version: 6.00 Build 0)  -->
<svg version="1.1" id="Layer_1" xmlns="http://www.w3.org/2000/svg" xmlns:xlink="http://www.w3.org/1999/xlink" x="0px" y="0px"
	 viewBox="0 0 500 500" style="enable-background:new 0 0 500 500;" xml:space="preserve">
<style type="text/css">
	.st0{fill:#AB47BC;}
	.st1{fill:#F15A24;}
	.st2{fill:#93278F;}
	.st3{fill:#EEBEAA;}
</style>
<rect class="st0" width="500" height="500"/>
<g>
	<path class="st1" d="M324.14,249.34c-3.38-6.53-10.98-9.43-17.99-8c-7.18,1.46-12.22,7.63-13.92,14.49
		c-0.95,3.82-1.01,7.94,0.66,11.57c0.42,0.91,0.88,1.66,1.3,2.4c-0.29,1.2-0.42,2.48-0.39,3.77c0.17,7.36-0.03,14.72-0.46,22.06
		c-1.44,12.19-5.37,23.76-14.27,33.19c-3.81,4.04-1.93,11.21,2.09,14.27c4.8,3.66,10.51,1.9,14.27-2.09
		c7.55-8,12.25-17.4,15.08-27.44c0.63-0.71,1.19-1.53,1.66-2.47c0.72-1.44,1.36-2.89,1.95-4.36c0.25-0.05,0.49-0.08,0.74-0.14
		c6.67-1.63,10.31-7.54,7.86-14.19c-1.09-2.98-1.97-6.04-2.62-9.14c0.83-4.35,1.7-8.7,2.88-12.99
		C324.88,263.26,327.77,256.37,324.14,249.34z"/>
	<path class="st2" d="M178.17,395.52c0,0-125.08-21.83-154.98,104.48h450c0,0-4.08-95.13-206.65-106.04
		C266.53,393.96,198.56,397.08,178.17,395.52z"/>
	<path class="st3" d="M206.72,312.16c0.15,13.15-0.03,26.24-0.68,39.61c-0.91,18.46-0.76,38.05-4.8,56.17
		c-4.12,18.48-17.81,46.63-5.45,55.79s37.56,12.28,69.44,4.79c31.87-7.49,43.52-21.59,36.09-43.85s-33.98-25.19-1.93-170.15
		c5.61-25.39,10.77-53.14,6.32-79.14c-2.02-11.78-6.73-24.43-17.63-30.69c-19.49-11.19-48.02,2.03-59.83,18.94
		c-23.77,34.01-23.67,83.34-22.18,122.82C206.39,295.1,206.62,303.64,206.72,312.16z"/>
	<path class="st3" d="M93.88,134.29c0,0,23.11,179.45,38.07,206.65c6.52,11.85,13.79,32.14,28.55,33.99
		c10.88,1.36,114.88,10.2,128.47-25.15c13.6-35.35,42.82-171.98,29.23-231.8c-13.6-59.82-68.66-76.81-110.8-72.73
		S99.31,54.08,93.88,134.29z"/>
	<path class="st1" d="M339.3,159.59c-0.68-28.52-7.6-55.22-15.01-82.58c-3-11.07-5.74-22.54-14.47-30.64
		c-8.51-7.9-20.22-12.41-31.36-15.03c-26.16-6.16-53.95-3.34-80.56-3.11c-16.27,0.14-32.55,0.11-48.82-0.09
		c-8.14-0.1-16.27-0.24-24.41-0.43c-7.33-0.17-14.93,0.18-21.45-3.66c-3.39-2-9.35-0.37-9.99,4.06
		c-2.03,14.14,4.94,27.52,16.64,33.18c-24.92,22.95-34.59,59.03-22.58,91.95c1.35,3.7,5.11,5.71,8.54,4.67
		c0.4,1.32,0.83,2.64,1.33,3.95c2.32,6.05,11.08,6.83,13.11,0c4.1-13.83,8.33-28.62,19.27-38.72c5.23-4.83,10.87-6.54,17.57-8.39
		c1.27-0.35,2.48-0.81,3.67-1.3c1.11,0.32,2.4,0.35,3.86-0.04c28.43-7.6,58.59-3.26,83.78,11.93c7.73,4.06,14.39-7.2,6.86-11.74
		c-4.04-2.12-7-5.38-9.97-8.68c2.03,0.16,4.05,0.32,6.08,0.47c3.98,0.29,8.13,0.25,12.06,0.92c4.23,0.73,6.73,3.33,9.73,6.21
		c5.85,5.62,11.68,11.26,17.52,16.89c1.27,1.23,2.67,2.7,4.18,4.02c2.18,3.86,4.09,7.87,6.06,11.37c0.08,0.14,0.15,0.27,0.23,0.41
		c1.85,5.74,3.69,11.48,5.53,17.22c0.41,1.29,1.11,2.29,1.98,3.06c2.89,11.55,4.39,23.34,4.39,35.4c0,3.73,2.47,5.87,5.31,6.42
		c0.04,4.35,0.28,8.67,0.75,13.02c0.53,4.9,5.13,7.71,9.06,6.36c1.45,0.2,2.95-0.03,4.22-0.84c6.24-3.94,18.84-11.86,14.91-20.68
		c0.47-1.13,0.81-2.33,1-3.58C340.32,188.04,339.63,173.27,339.3,159.59z"/>
	<path class="st3" d="M301.88,210.42c0,0,29.91-12.24,28.55,13.6s-9.52,78.85-32.63,66.62C274.69,278.4,301.88,210.42,301.88,210.42
		z"/>
</g>
</svg>
