<?xml version="1.0" encoding="utf-8"?>
<!-- Generator: Adobe Illustrator 24.0.3, SVG Export Plug-In . SVG Version: 6.00 Build 0)  -->
<svg version="1.1" id="Layer_1" xmlns="http://www.w3.org/2000/svg" xmlns:xlink="http://www.w3.org/1999/xlink" x="0px" y="0px"
	 viewBox="0 0 500 500" style="enable-background:new 0 0 500 500;" xml:space="preserve">
<style type="text/css">
	.st0{fill:#FFEE58;}
	.st1{fill:#23190A;}
	.st2{fill:#FFC800;}
	.st3{fill:#DBA370;}
</style>
<rect class="st0" width="500" height="500"/>
<path class="st1" d="M448.61,326.07c-0.74-4.18-2.07-8.16-4-11.92c-1.2-1.99-2.11-4.11-2.72-6.35c-0.1-1.02-0.2-2.04-0.3-3.06
	c0.02-4.82-0.67-9.55-2.05-14.2c-2.59-9.56-8.12-17.39-11.53-26.48c0.9-0.34,2.03-0.21,2.87-0.59c2.19-0.99,2.75-3.51,2.31-5.58
	c-1.08-5.09-4.18-9.89-6.65-14.44c5.08,1.88,0.68-8.99-0.13-10.72c-1.36-2.87-3.13-4.77-5.12-6.68c0.81-1.09,1.61-2.22,2.43-3.35
	c4.93-6.74,8.36-13.71,10.66-21.81c0.88-3.12,2.11-7.31,1.4-10.6c-0.23-1.04-1.05-1.87-1.28-2.96c-0.33-1.52-0.18-3.21-0.14-4.74
	c0.18-8.07,0.98-16.12,1.31-24.18c0.11-2.7,0.89-6.49-0.79-8.83c-1.16-1.61-2.91-2.49-4.68-3.23c-2.5-1.06-5.06-2.37-7.66-3.16
	c-3.04-0.91-6.19-1.23-9.26-1.97c2.6-4.85,1.44-12.41,0.78-17.68c-0.3-2.38-0.04-7.99-2.86-8.96c-1.48-0.51-3.6-0.13-4.95-0.66
	c-1.76-0.69-0.94-3.39-2.45-3.82c-1.12,1.83-0.29,7.53-3.4,5.88c-2.4-1.27-3.86-3.98-5.89-5.72c-3.11-2.65-6.68-4.69-9.81-7.37
	c-6.11-5.22-12.17-10.29-20.4-11.59c-1.52-0.24-4.31-1.1-5.69-0.37c-1.38,0.74-1.91,2.49-2.39,3.9c1.11-3.76-4.21-6.6-6.59-8.33
	c-3.95-2.87-8.2-4.37-13-5.17c-6.24-1.03-13.34-0.59-19.03,2.29c-0.29,0.15-0.83,0.4-1.46,0.73c0.11-2.52-1.32-4.3-3.52-5.9
	c-5.57-3.1-11.42-5.57-17.54-7.42c-13.12-3.99-26.43-7.18-39.93-9.58c-14.05-2.65-28.06-4.61-42.3-5.76
	c-2.04-0.16-7.06-1.47-8.72,0.82c-1.17,1.61-0.04,3.62,1.13,4.98c-0.86,0.28-2.43,0.41-2.98,0.58c-1.2,0.38-2.3,0.99-3.51,1.38
	c-2.14,0.69-4.36,0.92-6.52,1.65c-2.01,0.68-2.36,1.48-3.85,3.11c-0.87-0.12-1.7-0.4-2.47-0.83c-2.08-0.6-4.2-0.69-6.35-0.27
	c-6.76,0.66-13.22,2.71-19.16,5.93c-6.38,3.45-10.95,6.88-12.21,14.22c-0.14,0.81,0,2.79-0.83,3.09c-1.05,0.39-4.37-1.73-5.58-2.03
	c-2.24-0.56-3.98-0.32-6.14,0.42c-5.77,1.97-11.35,4.87-16.8,7.56c-6.07,2.99-12.09,6.08-18.1,9.19c-3.68,1.9-7.79,3.56-10.9,6.37
	c-1.54,1.39-2.53,3.02-2.68,5.12c-0.14,1.95,0.74,2.56,1.44,4.1c0.79,0.6,0.99,1.4,0.59,2.4c-1.36,3.29-2.85,6.53-4.46,9.71
	c-2.58,5.87-4.84,12.29-5.17,18.77c-0.18,3.58-0.39,8.83,0.95,12.32c0.48,1.25,2.19,2.86,2.17,4.22c-0.03,1.75-3.51,3.59-4.56,4.46
	c-2.9,2.44-6.28,4.15-8.83,7.01c-4.6,5.17-5.24,11.67-5.15,18.39c0.09,7.11,1.72,14.2,3.19,21.12c0.41,1.93,0.51,3.7,1.26,5.37
	c0.69,1.53,0.79,2.04,0.44,3.81c-1.34,6.65-2.6,13.14-2.99,19.94c-0.23,4.13-0.81,9.3,0.05,13.44c0.52,2.51,0.79,2.85-1.7,4
	c-6.11,2.82-10.63,7.54-11.63,14.26c-0.67,4.48-1.01,9.08-1.3,13.6c-0.26,4.07-1.49,7.45-3.04,11.26c-1.37,2.2-2.07,4.59-2.1,7.15
	c0.56,1.92,1.65,3.44,3.28,4.59c1.94,1.69,4.35,3.1,5.96,5.13c-1.53,1.32-3.97,0.24-5.53,1.4c-1.7,1.27-2.32,6.02-1.98,7.92
	c0.64,3.55,4.43,6.93,6.82,9.12c2.22,1.99,4.53,3.87,6.92,5.64c1.18,1.03,2.48,1.84,3.92,2.44c1.64,0.35,2.33-0.95,3.83-0.44
	c2.91,1,5.5,4.54,7.84,6.4c2.31,1.84,3.17,3.11,5.86,1.38c2.92-1.89,5.68-4.16,8.1-6.65c3.96,3.12,4.67,9.06,8.22,12.67
	c1.01,1.03,2.24,1.92,3.43,2.73c3.11,2.11,10.84-0.49,13.81-1.06c11.17-2.12,22.17-4.99,33.09-8.15c6.59-1.91,13.16-4.09,19.86-5.58
	c2.93-0.65,5.9-0.19,6.77-3.6c1.73,3.44,0.72,9.94,5.06,11.68c4.29,1.72,8.72,0.09,12.51-1.96c2.17-1.17,3.58-2.46,6-1.09
	c2.53,1.44,4.8,3.08,7.44,4.36c1.04,0.5,1.84,1.17,3,1.31c1.39,0.17,2.89-0.12,4.26-0.19c2.31-0.12,2.93,1.08,4.63,2.6
	c3.74,3.34,8.1,6.21,12.22,9.07c2.08,1.86,4.48,3.03,7.19,3.52c2-0.5,3.52-1.63,4.58-3.39c2.36-2.02,3.81-0.15,6.09,1.57
	c6.52,4.9,12.71,10.05,21.55,8.9c4.99-0.65,9.01-2.72,13.1-5.61c2.99-2.11,3.63-3.07,7.13-1.83c7.69,2.72,16.1,4.54,23.4-0.39
	c1.62-1.09,3.04-3.15,5.04-2.57c1.74,1.36,3.62,2.52,5.62,3.49c1.87,0.9,3.75,1.79,5.62,2.69c3.31,1.91,6.88,2.97,10.7,3.18
	c5.31,0.03,10.57-0.52,15.76-1.63c7.14-1.39,14.32-3.44,21.07-6.15c1.74-0.96,3.59-1.59,5.55-1.89c1.71,0.14,3.31,0.63,4.81,1.48
	c5.63,2.23,11.35,2.9,17.35,3.76c5,0.71,9.99,1.43,14.98,2.15c1.7,0.64,3.26,0.56,4.66-0.26c0.75-0.32,1.46-0.71,2.13-1.16
	c1.72-0.22,3.44-0.21,5.16,0.03c3.2,0.14,4.05-2.31,5.2-4.94c1.84-4.19,1.59-8.14,0.16-12.37c-0.33-0.96-0.64-1.16-0.3-2.05
	c0.91-0.4,1.74-0.93,2.48-1.6c2.57-3.54,4.47-7.42,5.68-11.65C448.89,338.52,449.96,333.4,448.61,326.07z"/>
<g>
	<path class="st1" d="M328.63,269.22c-4.78-2.39-11.38-1.04-16.29,0.51c-5.76,1.82-10.61,5.2-13.64,10.51
		c-3.1,5.44-4.28,12.03-6.39,17.88c-2.31,6.39-5.22,12.44-8.73,18.26c-6.09,10.09,9.41,19.28,15.73,9.72
		c1.25-0.74,2.37-1.89,3.24-3.51c5.09-9.46,13.67-15.95,20.75-23.82C329.58,291.77,342.09,275.94,328.63,269.22z"/>
	<path class="st2" d="M189.84,405.18c0,0-113.51-19.81-140.66,94.82h408.4c0,0-3.7-86.33-187.54-96.24
		C270.04,403.76,208.35,406.59,189.84,405.18z"/>
	<path class="st3" d="M222.97,324.07c-1.62,11.83-3.52,23.55-5.9,35.47c-3.28,16.45-5.76,34.06-11.81,49.78
		c-6.17,16.04-22.21,39.48-12.34,49.35s32.08,16.04,61.69,13.57s41.95-13.57,38.25-34.55s-27.14-27.14,20.98-153
		c8.43-22.04,16.76-46.26,16.24-70.2c-0.24-10.85-2.78-22.83-11.73-29.9c-16-12.65-43.38-4.59-56.24,9.02
		c-25.87,27.36-32.37,71.66-36.3,107.29C224.95,308.71,224.02,316.41,222.97,324.07z"/>
	<path class="st3" d="M208.35,63.22c0,0-54.29,4.94-67.86,65.39c-13.57,60.46-33.31,148.06-22.21,183.84s86.37,64.16,128.32,45.65
		s92.54-135.72,98.71-180.14C351.47,133.55,331.73,44.71,208.35,63.22z"/>
	<path class="st1" d="M368.04,154.08c0.91-1.76,1.21-3.93,0.55-6.4c-2.01-7.46-0.24-15.41-1.94-22.99
		c-1.75-7.8-7.03-13.17-11.72-19.3c-9.14-11.95-12.93-26.88-25.05-36.64c-6.19-4.98-12.6-7.69-19.3-9.17
		c-1.32-2.85-3.93-5.14-7.85-5.51c-8.35-0.78-16.54-2.65-24.44-5.43c-7.45-2.62-14.43-6.04-22.55-5.59
		c-8.3,0.45-16.32,2.09-24.69,2.24c-7.93,0.14-16.06,0.3-23.74,2.47c-7.54,2.13-14.11,6.38-20.98,9.99
		c-6.38,3.35-12.84,4.23-19.86,5.36c-16.15,2.61-25.29,12.29-29.13,27.97c-0.23,0.92-0.31,1.79-0.29,2.62
		c-2.25,4.22-3.94,8.75-4.82,13.43c-1.47,7.8-0.02,15.63-1.19,23.38c-0.28,1.85-0.18,3.69,0.33,5.35c-0.75,1.01-1.54,1.98-2.27,2.88
		c-3.16,3.92-3.76,9.24,0,13.09c3.21,3.28,9.96,3.88,13.09,0c3.24-4.02,6.51-8.16,8.65-12.87c1.67-0.72,3.11-1.95,4.04-3.69
		c1.51-2.86,2.86-5.81,4.06-8.82c3.01-3.34,6.95-6.18,9.73-9.33c2.92-3.3,5.57-6.92,7.74-10.76c0.69-1.22,1.25-2.7,1.96-4.02
		c0.33-0.12,0.67-0.23,1-0.39c7.54-3.48,16.04-4.86,24.3-4c8.82,0.91,16.34,5.53,24.85,7.48c9.02,2.07,18.11,0.99,27.25,1.06
		c9.69,0.07,19.2,1.52,28.49,4.27c3.32,0.98,7.19,1.9,9.78,4.34c2.56,2.42,3.92,6.29,5.54,9.35c2.96,5.6,6.74,10.72,10.78,15.6
		c2.06,7.16,5.03,14.03,8.43,20.66c7.43,14.5,18.49,30.29,11.95,47.14c-0.12,0.3-0.21,0.61-0.28,0.92
		c-4.03,9.4-9.13,18.33-14.37,27.28c-6.03,10.3,9.96,19.63,15.98,9.34c0.89-1.52,1.77-3.04,2.65-4.57c0.42,0.38,0.87,0.72,1.34,1
		c4.68,2.81,9.7,0.67,12.66-3.32c5.84-7.86,12.23-15.53,17.61-23.7c4.67-7.08,2.85-16.34,4.12-24.48
		C372.34,178.03,370.58,166.03,368.04,154.08z"/>
	<path class="st3" d="M303.35,240.28c0,0,34.55-25.91,43.18-7.4s-14.07,67.84-34.8,57.36C291.01,279.76,303.35,240.28,303.35,240.28
		z"/>
</g>
</svg>
