<?xml version="1.0" encoding="utf-8"?>
<!-- Generator: Adobe Illustrator 24.0.3, SVG Export Plug-In . SVG Version: 6.00 Build 0)  -->
<svg version="1.1" id="Layer_1" xmlns="http://www.w3.org/2000/svg" xmlns:xlink="http://www.w3.org/1999/xlink" x="0px" y="0px"
	 viewBox="0 0 500 500" style="enable-background:new 0 0 500 500;" xml:space="preserve">
<style type="text/css">
	.st0{fill:#66BB6A;}
	.st1{fill:#277D33;}
	.st2{fill:#9B6239;}
	.st3{fill:#5F3E22;}
	.st4{fill:#23190A;}
</style>
<rect x="-0.5" y="-0.5" class="st0" width="500" height="500"/>
<g>
	<path class="st1" d="M184.71,403.24c0,0-115.83-20.22-143.53,96.76h416.73c0,0-3.78-88.09-191.37-98.2
		C266.54,401.8,203.59,404.69,184.71,403.24z"/>
	<path class="st2" d="M218.51,320.48c-1.65,12.07-3.6,24.03-6.02,36.19c-3.34,16.78-5.88,34.75-12.05,50.79
		c-6.29,16.37-22.66,40.29-12.59,50.36c10.07,10.07,32.73,16.37,62.95,13.85s42.81-13.85,39.03-35.25s-27.7-27.7,21.4-156.12
		c8.6-22.49,17.11-47.21,16.57-71.63c-0.24-11.07-2.83-23.29-11.97-30.51c-16.33-12.9-44.26-4.68-57.39,9.2
		c-26.4,27.92-33.03,73.12-37.04,109.48C220.53,304.82,219.58,312.67,218.51,320.48z"/>
	<path class="st2" d="M203.59,54.32c0,0-55.4,5.04-69.24,66.73s-33.99,151.08-22.66,187.59s88.13,65.47,130.94,46.58
		c42.81-18.88,94.42-138.49,100.72-183.81C349.63,126.08,329.49,35.43,203.59,54.32z"/>
	<path class="st3" d="M296.55,178.33c0,0,1.47,31.47-1.05,41.55c-2.52,10.07-17.35,47.2-17.35,47.2l48.83-27.06
		c0,0,7.55-28.96,9.44-32.1S316.48,134.26,296.55,178.33z"/>
	<path class="st2" d="M315.64,229.32c0,0,33.99-23.92,46.58,0s-36.51,45.32-57.91,52.88C282.91,289.75,271.58,251.98,315.64,229.32z
		"/>
	<path class="st4" d="M149.45,87.68c0,0,23.92-10.07,45.32-2.52s90.65,35.25,99.46,88.13c0,0,0,7.55,5.04,8.81
		s36.51,18.88,35.25,30.22s30.22-61.69-5.04-115.83s-104.5-60.43-134.71-52.88S130.57,76.35,149.45,87.68z"/>
</g>
</svg>
