<?xml version="1.0" encoding="utf-8"?>
<!-- Generator: Adobe Illustrator 24.0.3, SVG Export Plug-In . SVG Version: 6.00 Build 0)  -->
<svg version="1.1" id="Layer_1" xmlns="http://www.w3.org/2000/svg" xmlns:xlink="http://www.w3.org/1999/xlink" x="0px" y="0px"
	 viewBox="0 0 500 500" style="enable-background:new 0 0 500 500;" xml:space="preserve">
<style type="text/css">
	.st0{fill:#FFEE58;}
	.st1{fill:#23190A;}
	.st2{fill:#FFD500;}
	.st3{fill:#DBA370;}
</style>
<rect class="st0" width="500" height="500"/>
<g>
	<path class="st1" d="M328.63,269.22c-4.78-2.39-11.38-1.04-16.29,0.51c-5.76,1.82-10.61,5.2-13.64,10.51
		c-3.1,5.44-4.28,12.03-6.39,17.88c-2.31,6.39-5.22,12.44-8.73,18.26c-6.09,10.09,9.41,19.28,15.73,9.72
		c1.25-0.74,2.37-1.89,3.24-3.51c5.09-9.46,13.67-15.95,20.75-23.82C329.58,291.77,342.09,275.94,328.63,269.22z"/>
	<path class="st2" d="M189.84,405.18c0,0-113.51-19.81-140.66,94.82h408.4c0,0-3.7-86.33-187.54-96.24
		C270.04,403.76,208.35,406.59,189.84,405.18z"/>
	<path class="st3" d="M222.97,324.07c-1.62,11.83-3.52,23.55-5.9,35.47c-3.28,16.45-5.76,34.06-11.81,49.78
		c-6.17,16.04-22.21,39.48-12.34,49.35s32.08,16.04,61.69,13.57s41.95-13.57,38.25-34.55s-27.14-27.14,20.98-153
		c8.43-22.04,16.76-46.26,16.24-70.2c-0.24-10.85-2.78-22.83-11.73-29.9c-16-12.65-43.38-4.59-56.24,9.02
		c-25.87,27.36-32.37,71.66-36.3,107.29C224.95,308.71,224.02,316.41,222.97,324.07z"/>
	<path class="st3" d="M208.35,63.22c0,0-54.29,4.94-67.86,65.39c-13.57,60.46-33.31,148.06-22.21,183.84s86.37,64.16,128.32,45.65
		s92.54-135.72,98.71-180.14C351.47,133.55,331.73,44.71,208.35,63.22z"/>
	<path class="st1" d="M368.04,154.08c0.91-1.76,1.21-3.93,0.55-6.4c-2.01-7.46-0.24-15.41-1.94-22.99
		c-1.75-7.8-7.03-13.17-11.72-19.3c-9.14-11.95-12.93-26.88-25.05-36.64c-6.19-4.98-12.6-7.69-19.3-9.17
		c-1.32-2.85-3.93-5.14-7.85-5.51c-8.35-0.78-16.54-2.65-24.44-5.43c-7.45-2.62-14.43-6.04-22.55-5.59
		c-8.3,0.45-16.32,2.09-24.69,2.24c-7.93,0.14-16.06,0.3-23.74,2.47c-7.54,2.13-14.11,6.38-20.98,9.99
		c-6.38,3.35-12.84,4.23-19.86,5.36c-16.15,2.61-25.29,12.29-29.13,27.97c-0.23,0.92-0.31,1.79-0.29,2.62
		c-2.25,4.22-3.94,8.75-4.82,13.43c-1.47,7.8-0.02,15.63-1.19,23.38c-0.28,1.85-0.18,3.69,0.33,5.35c-0.75,1.01-1.54,1.98-2.27,2.88
		c-3.16,3.92-3.76,9.24,0,13.09c3.21,3.28,9.96,3.88,13.09,0c3.24-4.02,6.51-8.16,8.65-12.87c1.67-0.72,3.11-1.95,4.04-3.69
		c1.51-2.86,2.86-5.81,4.06-8.82c3.01-3.34,6.95-6.18,9.73-9.33c2.92-3.3,5.57-6.92,7.74-10.76c0.69-1.22,1.25-2.7,1.96-4.02
		c0.33-0.12,0.67-0.23,1-0.39c7.54-3.48,16.04-4.86,24.3-4c8.82,0.91,16.34,5.53,24.85,7.48c9.02,2.07,18.11,0.99,27.25,1.06
		c9.69,0.07,19.2,1.52,28.49,4.27c3.32,0.98,7.19,1.9,9.78,4.34c2.56,2.42,3.92,6.29,5.54,9.35c2.96,5.6,6.74,10.72,10.78,15.6
		c2.06,7.16,5.03,14.03,8.43,20.66c7.43,14.5,18.49,30.29,11.95,47.14c-0.12,0.3-0.21,0.61-0.28,0.92
		c-4.03,9.4-9.13,18.33-14.37,27.28c-6.03,10.3,9.96,19.63,15.98,9.34c0.89-1.52,1.77-3.04,2.65-4.57c0.42,0.38,0.87,0.72,1.34,1
		c4.68,2.81,9.7,0.67,12.66-3.32c5.84-7.86,12.23-15.53,17.61-23.7c4.67-7.08,2.85-16.34,4.12-24.48
		C372.34,178.03,370.58,166.03,368.04,154.08z"/>
	<path class="st3" d="M303.35,240.28c0,0,34.55-25.91,43.18-7.4s-14.07,67.84-34.8,57.36C291.01,279.76,303.35,240.28,303.35,240.28
		z"/>
</g>
</svg>
